<svg xmlns="http://www.w3.org/2000/svg" >
    <symbol id="success" viewBox="0 0 14 14">
    	<path fill-rule="evenodd" d="M4.568 10.647L1.243 7.13c-.329-.347-.9-.391-1.268-.091l.365-.334a.945.945 0 0 0-.08 1.286l4.672 5.674.012-.028.017.021 7.941-12.417c.26-.407.182-1.012-.2-1.308l.492.398c-.388-.237-.94-.106-1.22.271L4.569 10.647z"/>
	</symbol>
    <symbol id="failed" viewBox="0 0 12 12">
	    <path fill-rule="evenodd" d="M4.993 6L.204 1.211A.706.706 0 0 1 .21.21.706.706 0 0 1 1.211.204L6 4.993 10.789.204A.706.706 0 0 1 11.79.21a.706.706 0 0 1 .006 1.001L7.007 6l4.789 4.789a.706.706 0 0 1-.006 1.001.706.706 0 0 1-1.001.006L6 7.007l-4.789 4.789A.706.706 0 0 1 .21 11.79a.706.706 0 0 1-.006-1.001L4.993 6z"/>
	</symbol>
</svg>