<?xml version="1.0" standalone="no"?>
<!DOCTYPE svg PUBLIC "-//W3C//DTD SVG 1.1//EN" "http://www.w3.org/Graphics/SVG/1.1/DTD/svg11.dtd" >
<svg>
<metadata>
Created by FontForge 20090914 at Wed Nov 15 06:41:44 2017
 By www-data
Copyright (c) 2014 by Fontfabric LLC. All rights reserved.
</metadata>
<defs>
<font id="GloberMRegular" horiz-adv-x="678" >
  <font-face 
    font-family="GloberM Regular"
    font-weight="400"
    font-stretch="normal"
    units-per-em="1000"
    panose-1="0 0 0 0 0 0 0 0 0 0"
    ascent="750"
    descent="-250"
    x-height="526"
    cap-height="720"
    bbox="-159 -261 1032 1089.43"
    underline-thickness="50"
    underline-position="-50"
    unicode-range="U+0020-U+FB02"
  />
<missing-glyph horiz-adv-x="618" 
d="M37 0v720h538v-720h-538zM417 598c-27.333 23.333 -65.335 35.001 -114.002 35.001c-51.333 0 -92.666 -9 -123.999 -27c-2 -18 4 -32 18 -42c24.667 13.333 57.667 20 99 20c68 0 102 -29 102 -87c0 -38.667 -22 -78.334 -66 -119.001c-44.667 -40 -67 -91.667 -67 -155
c5.33301 -4 13 -6 23 -6c10.667 0 18.334 2 23.001 6c0 47.333 24.667 92 74 134c48.667 41.333 73 89 73 143c0 41.333 -13.667 74 -41 98zM320.998 143.001c-7.33301 2.66699 -18.333 4 -33 4s-25.334 -1.33301 -32.001 -4v-58c6.66699 -2.66699 17.334 -4 32.001 -4
s25.667 1.33301 33 4v58z" />
    <glyph glyph-name="uniFB01" unicode="fi" horiz-adv-x="567" 
d="M104 586c0 109.333 61.333 164 184 164c72 0 135.333 -10 190 -30c0 -22 -6.33301 -39.667 -19 -53c-47.333 16 -102.333 24 -165 24c-43.333 0 -74 -8 -92 -24c-17.333 -16 -26 -41.333 -26 -76v-65h269c12.667 0 25.667 -1.33301 39 -4v-517c-8 -3.33301 -20 -5 -36 -5
c-17.333 0 -29.333 1.66699 -36 5v464h-236v-464c-8 -3.33301 -20 -5 -36 -5c-16.667 0 -28.667 1.66699 -36 5v464h-64c-2.66699 7.33301 -4 17 -4 29s1.33301 21.333 4 28h64v60z" />
    <glyph glyph-name="uniFB02" unicode="fl" horiz-adv-x="569" 
d="M104 586c0 109.333 59.333 164 178 164c72 0 139.333 -11.333 202 -34v-711c-8 -3.33301 -20 -5 -36 -5c-17.333 0 -29.333 1.66699 -36 5v670c-42.667 10.667 -84 16 -124 16c-74.667 0 -112 -33.333 -112 -100v-65h112c2.66699 -8 4 -17.333 4 -28
c0 -10 -1.33301 -19.667 -4 -29h-112v-464c-8 -3.33301 -20 -5 -36 -5c-16.667 0 -28.667 1.66699 -36 5v464h-64l-4 29c0 10.667 1.33301 20 4 28h64v60z" />
    <glyph glyph-name=".notdef" horiz-adv-x="618" 
d="M37 0v720h538v-720h-538zM417 598c-27.333 23.333 -65.335 35.001 -114.002 35.001c-51.333 0 -92.666 -9 -123.999 -27c-2 -18 4 -32 18 -42c24.667 13.333 57.667 20 99 20c68 0 102 -29 102 -87c0 -38.667 -22 -78.334 -66 -119.001c-44.667 -40 -67 -91.667 -67 -155
c5.33301 -4 13 -6 23 -6c10.667 0 18.334 2 23.001 6c0 47.333 24.667 92 74 134c48.667 41.333 73 89 73 143c0 41.333 -13.667 74 -41 98zM320.998 143.001c-7.33301 2.66699 -18.333 4 -33 4s-25.334 -1.33301 -32.001 -4v-58c6.66699 -2.66699 17.334 -4 32.001 -4
s25.667 1.33301 33 4v58z" />
    <glyph glyph-name="space" unicode=" " horiz-adv-x="237" 
 />
    <glyph glyph-name="exclam" unicode="!" horiz-adv-x="258" 
d="M90 715c5.33301 3.33301 18.333 5 39 5c20 0 33 -1.66699 39 -5l-12 -539c-6 -4 -15 -6 -27 -6s-21 2 -27 6zM168 5c-8 -3.33301 -21 -5 -39 -5c-18.667 0 -31.667 1.66699 -39 5v73c7.33301 3.33301 20.333 5 39 5c18 0 31 -1.66699 39 -5v-73z" />
    <glyph glyph-name="quotedbl" unicode="&#x22;" horiz-adv-x="332" 
d="M65 715c7.33301 3.33301 19.334 5 36.001 5s28.667 -1.66699 36 -5l-13 -197c-4.66699 -2.66699 -12.334 -4 -23.001 -4c-10 0 -17.667 1.33301 -23 4zM195.001 715c6.66699 3.33301 18.668 5 36.001 5c16 0 28 -1.66699 36 -5l-13 -197c-5.33301 -2.66699 -13 -4 -23 -4
c-10.667 0 -18.334 1.33301 -23.001 4z" />
    <glyph glyph-name="numbersign" unicode="#" horiz-adv-x="657" 
d="M494 617c10 4 20.665 5.99902 31.998 5.99902c12.667 0 23.334 -2 32.001 -6l-39 -136h90c3.33301 -8.66699 5 -18 5 -28c0 -10.667 -1.66699 -21 -5 -31h-106l-65 -230h87c3.33301 -6.66699 5 -16.334 5 -29.001c0 -10 -1.66699 -20 -5 -30h-104l-35 -127
c-14 -4 -25 -6 -33 -6c-5.33301 0 -16 2 -32 6l36 127h-154l-36 -127c-14 -4 -25 -6 -33 -6c-6.66699 0 -17 2 -31 6l35 127h-93c-3.33301 6.66699 -5 16.334 -5 29.001c0 13.333 1.66699 23.333 5 30h110l65 230h-91c-3.33301 7.33301 -5 17.333 -5 30
s1.66699 22.334 5 29.001h107l39 136c10 4 20.667 6 32 6c12.667 0 23.334 -2 32.001 -6l-38 -136h154zM219.998 191.999h154l64 230h-154z" />
    <glyph glyph-name="dollar" unicode="$" horiz-adv-x="562" 
d="M246 784c8 3.33301 19 4.99902 33 4.99902c14.667 0 26 -1.66699 34 -5l-8 -116c68 -2 123.333 -10 166 -24c0 -12 -1.33301 -22 -4 -30c-4 -12 -9.66699 -20.333 -17 -25c-42.667 13.333 -92.667 20 -150 20c-112.667 0 -169 -37.667 -169 -113c0 -38 19.667 -67 59 -87
c17.333 -8.66699 60.666 -22.667 129.999 -42c60 -16.667 103.333 -35 130 -55c39.333 -30.667 59 -73.334 59 -128.001c0 -110.667 -68 -171 -204 -181l8 -127c-6.66699 -3.33301 -17.667 -5 -33 -5c-14.667 0 -26 1.66699 -34 5l7 126
c-78 1.33301 -142.667 13.333 -194 36c0 14 0.666992 23.667 2 29c4.66699 14.667 9.66699 23.334 15 26.001c60.667 -18 122.334 -27 185.001 -27c114.667 0 172 38 172 114c0 40.667 -19.667 71.667 -59 93c-19.333 10.667 -62.333 24.667 -129 42
c-60.667 16 -103.667 33.333 -129 52c-39.333 28.667 -59 69.334 -59 122.001c0 51.333 16.667 92.333 50 123c34 31.333 82.667 49.333 146 54z" />
    <glyph glyph-name="percent" unicode="%" horiz-adv-x="753" 
d="M217 -5c-7.33301 -3.33301 -18.001 -5 -32.001 -5c-13.333 0 -23.666 1.66699 -30.999 5l388 702c6 3.33301 16.333 5 31 5c14 0 24.333 -1.66699 31 -5zM46.999 518c0 115.333 44.333 173 133 173s133 -57.667 133 -173s-44.333 -173 -133 -173s-133 57.667 -133 173z
M104.999 518c0 -46.667 6.66797 -80 20.001 -100c11.333 -16.667 29.666 -25 54.999 -25c49.333 0 74 41.667 74 125c0 84 -24.667 126 -74 126c-50 0 -75 -42 -75 -126zM441 163c0 115.333 44.333 173 133 173s133 -57.667 133 -173s-44.333 -173 -133 -173
s-133 57.667 -133 173zM499 163c0 -83.333 25 -125 75 -125c49.333 0 74 41.667 74 125c0 84 -24.667 126 -74 126c-50 0 -75 -42 -75 -126z" />
    <glyph glyph-name="ampersand" unicode="&#x26;" horiz-adv-x="638" 
d="M427 655c25.333 -22.667 38.0029 -51.667 38.0029 -87c0 -47.333 -18 -89.333 -54 -126c-26.667 -27.333 -71.334 -58.333 -134.001 -93c38.667 -70.667 95 -134.667 169 -192c26.667 34 47.667 76.667 63 128c26 2 45.333 -6 58 -24
c-14.667 -46.667 -40.334 -92.334 -77.001 -137.001c37.333 -25.333 77.666 -47 120.999 -65c2 -26.667 -8.33301 -46.667 -31 -60c-50 20.667 -96 45.334 -138 74.001c-52.667 -55.333 -121 -83 -205 -83c-53.333 0 -97 13.667 -131 41c-39.333 30 -59 73.333 -59 130
c0 84.667 49.667 152.667 149 204c-24 54 -36 106 -36 156c0 52 13.333 92.667 40 122c28 31.333 68.333 47 121 47c44.667 0 80 -11.667 106 -35zM225.003 525c0 -41.333 9.66699 -84.333 29 -129c94.667 52.667 142 107.667 142 165c0 51.333 -26.667 77 -80 77
c-60.667 0 -91 -37.667 -91 -113zM399.003 106c-75.333 60 -135.333 130.667 -180 212c-67.333 -40 -101 -89.333 -101 -148c0 -36.667 11.667 -66 35 -88c24 -21.333 55.667 -32 95 -32c52.667 0 103 18.667 151 56z" />
    <glyph glyph-name="quotesingle" unicode="'" horiz-adv-x="202" 
d="M65 715c6.66699 3.33301 18.668 5 36.001 5c16 0 28 -1.66699 36 -5l-13 -197c-4.66699 -2.66699 -12.334 -4 -23.001 -4c-10 0 -17.667 1.33301 -23 4z" />
    <glyph glyph-name="parenleft" unicode="(" horiz-adv-x="290" 
d="M256 781c-84 -120.667 -126.001 -274.333 -126.001 -461s42 -340.334 126 -461.001c-4 -8.66699 -11.667 -16 -23 -22s-21.666 -8.66699 -30.999 -8c-96 139.333 -144 303 -144 491c0 188.667 48 352.334 144 491.001c8.66699 0.666992 18.667 -2 30 -8
c12 -6.66699 20 -14 24 -22z" />
    <glyph glyph-name="parenright" unicode=")" horiz-adv-x="290" 
d="M35 781c4 8 11.667 15.332 23 21.999c11.333 6 21.666 8.66699 30.999 8c95.333 -138.667 143 -302.334 143 -491.001c0 -188 -47.667 -351.667 -143 -491c-9.33301 -0.666992 -19.666 2 -30.999 8s-19 13.333 -23 22c84 120.667 126 274.334 126 461.001
s-42 340.334 -126 461.001z" />
    <glyph glyph-name="asterisk" unicode="*" horiz-adv-x="344" 
d="M151 705c13.333 5.33301 27.333 5.33398 42 0.000976562v-84l81 27c8 -8.66699 12 -22 12 -40l-81 -26l52 -71c-12 -12 -23.667 -20 -35 -24l-51 69l-49 -69c-13.333 4 -25 11.667 -35 23l50 71l-80 27c0 17.333 4.33301 30.666 13 39.999l81 -27v84z" />
    <glyph glyph-name="plus" unicode="+" horiz-adv-x="468" 
d="M61 262c-3.33301 6.66699 -5 16 -5 28s1.66699 21.333 5 28h145v146c6.66699 2.66699 16 4 28 4s21.333 -1.33301 28 -4v-146h146c2.66699 -6.66699 4 -16 4 -28s-1.33301 -21.333 -4 -28h-146v-145c-6.66699 -3.33301 -16 -5 -28 -5s-21.333 1.66699 -28 5v145h-145z
" />
    <glyph glyph-name="comma" unicode="," horiz-adv-x="225" 
d="M63 -93c20.667 22 32.334 52.999 35.001 92.999c-12 0.666992 -20.667 2.33398 -26 5.00098v73c9.33301 3.33301 22.666 5 39.999 5c18 0 31.667 -1.66699 41 -5v-50c0 -62 -20.667 -108.667 -62 -140z" />
    <glyph glyph-name="hyphen" unicode="-" horiz-adv-x="356" 
d="M80 262c-3.33301 6.66699 -5 16 -5 28s1.66699 21.333 5 28h196c3.33301 -6.66699 5 -16 5 -28s-1.66699 -21.333 -5 -28h-196z" />
    <glyph glyph-name="period" unicode="." horiz-adv-x="226" 
d="M154 5c-9.33301 -3.33301 -23 -5 -41 -5c-18.667 0 -32.334 1.66699 -41.001 5v73c8.66699 3.33301 22.334 5 41.001 5c18 0 31.667 -1.66699 41 -5v-73z" />
    <glyph glyph-name="slash" unicode="/" horiz-adv-x="455" 
d="M359 744c8.66699 4 20.667 6 36 6c16.667 0 29 -2 37 -6l-336 -785c-8.66699 -4 -21 -6 -37 -6s-28 2 -36 6z" />
    <glyph glyph-name="zero" unicode="0" horiz-adv-x="619" 
d="M66 340c0 233.333 80.667 350 242 350c163.333 0 245 -116.667 245 -350s-81.667 -350 -245 -350c-161.333 0 -242 116.667 -242 350zM185 564c-28 -45.333 -42 -120.002 -42 -224.002c0 -103.333 14 -177.666 42 -222.999c26 -43.333 67 -65 123 -65
c57.333 0 99 21.667 125 65c27.333 44.667 41 119 41 223c0 104.667 -13.667 179.334 -41 224.001c-26 42.667 -67.667 64 -125 64c-56 0 -97 -21.333 -123 -64z" />
    <glyph glyph-name="one" unicode="1" horiz-adv-x="403" 
d="M238 674c7.33301 4 19.001 5.99902 35.001 5.99902s28 -2 36 -6v-668c-7.33301 -4 -19.666 -6 -36.999 -6c-16 0 -28.333 2 -37 6v438c0 54 1.66699 98.667 5 134c-44.667 -53.333 -105.334 -89.666 -182.001 -108.999c-16.667 16.667 -22.334 37 -17.001 61
c83.333 22 149 70 197 144z" />
    <glyph glyph-name="two" unicode="2" horiz-adv-x="530" 
d="M79 654c50 24 111.332 36 183.999 36c62 0 111 -13.333 147 -40c40.667 -30.667 61 -76.334 61 -137.001c0 -54.667 -17 -100 -51 -136c-22 -23.333 -68.667 -56.666 -140 -99.999c-58.667 -36 -93 -58.333 -103 -67c-36 -32 -54 -70 -54 -114
c0 -6.66699 0.333008 -13.334 1 -20.001l1 -10h330c4 -8 6 -19 6 -33c0 -12.667 -2 -23.667 -6 -33h-396c-4 21.333 -6 43.666 -6 66.999c0 68 20.667 124 62 168c18 18.667 61.667 50.334 131 95.001c56.667 37.333 93 64 109 80c26.667 28 40 61.667 40 101
c0 78.667 -48 118 -144 118c-53.333 0 -103.666 -9.33301 -150.999 -28c-16.667 12.667 -23.667 30.334 -21 53.001z" />
    <glyph glyph-name="three" unicode="3" horiz-adv-x="519" 
d="M221 -10c-70 0 -126.332 11.333 -168.999 34c-1.33301 22 5 40 19 54c45.333 -16 93.666 -24 144.999 -24c112 0 168 44.333 168 133c0 92.667 -54 139 -162 139h-62c-8.66699 20 -8.66699 40 0 60h62c94.667 0 142 41 142 123c0 80 -48 120 -144 120
c-52 0 -97 -8 -135 -24c-18.667 12 -26.667 29.333 -24 52c44 22 99.333 33 166 33c67.333 0 119.333 -15.333 156 -46c36 -30 54 -71.667 54 -125c0 -83.333 -33 -137.333 -99 -162c80 -25.333 120 -85.333 120 -180c0 -124.667 -79 -187 -237 -187z" />
    <glyph glyph-name="four" unicode="4" horiz-adv-x="576" 
d="M363 674c8 4 20.668 6 38.001 6c16 0 27.667 -2 35 -6v-438h96c4 -6.66699 6 -16.667 6 -30s-2 -23 -6 -29h-96v-171c-8.66699 -4 -20.334 -6 -35.001 -6c-15.333 0 -27 2 -35 6v171h-326c-4 6 -6 15.667 -6 29s2 23.333 6 30zM116.001 236h250v340z" />
    <glyph glyph-name="five" unicode="5" horiz-adv-x="520" 
d="M164 389c16.667 3.33301 39.667 5.00098 69 5.00098c154 0 231 -67.667 231 -203c0 -134 -83.667 -201 -251 -201c-74 0 -127.333 10 -160 30c-2 22 4.33301 40 19 54c37.333 -14 81.666 -21 132.999 -21c122 0 183 46 183 138c0 47.333 -12.667 82 -38 104
c-28 24.667 -75.333 37 -142 37c8.66699 0 -29.666 -2.66699 -114.999 -8v356h342c7.33301 -22.667 7.33301 -44.334 0 -65.001h-271v-226z" />
    <glyph glyph-name="six" unicode="6" horiz-adv-x="551" 
d="M430 621c-158.667 -16.667 -252 -96.999 -280 -240.999c51.333 24 100 36 146 36c61.333 0 109.666 -16.333 144.999 -49c40 -36.667 60 -91.334 60 -164.001c0 -69.333 -20 -122.666 -60 -159.999c-38.667 -35.333 -91.667 -53 -159 -53s-119.666 21 -156.999 63
c-40.667 46 -61 114 -61 204c0 266.667 122 407.667 366 423c8.66699 -18.667 8.66699 -38.334 0 -59.001zM286 357.001c-44 0 -92.332 -14.333 -144.999 -43c-2 -18.667 -3 -39 -3 -61c0 -136.667 48 -205 144 -205c43.333 0 77.666 12.667 102.999 38
c26.667 27.333 40 66.333 40 117c0 102.667 -46.333 154 -139 154z" />
    <glyph glyph-name="seven" unicode="7" horiz-adv-x="494" 
d="M451 680c3.33301 -11.333 4.99902 -25.001 4.99902 -41.001c-1.33301 -73.333 -44 -168 -128 -284c-82.667 -114.667 -124 -231.667 -124 -351c-18.667 -2.66699 -30 -4 -34 -4c-3.33301 0 -15.666 1.33301 -36.999 4c0 129.333 38.333 249 115 359
c83.333 118.667 128 202.334 134 251.001h-341c-4 8 -6 19 -6 33c0 14.667 2 25.667 6 33h410z" />
    <glyph glyph-name="eight" unicode="8" horiz-adv-x="582" 
d="M121 38c-39.333 30.667 -59 72.665 -59 125.998c0 80.667 45 146.334 135 197.001c-75.333 40.667 -113 95.334 -113 164.001c0 50.667 18.333 90.667 55 120c36.667 30 86.667 45 150 45c62.667 0 112 -14.333 148 -43c36.667 -28.667 55 -68 55 -118
c0 -73.333 -36 -132 -108 -176c91.333 -44.667 137 -105.667 137 -183c0 -56 -20 -100 -60 -132c-41.333 -32 -99.333 -48 -174 -48c-70.667 0 -126 16 -166 48zM191 604.998c-24 -18.667 -36 -43.667 -36 -75c0 -38 18.667 -70 56 -96c18 -12 58.667 -31.333 122 -58
c60.667 41.333 91 90.333 91 147c0 34.667 -12 61.667 -36 81s-57 29 -99 29c-41.333 0 -74 -9.33301 -98 -28zM406 81.998c27.333 21.333 41 49.667 41 85c0 42.667 -21.333 78 -64 106c-14.667 9.33301 -60 30.333 -136 63c-76 -45.333 -114 -101.333 -114 -168
c0 -36 13 -64.333 39 -85c28 -22.667 67.667 -34 119 -34c48.667 0 87 11 115 33z" />
    <glyph glyph-name="nine" unicode="9" horiz-adv-x="551" 
d="M120 59c157.333 16 250.33 96.332 278.997 240.999c-49.333 -24 -97.666 -36 -144.999 -36c-61.333 0 -109.666 16.333 -144.999 49c-39.333 36.667 -59 91.334 -59 164.001c0 69.333 20 122.666 60 159.999c38.667 35.333 91.334 53 158.001 53
c68 0 120.667 -21 158 -63c40.667 -46 61 -114 61 -204c0 -266.667 -122.333 -407.667 -367 -423c-8 20.667 -8 40.334 0 59.001zM263.997 322.999c47.333 0 95.666 14.334 144.999 43.001c2 19.333 3 39.666 3 60.999c0 136.667 -48 205 -144 205
c-43.333 0 -77.666 -12.667 -102.999 -38c-26.667 -27.333 -40 -66.333 -40 -117c0 -102.667 46.333 -154 139 -154z" />
    <glyph glyph-name="colon" unicode=":" horiz-adv-x="232" 
d="M157 400c-9.33301 -3.33301 -23 -5 -41 -5c-18.667 0 -32.334 1.66699 -41.001 5v73c8.66699 3.33301 22.334 5 41.001 5c18 0 31.667 -1.66699 41 -5v-73zM157 5c-9.33301 -3.33301 -23 -5 -41 -5c-18.667 0 -32.334 1.66699 -41.001 5v73
c8.66699 3.33301 22.334 5 41.001 5c18 0 31.667 -1.66699 41 -5v-73z" />
    <glyph glyph-name="semicolon" unicode=";" horiz-adv-x="243" 
d="M164 400c-9.33301 -3.33301 -23 -5 -41 -5c-18.667 0 -32.334 1.66699 -41.001 5v73c8.66699 3.33301 22.334 5 41.001 5c18 0 31.667 -1.66699 41 -5v-73zM74 -93c20.667 22 32.332 52.999 34.999 92.999c-12 0.666992 -21 2.33398 -27 5.00098v73
c8.66699 3.33301 22.334 5 41.001 5c18 0 31.667 -1.66699 41 -5v-50c0 -62 -20.667 -108.667 -62 -140z" />
    <glyph glyph-name="less" unicode="&#x3c;" horiz-adv-x="459" 
d="M58 257c-3.33301 9.33301 -5 20.333 -5 33c0 13.333 1.66699 24 5 32l320 145c3.33301 -5.33301 5 -14.666 5 -27.999s-1.66699 -23.333 -5 -30l-261 -120l261 -118c3.33301 -6.66699 5 -16.667 5 -30c0 -12.667 -1.66699 -22.334 -5 -29.001z" />
    <glyph glyph-name="equal" unicode="=" horiz-adv-x="512" 
d="M87 349c-5.33301 20 -5.33301 38.667 0 56h346c5.33301 -18 5.33301 -36.667 0 -56h-346zM87 174c-5.33301 20.667 -5.33301 39.667 0 57h346c5.33301 -18.667 5.33301 -37.667 0 -57h-346z" />
    <glyph glyph-name="greater" unicode="&#x3e;" horiz-adv-x="458" 
d="M81 112c-3.33301 6.66699 -5 16.334 -5 29.001c0 13.333 1.66699 23.333 5 30l261 118l-261 120c-3.33301 6.66699 -5 16.667 -5 30s1.66699 22.666 5 27.999l320 -145c3.33301 -8 5 -18.667 5 -32c0 -12.667 -1.66699 -23.667 -5 -33z" />
    <glyph glyph-name="question" unicode="?" horiz-adv-x="433" 
d="M297 345c-61.333 -52.667 -92.002 -108.332 -92.002 -166.999c-5.33301 -5.33301 -14.666 -8 -27.999 -8c-12 0 -21.667 2.66699 -29 8c0 78.667 27.667 143 83 193c30 27.333 49 46.666 57 57.999c17.333 25.333 26 55.666 26 90.999c0 72 -42.333 108 -127 108
c-51.333 0 -92.666 -8 -123.999 -24c-17.333 12.667 -25 30.334 -23 53.001c40 22 92.333 33 157 33c60.667 0 108 -14.667 142 -44c33.333 -29.333 50 -70 50 -122c0 -67.333 -30.667 -127 -92 -179zM217.998 5.00195c-9.33301 -3.33301 -23 -5 -41 -5
c-18.667 0 -32.334 1.66699 -41.001 5v73c8.66699 3.33301 22.334 5 41.001 5c18 0 31.667 -1.66699 41 -5v-73z" />
    <glyph glyph-name="at" unicode="@" horiz-adv-x="914" 
d="M805 143c-30.667 -38.667 -73.333 -57.999 -128 -57.999c-60 0 -97.667 22.333 -113 67c-24.667 -44.667 -67.667 -67 -129 -67c-105.333 0 -158 64.333 -158 193c0 129.333 52.667 194 158 194c53.333 0 93 -17.333 119 -52v48c6.66699 4 17 6 31 6s24.333 -2 31 -6
v-248c0 -56.667 21 -85 63 -85c32 0 58 13.333 78 40c22 29.333 33 72 33 128c0 100 -28.667 179.333 -86 238c-58 60 -138 90 -240 90c-101.333 0 -182.666 -31.333 -243.999 -94c-62.667 -64 -94 -150 -94 -258c0 -114 33.333 -201.333 100 -262
c60 -54 137.333 -81 232 -81c96 0 186.333 26.667 271 80c15.333 -6.66699 23.666 -19.334 24.999 -38.001c-88.667 -62.667 -190.667 -94 -306 -94c-109.333 0 -199.333 32.333 -270 97c-78 72 -117 171.333 -117 298c0 122 38.333 220 115 294c74 71.333 170 107 288 107
c120.667 0 215.667 -34.667 285 -104c67.333 -68 101 -159 101 -273c0 -68.667 -15 -122 -45 -160zM455.001 133.001c29.333 0 53.001 9.66602 71.001 28.999c17.333 18 26.666 40.333 27.999 67v97c-0.666992 26.667 -9.66699 49.334 -27 68.001c-18 20 -42 30 -72 30
c-34.667 0 -60.667 -9.33301 -78 -28c-21.333 -22.667 -32 -62 -32 -118c0 -96.667 36.667 -145 110 -145z" />
    <glyph glyph-name="A" unicode="A" horiz-adv-x="648" 
d="M283 714c10.667 4 24.334 6 41.001 6c17.333 0 31 -2 41 -6l265 -708c-8.66699 -4 -22.334 -6 -41.001 -6c-16 0 -28 2 -36 6l-72 191h-319l-73 -191c-8 -4 -20 -6 -36 -6s-27.667 2 -35 6zM320 634c-4 -20 -10.667 -43 -20 -69l-116 -306h275l-116 306
c-9.33301 26.667 -16 49.667 -20 69h-3z" />
    <glyph glyph-name="B" unicode="B" horiz-adv-x="627" 
d="M350 720c65.333 0 114.667 -18.999 148 -56.999c30.667 -34 46 -79.333 46 -136c0 -71.333 -28.667 -124.333 -86 -159c72.667 -34.667 109 -91.334 109 -170.001c0 -61.333 -17.667 -109.333 -53 -144c-36.667 -36 -90 -54 -160 -54h-258v720h254zM334.001 393.001
c89.333 0 134 44.667 134 134c0 88.667 -45 133 -135 133h-163v-267h164zM341.001 60.001c99.333 0 149 45.667 149 137c0 92 -49.667 138 -149 138h-171v-275h171z" />
    <glyph glyph-name="C" unicode="C" horiz-adv-x="560" 
d="M345 730c72.667 0 128.667 -11 168 -33c0.666992 -21.333 -7 -40 -23 -56c-38 16.667 -83.667 25 -137 25c-68 0 -118.667 -21.333 -152 -64c-38.667 -49.333 -58 -130.333 -58 -243s19.333 -193 58 -241c33.333 -41.333 84 -62 152 -62c58.667 0 108 8.33301 148 25
c14 -14 21.667 -33 23 -57c-41.333 -22.667 -101 -34 -179 -34c-186.667 0 -280 123.333 -280 370s93.333 370 280 370z" />
    <glyph glyph-name="D" unicode="D" horiz-adv-x="661" 
d="M305 720c98 0 170 -25.999 216 -77.999c50 -57.333 75 -151.333 75 -282s-25 -224.334 -75 -281.001c-46 -52.667 -118 -79 -216 -79h-209v720h209zM299 63.001c74 0 127.333 19.668 160 59.001c38.667 45.333 58 124.666 58 237.999c0 114 -19.333 193.667 -58 239
c-32.667 38.667 -86 58 -160 58h-129v-594h129z" />
    <glyph glyph-name="E" unicode="E" horiz-adv-x="555" 
d="M493 720c4 -8.66699 6 -18.666 6 -29.999c0 -12 -2 -22.667 -6 -32h-323v-263h273c4 -8.66699 6 -18.334 6 -29.001c0 -11.333 -2 -22 -6 -32h-273v-272h333c4 -8.66699 6 -18.667 6 -30s-2 -22 -6 -32h-407v720h397z" />
    <glyph glyph-name="F" unicode="F" horiz-adv-x="532" 
d="M170 6c-8 -4 -20.333 -6.00098 -37 -6.00098s-29 2 -37 6v714h393c4 -14 6 -24.333 6 -31c0 -11.333 -2 -21.666 -6 -30.999h-319v-273h279c4 -8 6 -18 6 -30s-2 -22.667 -6 -32h-279v-317z" />
    <glyph glyph-name="G" unicode="G" horiz-adv-x="624" 
d="M140 637c49.333 62 121.665 93 216.998 93c78 0 139.667 -11 185 -33c-1.33301 -23.333 -9 -41.666 -23 -54.999c-46 16 -97 24 -153 24c-149.333 0 -224 -102.333 -224 -307c0 -202.667 74.667 -304 224 -304c40.667 0 79.334 4.33301 116.001 13v259h-164
c-4 8 -6 18.333 -6 31c0 14 2 24.333 6 31h235v-366c-49.333 -22 -114.666 -33 -195.999 -33c-195.333 0 -293 123.333 -293 370c0 121.333 25.333 213.666 76 276.999z" />
    <glyph glyph-name="H" unicode="H" 
d="M508 714c8.66699 4 21 6 37 6s28.333 -2 37 -6v-708c-8 -4 -20.333 -6 -37 -6c-18 0 -30.333 2 -37 6v330h-338v-330c-8.66699 -4 -21 -6 -37 -6c-18 0 -30.333 2 -37 6v708c8.66699 4 21 6 37 6s28.333 -2 37 -6v-312h338v312z" />
    <glyph glyph-name="I" unicode="I" horiz-adv-x="266" 
d="M96 714c8 4 20.332 6 36.999 6s29 -2 37 -6v-708c-8.66699 -4 -21 -6 -37 -6c-17.333 0 -29.666 2 -36.999 6v708z" />
    <glyph glyph-name="J" unicode="J" horiz-adv-x="432" 
d="M269 714c6.66699 4 18.999 6 36.999 6c16.667 0 29 -2 37 -6v-538c0 -124 -58.667 -186 -176 -186c-52 0 -99 10 -141 30c-1.33301 23.333 5.33398 42.333 20.001 57c34 -14 70 -21 108 -21c76.667 0 115 39.333 115 118v540z" />
    <glyph glyph-name="K" unicode="K" horiz-adv-x="613" 
d="M488 714c10.667 4 23.3301 6 37.9971 6c16 0 29.333 -2 40 -6l-232 -332l261 -376c-9.33301 -4 -23.666 -6 -42.999 -6c-18 0 -32.667 2 -44 6l-235 337h-103v-337c-7.33301 -4 -19.666 -6 -36.999 -6c-16 0 -28.333 2 -37 6v708c8.66699 4 21.334 6 38.001 6
c16 0 28 -2 36 -6v-309h102z" />
    <glyph glyph-name="L" unicode="L" horiz-adv-x="512" 
d="M96 714c8.66699 4 21 6 37 6c16.667 0 29 -2 37 -6v-649h313c3.33301 -11.333 5 -22 5 -32c0 -8.66699 -1.66699 -19.667 -5 -33h-387v714z" />
    <glyph glyph-name="M" unicode="M" horiz-adv-x="837" 
d="M693 720c20 0 36.334 -2 49.001 -6v-708c-8.66699 -4 -21 -6 -37 -6s-28.333 2 -37 6v424c0 104 1.66699 170.667 5 200h-3c-8.66699 -28 -31.334 -77 -68.001 -147l-167 -296c-6.66699 -2.66699 -15 -4 -25 -4c-9.33301 0 -17 1.33301 -23 4l-160 294
c-38 70.667 -61 120.334 -69 149.001h-3c5.33301 -26 8 -91 8 -195v-429c-7.33301 -4 -18.666 -6 -33.999 -6c-14.667 0 -26 2 -34 6v708c11.333 4 26.333 6 45 6c16 0 31 -2 45 -6l174 -318c27.333 -52.667 44.666 -90.334 51.999 -113.001h4c4 15.333 15.333 40 34 74
l196 357c14.667 4 30.667 6 48 6z" />
    <glyph glyph-name="N" unicode="N" horiz-adv-x="696" 
d="M217 515c-24 40 -42.002 76.667 -54.002 110h-3c3.33301 -36 5 -86.667 5 -152v-467c-7.33301 -4 -19 -6 -35 -6c-15.333 0 -26.666 2 -33.999 6v708c10.667 4 25.334 6 44.001 6c20 0 34.667 -2 44 -6l293 -503c22.667 -38.667 41.667 -77.334 57 -116.001h3
c-4 42.667 -6 92.334 -6 149.001v470c7.33301 4 19.333 6 36 6c16 0 27 -2 33 -6v-708c-8.66699 -4 -22.667 -6 -42 -6c-20 0 -35 2 -45 6z" />
    <glyph glyph-name="O" unicode="O" 
d="M339 730c183.333 0 275 -123.333 275 -370s-91.667 -370 -275 -370s-275 123.333 -275 370s91.667 370 275 370zM339 668c-131.333 0 -197 -102.667 -197 -308s65.667 -308 197 -308s197 102.667 197 308s-65.667 308 -197 308z" />
    <glyph glyph-name="P" unicode="P" horiz-adv-x="602" 
d="M170 6c-8 -4 -20 -5.99902 -36 -5.99902c-18 0 -30.667 2 -38 6v714h253c63.333 0 114 -19.667 152 -59c36.667 -38.667 55 -90.334 55 -155.001c0 -64 -18.333 -115.667 -55 -155c-38 -39.333 -88.667 -59 -152 -59h-179v-286zM342 356.001c43.333 0 77 13.333 101 40
c23.333 26 35 62.333 35 109c0 48 -11.667 85.333 -35 112c-24 26.667 -57.667 40 -101 40h-172v-301h172z" />
    <glyph glyph-name="Q" unicode="Q" 
d="M339 730c183.333 0 275 -123.333 275 -370c0 -148 -33.667 -251.667 -101 -311c37.333 -34.667 81 -57 131 -67c-3.33301 -30 -17.333 -51 -42 -63c-56.667 17.333 -103 50 -139 98c-34 -18 -75.333 -27 -124 -27c-183.333 0 -275 123.333 -275 370s91.667 370 275 370z
M339 668c-131.333 0 -197 -102.667 -197 -308s65.667 -308 197 -308s197 102.667 197 308s-65.667 308 -197 308z" />
    <glyph glyph-name="R" unicode="R" horiz-adv-x="621" 
d="M344 720c63.333 0 113.999 -18.666 151.999 -55.999c36.667 -37.333 55 -87 55 -149c0 -50.667 -12.667 -93.334 -38 -128.001c-25.333 -35.333 -60.666 -58.333 -105.999 -69l173 -312c-10 -4 -24.333 -6 -43 -6s-33 2 -43 6l-168 304h-156v-304c-8 -4 -20 -6 -36 -6
c-18 0 -30.667 2 -38 6v714h248zM169.999 373.001l167 -0.000976562c42.667 0 76 12.333 100 37c24 25.333 36 60.333 36 105s-12 79.334 -36 104.001c-24 25.333 -57.333 38 -100 38h-167v-284z" />
    <glyph glyph-name="S" unicode="S" horiz-adv-x="564" 
d="M120 676c41.333 36 100.332 53.999 176.999 53.999s139.667 -9 189 -27c0 -23.333 -6.66699 -42.666 -20 -57.999c-48 14 -101 21 -159 21c-115.333 0 -173 -43.667 -173 -131c0 -40.667 18.333 -71.667 55 -93c19.333 -12 62.333 -27.667 129 -47
c62.667 -19.333 107.334 -40 134.001 -62c40.667 -33.333 61 -80.333 61 -141c0 -64 -21 -113.667 -63 -149c-42.667 -35.333 -103 -53 -181 -53c-84.667 0 -154.334 13.333 -209.001 40c0 22.667 6.33301 42.334 19 59.001c60.667 -20.667 122.334 -31 185.001 -31
c115.333 0 173 44.333 173 133c0 39.333 -14.667 70 -44 92c-20.667 15.333 -55.334 30 -104.001 44c-79.333 24.667 -130.666 44.667 -153.999 60c-50 32.667 -75 80.667 -75 144c0 61.333 20 109.666 60 144.999z" />
    <glyph glyph-name="T" unicode="T" horiz-adv-x="539" 
d="M504 720c4 -8 5.99902 -18.668 5.99902 -32.001c0 -12.667 -2 -23.667 -6 -33h-195v-649c-8.66699 -4 -21 -6 -37 -6c-17.333 0 -29.666 2 -36.999 6v649h-200c-4 8.66699 -6 19.667 -6 33c0 12.667 2 23.334 6 32.001h469z" />
    <glyph glyph-name="U" unicode="U" horiz-adv-x="668" 
d="M578 235c0 -77.333 -22.333 -137.667 -67 -181c-44 -42.667 -103 -64 -177 -64s-133 21.333 -177 64c-44 44 -66 104.333 -66 181v479c8.66699 4 21 6 37 6c16.667 0 29 -2 37 -6v-490c0 -54 15 -96 45 -126s72 -45 126 -45c53.333 0 95 15 125 45
c29.333 30 44 72 44 126v490c8 4 20 6 36 6s28.333 -2 37 -6v-479z" />
    <glyph glyph-name="V" unicode="V" horiz-adv-x="627" 
d="M288 181c12 -35.333 20.3311 -66.333 24.998 -93h3c4.66699 26.667 13.334 57.667 26.001 93l189 533c6.66699 4 18.334 6 35.001 6s29.334 -2 38.001 -6l-250 -709c-10.667 -3.33301 -24 -5 -40 -5c-16.667 0 -30.334 1.66699 -41.001 5l-249 708
c8 4.66699 21.333 7 40 7c16 0 27.667 -2 35 -6z" />
    <glyph glyph-name="W" unicode="W" horiz-adv-x="957" 
d="M505 512c-13.333 52.667 -20.666 93.0029 -21.999 121.003h-3c-2 -28 -9.33301 -68.333 -22 -121l-140 -506c-12 -4 -26.667 -6 -44 -6c-16.667 0 -30.334 2 -41.001 6l-205 708c8 4 20.333 6 37 6c17.333 0 30 -2 38 -6l149 -511c11.333 -40.667 20 -79.334 26 -116.001
h3c4 36 11.333 74.333 22 115l143 512c7.33301 4 19.666 6 36.999 6c18 0 30.667 -2 38 -6l142 -511c10.667 -42.667 17.667 -81.334 21 -116.001h3c4 33.333 12.333 71.666 25 114.999l145 512c8 4 19.333 6 34 6s26.334 -2 35.001 -6l-200 -708c-10 -4 -23.333 -6 -40 -6
c-16 0 -30 2 -42 6z" />
    <glyph glyph-name="X" unicode="X" horiz-adv-x="611" 
d="M492 714c10.667 4 23.998 6 39.998 6c16.667 0 30.334 -2 41.001 -6l-220 -339l233 -368c-10 -4.66699 -24.333 -7 -43 -7s-33 2 -43 6l-198 312l-197 -313c-11.333 -3.33301 -24.333 -5 -39 -5c-13.333 0 -27.666 1.66699 -42.999 5l232 367l-216 342
c10 4 24.667 6 44 6c17.333 0 31.333 -2 42 -6l182 -286z" />
    <glyph glyph-name="Y" unicode="Y" horiz-adv-x="628" 
d="M528 714c8 4 21 6 39 6c17.333 0 31.333 -2 42 -6l-259 -411v-297c-8 -4 -20 -6 -36 -6c-17.333 0 -30 2 -38 6v295l-252 413c10 4 25 6 45 6c18.667 0 32.667 -2 42 -6l206 -335z" />
    <glyph glyph-name="Z" unicode="Z" horiz-adv-x="585" 
d="M523 720c4 -8 6 -18.667 6 -32s-2 -24.666 -6 -33.999l-396 -588h409c3.33301 -10 5 -20.667 5 -32c0 -14 -1.66699 -25.333 -5 -34h-492c-3.33301 13.333 -5 24.666 -5 33.999c0 10 1.66699 20.667 5 32l394 588h-366c-3.33301 13.333 -5 25 -5 35
c0 10.667 1.66699 21 5 31h451z" />
    <glyph glyph-name="bracketleft" unicode="[" horiz-adv-x="324" 
d="M282 810c2.66699 -6.66699 4 -16.666 4 -29.999s-1.33301 -23 -4 -29h-116v-862h116c2.66699 -6.66699 4 -16.334 4 -29.001c0 -14 -1.33301 -24 -4 -30h-185v980h185z" />
    <glyph glyph-name="backslash" unicode="\" horiz-adv-x="457" 
d="M434 -41c-8 -4 -20.6689 -6 -38.002 -6c-16 0 -28.333 2 -37 6l-336 785c8.66699 4 21.334 6 38.001 6s29.334 -2 38.001 -6z" />
    <glyph glyph-name="bracketright" unicode="]" horiz-adv-x="324" 
d="M43 -170c-3.33301 6 -5 15.999 -5 29.999c0 12.667 1.66699 22.334 5 29.001h115v862h-115c-3.33301 6 -5 15.667 -5 29s1.66699 23.333 5 30h184v-980h-184z" />
    <glyph glyph-name="asciicircum" unicode="^" horiz-adv-x="518" 
d="M465 457c-6 -3.33301 -16.002 -5 -30.002 -5s-25.333 1.66699 -34 5l-143 212l-142 -212c-8 -3.33301 -19 -5 -33 -5s-24 1.66699 -30 5l174 258c6.66699 3.33301 17.334 5 32.001 5s25.334 -1.66699 32.001 -5z" />
    <glyph glyph-name="underscore" unicode="_" horiz-adv-x="549" 
d="M66 -71c-3.33301 4.66699 -5 13.334 -5 26.001c0 12 1.66699 20.333 5 25h417c2.66699 -4.66699 4 -13 4 -25c0 -12.667 -1.33301 -21.334 -4 -26.001h-417z" />
    <glyph glyph-name="grave" unicode="`" horiz-adv-x="238" 
d="M38 779c14 22 35.333 31.667 64 29l104 -144c-8.66699 -14 -23 -22 -43 -24z" />
    <glyph glyph-name="a" unicode="a" horiz-adv-x="515" 
d="M257 536c68.667 0 116.666 -16.999 143.999 -50.999c24.667 -30.667 37 -81 37 -151v-329c-6 -3.33301 -15.667 -5 -29 -5c-12 0 -21.667 1.66699 -29 5l-11 75c-28.667 -60 -84.667 -90 -168 -90c-47.333 0 -84.666 13.667 -111.999 41c-28.667 28 -43 67.667 -43 119
c0 104 63 156 189 156c42.667 0 86.334 -2.66699 131.001 -8v54c0 81.333 -39.333 122 -118 122c-50 0 -96.667 -8.33301 -140 -25c-6.66699 3.33301 -12.334 10.666 -17.001 21.999c-3.33301 8.66699 -5 19 -5 31c50.667 22.667 107.667 34 171 34zM365.999 246.001
c-61.333 5.33301 -101.667 8 -121 8c-82.667 0 -124 -34.667 -124 -104c0 -68 34.333 -102 103 -102c43.333 0 78 15 104 45c25.333 29.333 38 67 38 113v40z" />
    <glyph glyph-name="b" unicode="b" horiz-adv-x="555" 
d="M152 458c30.667 52 82 78 154 78c128 0 192 -91 192 -273s-64 -273 -192 -273c-72 0 -123.333 26 -154 78v-63c-7.33301 -3.33301 -19.333 -5 -36 -5s-28.667 1.66699 -36 5v740c7.33301 3.33301 19.333 5 36 5s28.667 -1.66699 36 -5v-287zM389 428
c-21.333 31.333 -57 47 -107 47c-40 0 -72 -15 -96 -45c-22 -27.333 -33.333 -61 -34 -101v-129c0 -40 11 -74 33 -102c24.667 -31.333 57 -47 97 -47c50 0 85.667 15.667 107 47c22.667 32.667 34 87.667 34 165s-11.333 132.333 -34 165z" />
    <glyph glyph-name="c" unicode="c" horiz-adv-x="446" 
d="M131 263c0 -139.333 52.333 -209 157 -209c38.667 0 71 6.33301 97 19c14 -11.333 21.667 -29 23 -53c-30.667 -20 -76.334 -30 -137.001 -30c-143.333 0 -215 91 -215 273s71.667 273 215 273c58 0 100 -8 126 -24c0 -23.333 -7.33301 -41.333 -22 -54
c-23.333 11.333 -53.666 17 -90.999 17c-102 0 -153 -70.667 -153 -212z" />
    <glyph glyph-name="d" unicode="d" horiz-adv-x="555" 
d="M403 745c7.33301 3.33301 19.334 5 36.001 5s28.667 -1.66699 36 -5v-740c-8 -3.33301 -18 -5 -30 -5c-12.667 0 -23.334 1.66699 -32.001 5l-7 67c-32 -54.667 -84.333 -82 -157 -82c-128 0 -192 91 -192 273s64 273 192 273c70.667 0 122 -26 154 -78v287zM403.001 328
c-0.666992 39.333 -12 73 -34 101c-24 30.667 -56 46 -96 46c-49.333 0 -85 -15.667 -107 -47c-22.667 -32.667 -34 -87.667 -34 -165s11.333 -132.333 34 -165c22 -31.333 57.667 -47 107 -47c40 0 72.333 15.667 97 47c22 28 33 62 33 102v128z" />
    <glyph glyph-name="e" unicode="e" horiz-adv-x="512" 
d="M131 240c3.33301 -66.667 17.998 -114.667 43.998 -144c24 -28 61 -42 111 -42c50.667 0 91.334 11 122.001 33c16 -12.667 24.667 -30.334 26 -53.001c-36.667 -29.333 -90.667 -44 -162 -44c-144 0 -216 92 -216 276c0 91.333 20 160 60 206
c36.667 42.667 88.334 64 155.001 64c60 0 106.333 -17 139 -51s49 -81.333 49 -142c0 -41.333 -3.66699 -75.666 -11 -102.999h-317zM270.998 477c-88 0 -134.667 -61 -140 -183h254c2 14 3 33 3 57c0 84 -39 126 -117 126z" />
    <glyph glyph-name="f" unicode="f" horiz-adv-x="346" 
d="M104 586c0 109.333 52.668 164.001 158.001 164.001c40 0 74 -5.66699 102 -17c0 -22 -6.33301 -39.667 -19 -53c-20.667 7.33301 -46.334 11 -77.001 11c-35.333 0 -60 -8.66699 -74 -26c-12 -14.667 -18 -39.334 -18 -74.001v-65h141c3.33301 -11.333 5 -21 5 -29
c0 -6.66699 -1.66699 -16 -5 -28h-141v-464c-7.33301 -3.33301 -19.333 -5 -36 -5s-28.667 1.66699 -36 5v464h-68c-2.66699 9.33301 -4 19 -4 29c0 10.667 1.33301 20 4 28h68v60z" />
    <glyph glyph-name="g" unicode="g" horiz-adv-x="525" 
d="M492 535c8 -20 8.00098 -40.333 0.000976562 -61l-90 -2c23.333 -28.667 35 -66 35 -112c0 -55.333 -16 -98 -48 -128c-33.333 -31.333 -80.333 -47 -141 -47c-22.667 0 -40.334 1.66699 -53.001 5c-18.667 -24.667 -27.667 -49.334 -27 -74.001
c1.33301 -22 19 -37.333 53 -46l111 -16c49.333 -7.33301 86 -19 110 -35c32.667 -22.667 49 -56.667 49 -102c0 -48.667 -21.333 -88 -64 -118c-45.333 -32.667 -107.333 -49 -186 -49c-68.667 0 -120.667 13.667 -156 41c-32.667 24.667 -49 58.334 -49 101.001
c0 58.667 29.333 106.667 88 144c-15.333 15.333 -23 34.666 -23 57.999c0 34.667 15.667 71.334 47 110.001c-59.333 27.333 -89 79.333 -89 156c0 54.667 16.333 97.667 49 129c33.333 31.333 80 47 140 47c41.333 0 77.333 -8 108 -24zM248.001 483
c-78.667 0 -118 -40.667 -118 -122c0 -82 39.333 -123 118 -123s118 41 118 123c0 81.333 -39.333 122 -118 122zM329.001 -12c-9.33301 2 -37.001 5.66895 -83.001 11.002c-34 4 -60 9 -78 15c-40 -28 -60 -64 -60 -108c0 -68 45 -102 135 -102
c54.667 0 98.334 9.66699 131.001 29c31.333 19.333 47 44.666 47 75.999c0 41.333 -30.667 67.666 -92 78.999z" />
    <glyph glyph-name="h" unicode="h" horiz-adv-x="549" 
d="M472 5c-8.66699 -3.33301 -20.666 -5 -35.999 -5c-16.667 0 -28.667 1.66699 -36 5v367c0 69.333 -36 104 -108 104c-61.333 0 -108 -30.333 -140 -91v-380c-8 -3.33301 -20 -5 -36 -5c-16.667 0 -28.667 1.66699 -36 5v740c7.33301 3.33301 19.333 5 36 5
c16 0 28 -1.66699 36 -5v-287c41.333 52 96.666 78 165.999 78c48.667 0 86.667 -13.667 114 -41c26.667 -26.667 40 -63 40 -109v-381z" />
    <glyph glyph-name="i" unicode="i" horiz-adv-x="238" 
d="M160 640c-9.33301 -3.33301 -23 -5 -41 -5c-18.667 0 -32.334 1.66699 -41.001 5v73c8.66699 3.33301 22.334 5 41.001 5c18 0 31.667 -1.66699 41 -5v-73zM155 5c-8 -3.33301 -20 -5 -36 -5c-17.333 0 -29.333 1.66699 -36 5v516c6.66699 3.33301 18.667 5 36 5
c16 0 28 -1.66699 36 -5v-516z" />
    <glyph glyph-name="j" unicode="j" horiz-adv-x="238" 
d="M159 642c-9.33301 -4 -22.666 -6 -39.999 -6c-18.667 0 -32.334 2 -41.001 6v73c8.66699 3.33301 22.334 5 41.001 5c17.333 0 30.666 -1.66699 39.999 -5v-73zM83 521c6.66699 3.33301 18.667 4.99902 36 4.99902c16 0 28 -1.66699 36 -5v-609
c0 -108 -46.667 -162 -140 -162c-28 0 -48.667 3 -62 9c-2 4.66699 -3 10.334 -3 17.001c0 16.667 2.66699 29 8 37c10.667 -2.66699 24 -4 40 -4c56.667 0 85 33 85 99v613z" />
    <glyph glyph-name="k" unicode="k" horiz-adv-x="498" 
d="M384 521c9.33301 3.33301 22.335 5 39.002 5c14.667 0 26.334 -1.66699 35.001 -5l-162 -241l186 -274c-10.667 -4 -24.334 -6 -41.001 -6c-17.333 0 -31 2 -41 6l-164 240h-84v-241c-8.66699 -3.33301 -20.334 -5 -35.001 -5c-16 0 -28.333 1.66699 -37 5v741
c9.33301 2.66699 21.666 4 36.999 4c14 0 25.667 -1.33301 35 -4v-443h85z" />
    <glyph glyph-name="l" unicode="l" horiz-adv-x="242" 
d="M157 5c-8 -3.33301 -20 -5 -36 -5c-17.333 0 -29.333 1.66699 -36 5v740c6.66699 3.33301 18.667 5 36 5c16 0 28 -1.66699 36 -5v-740z" />
    <glyph glyph-name="m" unicode="m" horiz-adv-x="834" 
d="M612 536c46 0 81.667 -13.667 107 -41c25.333 -26.667 38 -63 38 -109v-381c-8 -3.33301 -20 -5 -36 -5c-16.667 0 -28.667 1.66699 -36 5v367c0 69.333 -33 104 -99 104c-58.667 0 -102.667 -30.667 -132 -92v-379c-8 -3.33301 -20 -5 -36 -5
c-16.667 0 -28.667 1.66699 -36 5v367c0 69.333 -33 104 -99 104c-57.333 0 -101 -30.333 -131 -91v-380c-8 -3.33301 -20 -5 -36 -5c-16.667 0 -28.667 1.66699 -36 5v516c7.33301 3.33301 19.333 5 36 5c16 0 28 -1.66699 36 -5v-62c38.667 51.333 91 77 157 77
c67.333 0 111.333 -29 132 -87c41.333 58 98.333 87 171 87z" />
    <glyph glyph-name="n" unicode="n" horiz-adv-x="549" 
d="M472 5c-8.66699 -3.33301 -20.666 -5 -35.999 -5c-16.667 0 -28.667 1.66699 -36 5v367c0 69.333 -36 104 -108 104c-61.333 0 -108 -30.333 -140 -91v-380c-8 -3.33301 -20 -5 -36 -5c-16.667 0 -28.667 1.66699 -36 5v516c7.33301 3.33301 19.333 5 36 5
c16 0 28 -1.66699 36 -5v-63c41.333 52 96.666 78 165.999 78c48.667 0 86.667 -13.667 114 -41c26.667 -26.667 40 -63 40 -109v-381z" />
    <glyph glyph-name="o" unicode="o" horiz-adv-x="542" 
d="M271 536c142.667 0 214 -91 214 -273s-71.333 -273 -214 -273s-214 91 -214 273s71.333 273 214 273zM373 434c-22 30 -56 45 -102 45s-80 -15 -102 -45c-25.333 -34.667 -38 -91.667 -38 -171s12.667 -136.333 38 -171c22 -30 56 -45 102 -45s80 15 102 45
c25.333 34.667 38 91.667 38 171s-12.667 136.333 -38 171z" />
    <glyph glyph-name="p" unicode="p" horiz-adv-x="556" 
d="M152 458c30.667 52 82 78 154 78c128 0 192 -91 192 -273s-64 -273 -192 -273c-72 0 -123.333 26 -154 78v-302c-7.33301 -3.33301 -19.333 -5 -36 -5s-28.667 1.66699 -36 5v755c7.33301 3.33301 19.333 5 36 5s28.667 -1.66699 36 -5v-63zM389 428
c-21.333 31.333 -57 47 -107 47c-40 0 -72 -15 -96 -45c-22 -27.333 -33.333 -61 -34 -101v-129c0 -40 11 -74 33 -102c24.667 -31.333 57 -47 97 -47c50 0 85.667 15.667 107 47c22.667 32.667 34 87.667 34 165s-11.333 132.333 -34 165z" />
    <glyph glyph-name="q" unicode="q" horiz-adv-x="556" 
d="M404 68c-32 -52 -83.334 -78 -154.001 -78c-128 0 -192 91 -192 273s64 273 192 273c70.667 0 122 -26 154 -78v63c6.66699 3.33301 18.334 5 35.001 5s29 -1.66699 37 -5v-755c-7.33301 -3.33301 -19.333 -5 -36 -5s-28.667 1.66699 -36 5v302zM166.999 98
c22 -31.333 57.666 -47.001 106.999 -47.001c38.667 0 70.334 15 95.001 45c22 26.667 33.667 59.334 35 98.001v135c-1.33301 40 -13 73.667 -35 101c-24 30 -55.667 45 -95 45c-49.333 0 -85 -15.667 -107 -47c-22.667 -32.667 -34 -87.667 -34 -165
s11.333 -132.333 34 -165z" />
    <glyph glyph-name="r" unicode="r" horiz-adv-x="391" 
d="M152 439c34.667 64 79.667 95.999 135 95.999c32.667 0 61.334 -8 86.001 -24c-2.66699 -25.333 -13.667 -45.666 -33 -60.999c-20.667 13.333 -43.334 20 -68.001 20c-46.667 0 -86.667 -33.333 -120 -100v-365c-7.33301 -3.33301 -19.333 -5 -36 -5
s-28.667 1.66699 -36 5v516c7.33301 3.33301 19.333 5 36 5s28.667 -1.66699 36 -5v-82z" />
    <glyph glyph-name="s" unicode="s" horiz-adv-x="444" 
d="M101 494c32 28 77.668 42 137.001 42s104.333 -8.33301 135 -25c0.666992 -22.667 -6 -40.334 -20 -53.001c-32 11.333 -67.667 17 -107 17c-79.333 0 -119 -29.333 -119 -88c0 -25.333 13 -45.333 39 -60c13.333 -8 42 -18.667 86 -32
c47.333 -14.667 80.666 -29.667 99.999 -45c31.333 -24.667 47 -60 47 -106c0 -102.667 -61 -154 -183 -154c-66.667 0 -120 11.333 -160 34c-1.33301 23.333 5.33398 41.333 20.001 54c43.333 -16.667 88.666 -25 135.999 -25c76.667 0 115 29.667 115 89
c0 29.333 -13 51.666 -39 66.999c-14 8 -42.667 18.333 -86 31c-45.333 12.667 -78.333 27.334 -99 44.001c-30.667 24 -46 57.333 -46 100c0 46.667 14.667 83.334 44 110.001z" />
    <glyph glyph-name="t" unicode="t" horiz-adv-x="368" 
d="M183 182c0 -48 7.66602 -82 22.999 -102c16 -20 43.667 -30 83 -30c16.667 0 33 1.66699 49 5c4 -8 6 -18 6 -30c0 -11.333 -1.33301 -20.333 -4 -27c-18 -5.33301 -41.333 -8 -70 -8c-57.333 0 -98.666 16.333 -123.999 49c-23.333 30 -35 76.667 -35 140v290h-78
c-3.33301 6.66699 -5 16 -5 28c0 13.333 1.66699 23 5 29h78v95c18.667 12.667 42.667 18 72 16v-111h143c3.33301 -6.66699 5 -16 5 -28s-1.66699 -21.667 -5 -29h-143v-287z" />
    <glyph glyph-name="u" unicode="u" horiz-adv-x="548" 
d="M76 521c8.66699 3.33301 20.666 5.00098 35.999 5.00098c16.667 0 28.667 -1.66699 36 -5v-367c0 -69.333 36.333 -104 109 -104c60 0 106.333 30.333 139 91v380c8 3.33301 20 5 36 5c16.667 0 28.667 -1.66699 36 -5v-516c-7.33301 -3.33301 -19.333 -5 -36 -5
c-16 0 -28 1.66699 -36 5v63c-41.333 -52 -96.666 -78 -165.999 -78c-48 0 -86 13.667 -114 41c-26.667 27.333 -40 63.666 -40 108.999v381z" />
    <glyph glyph-name="v" unicode="v" horiz-adv-x="510" 
d="M226 179c13.333 -36.667 23.333 -71 30 -103h3c7.33301 30.667 17.666 64.667 30.999 102l125 343c7.33301 3.33301 18.333 5 33 5c15.333 0 27 -1.66699 35 -5l-186 -516c-11.333 -3.33301 -25 -5 -41 -5c-17.333 0 -31 1.66699 -41 5l-190 516
c8.66699 3.33301 21.334 5 38.001 5c17.333 0 30 -1.66699 38 -5z" />
    <glyph glyph-name="w" unicode="w" horiz-adv-x="794" 
d="M430 312c-18.667 62 -28.667 106.332 -30 132.999h-3c-3.33301 -32.667 -14.333 -77 -33 -133l-97 -307c-14.667 -3.33301 -27.334 -5 -38.001 -5c-10 0 -23.333 1.66699 -40 5l-160 516c8 3.33301 20 5 36 5c16.667 0 27.667 -1.66699 33 -5l110 -350
c8 -28 14.667 -58.333 20 -91h3c4.66699 30 12 60.333 22 91l110 350c10.667 3.33301 23.334 5 38.001 5c16 0 28 -1.66699 36 -5l108 -348c7.33301 -24 14 -55 20 -93h3c3.33301 22.667 11 53.334 23 92.001l109 349c8 3.33301 19 5 33 5c15.333 0 26 -1.66699 32 -5
l-160 -516c-18 -3.33301 -31 -5 -39 -5c-7.33301 0 -20.333 1.66699 -39 5z" />
    <glyph glyph-name="x" unicode="x" horiz-adv-x="494" 
d="M31 521c9.33301 3.33301 22.667 5 40 5c18 0 31.667 -1.66699 41 -5l139 -200l137 200c7.33301 3.33301 19.333 5 36 5s29.667 -1.66699 39 -5l-174 -251l182 -265c-8.66699 -3.33301 -22 -5 -40 -5s-31.667 1.66699 -41 5l-147 212l-145 -212
c-8 -3.33301 -20.667 -5 -38 -5c-16 0 -28.333 1.66699 -37 5l181 263z" />
    <glyph glyph-name="y" unicode="y" horiz-adv-x="523" 
d="M285 -97c-18 -53.333 -36.6699 -90.667 -56.0029 -112c-24 -27.333 -57 -41 -99 -41c-20 0 -37 2.66699 -51 8c-4 8 -6 17.333 -6 28c0 15.333 2.33301 25.333 7 30c12.667 -3.33301 27 -5 43 -5c22.667 0 40.334 6.66699 53.001 20c14.667 15.333 29 44 43 86l30 84
c-7.33301 0 -15.333 1.66699 -24 5l-200 515c8.66699 3.33301 21.334 5 38.001 5s29.334 -1.66699 38.001 -5l135 -343c16 -41.333 28 -77 36 -107h3c7.33301 29.333 18 65 32 107l118 343c7.33301 3.33301 19.333 5 36 5c15.333 0 27.333 -1.66699 36 -5z" />
    <glyph glyph-name="z" unicode="z" horiz-adv-x="461" 
d="M407 61c4 -6.66699 6 -17 6 -31c0 -12.667 -2 -22.667 -6 -30h-361c-3.33301 8 -5 18.667 -5 32c0 12.667 1.66699 22.334 5 29.001l283 404h-263c-3.33301 7.33301 -5 17.666 -5 30.999s1.66699 23.333 5 30h340c3.33301 -10 5 -19.667 5 -29s-1.66699 -20 -5 -32
l-283 -404h284z" />
    <glyph glyph-name="braceleft" unicode="{" horiz-adv-x="344" 
d="M302 810c2.66699 -8 4 -17.667 4 -29c0 -3.33301 -1.33301 -13 -4 -29h-44c-52 0 -78 -25.667 -78 -77v-245c0 -46 -12 -77.667 -36 -95c24 -17.333 36 -49 36 -95v-246c0 -51.333 26 -77 78 -77h44c2.66699 -8 4 -17.667 4 -29s-1.33301 -21 -4 -29h-58
c-42.667 0 -75.667 12.333 -99 37c-22 22.667 -33 54.667 -33 96v266c0 31.333 -14 47 -42 47h-31c-3.33301 10 -5 19.667 -5 29c0 10 1.66699 20 5 30h31c28 0 42 16 42 48v265c0 88.667 44 133 132 133h58z" />
    <glyph glyph-name="bar" unicode="|" horiz-adv-x="264" 
d="M96 785c6.66699 3.33301 18.667 5 36 5c16 0 28 -1.66699 36 -5v-977c-8 -3.33301 -20 -5 -36 -5c-17.333 0 -29.333 1.66699 -36 5v977z" />
    <glyph glyph-name="braceright" unicode="}" horiz-adv-x="345" 
d="M100 810c88.667 0 133 -44.332 133 -132.999v-265c0 -32 14 -48 42 -48h30c3.33301 -10 5 -19.667 5 -29c0 -13.333 -1.66699 -23.333 -5 -30h-30c-28 0 -42 -15.667 -42 -47v-266c0 -88.667 -44.333 -133 -133 -133h-57c-3.33301 10 -5 19.333 -5 28
c0 10 1.66699 20 5 30h43c52 0 78 25.667 78 77v246c0 45.333 11.667 76.666 35 93.999c-23.333 18 -35 50 -35 96v245c0 51.333 -26 77 -78 77h-43c-3.33301 10 -5 19.667 -5 29s1.66699 19 5 29h57z" />
    <glyph glyph-name="asciitilde" unicode="~" horiz-adv-x="533" 
d="M112 253c-20 4.66699 -31.665 17.332 -34.998 37.999c21.333 38 58.666 57 111.999 57c22 0 48.667 -8.33301 80 -25c30.667 -17.333 56.334 -26 77.001 -26c32 0 56.667 12 74 36c20 -5.33301 32 -17.666 36 -36.999c-20.667 -38.667 -58.334 -58 -113.001 -58
c-22 0 -48.667 8.66699 -80 26c-30.667 16.667 -56.334 25 -77.001 25c-32 0 -56.667 -12 -74 -36z" />
    <glyph glyph-name="exclamdown" unicode="&#xa1;" horiz-adv-x="248" 
d="M83 513c9.33301 3.33301 23 5 41 5c18.667 0 32.334 -1.66699 41.001 -5v-73c-8.66699 -3.33301 -22.334 -5 -41.001 -5c-18 0 -31.667 1.66699 -41 5v73zM97 342c6 3.33301 15 5 27 5c11.333 0 20.333 -1.66699 27 -5l12 -539c-5.33301 -3.33301 -18.333 -5 -39 -5
c-20 0 -33 1.66699 -39 5z" />
    <glyph glyph-name="cent" unicode="&#xa2;" horiz-adv-x="465" 
d="M242 627c12 4 22.667 6.00098 32 6.00098c12.667 0 23 -2 31 -6l-6 -92c46.667 -2 81 -9.66699 103 -23c0 -21.333 -7.33301 -38.666 -22 -51.999c-23.333 11.333 -53.666 17 -90.999 17c-102 0 -153 -71.333 -153 -214c0 -141.333 52.333 -212 157 -212
c38.667 0 71 6.66699 97 20c14 -12 21.667 -29 23 -51c-26 -16.667 -64 -26.334 -114 -29.001l6 -92c-6.66699 -4.66699 -17.334 -7 -32.001 -7c-16 0 -26.333 2.33301 -31 7l5 93c-124 11.333 -186 101.666 -186 270.999c0 168.667 62 259 186 271z" />
    <glyph glyph-name="sterling" unicode="&#xa3;" horiz-adv-x="523" 
d="M220 309c24.667 -96 2.99902 -176.999 -65.001 -242.999h306c4 -4 6 -15 6 -33s-2 -29 -6 -33h-389v66c74.667 68.667 98.667 149.667 72 243h-82c-3.33301 6.66699 -5 16 -5 28c0 15.333 1.66699 24.666 5 27.999h66c-20.667 58 -31 106.333 -31 145
c0 120.667 69 181 207 181c60 0 113.333 -10 160 -30c2 -23.333 -5.66699 -41.333 -23 -54c-41.333 14.667 -83.666 22 -126.999 22c-94 0 -141 -40.667 -141 -122c0 -26.667 10.667 -74 32 -142h190c3.33301 -6.66699 5 -15.667 5 -27c0 -14 -1.66699 -23.667 -5 -29h-175z
" />
    <glyph glyph-name="currency" unicode="&#xa4;" horiz-adv-x="589" 
d="M414 113c-35.333 -26.667 -74.999 -40.001 -118.999 -40.001c-44.667 0 -84.667 13.333 -120 40l-73 -74c-8 0.666992 -16.333 5.66699 -25 15c-8.66699 8.66699 -13.334 16.667 -14.001 24l75 74c-27.333 34.667 -41 74.334 -41 119.001c0 43.333 13.667 83 41 119
l-75 74c1.33301 8 6 16.333 14 25c9.33301 8.66699 17.666 13 24.999 13l74 -73c35.333 26.667 75 40 119 40s83.333 -13.667 118 -41l74 74c6.66699 0 14.667 -4.33301 24 -13c8.66699 -8.66699 13.334 -17 14.001 -25l-73 -74c27.333 -36 41 -75.667 41 -119
c0 -44 -13.667 -84 -41 -120l74 -73c0 -8 -4.33301 -16.333 -13 -25c-8.66699 -9.33301 -17 -14 -25 -14zM193.001 372.999c-28 -27.333 -42 -61.333 -42 -102s14 -74.667 42 -102c28 -28 62 -42 102 -42c40.667 0 74.667 14 102 42c28 27.333 42 61.333 42 102
s-14 74.667 -42 102c-27.333 28 -61.333 42 -102 42c-40 0 -74 -14 -102 -42z" />
    <glyph glyph-name="yen" unicode="&#xa5;" horiz-adv-x="611" 
d="M505 679c8.66699 3.33301 21.333 4.99902 38 4.99902c15.333 0 27.666 -1.66699 36.999 -5l-221 -355h143c2.66699 -6.66699 4 -14.667 4 -24c0 -8.66699 -1.33301 -17 -4 -25h-167v-76h167c2.66699 -5.33301 4 -13.333 4 -24c0 -8.66699 -1.33301 -17 -4 -25h-167v-144
c-6.66699 -4 -18 -6 -34 -6c-15.333 0 -26.666 2 -33.999 6v144h-168c-2.66699 8 -4 16.667 -4 26c0 8.66699 1.33301 16.334 4 23.001h168v76h-168c-2.66699 8 -4 16.333 -4 25c0 9.33301 1.33301 17.333 4 24h144l-209 354c8.66699 4 22 6 40 6c17.333 0 30.333 -2 39 -6
l191 -326z" />
    <glyph glyph-name="brokenbar" unicode="&#xa6;" horiz-adv-x="252" 
d="M89 561c7.33301 3.33301 19.666 5 36.999 5c16 0 28.333 -1.66699 37 -5v-519c-8.66699 -3.33301 -21 -5 -37 -5c-17.333 0 -29.666 1.66699 -36.999 5v519z" />
    <glyph glyph-name="section" unicode="&#xa7;" horiz-adv-x="482" 
d="M309 183c-12 5.33301 -44.6641 15.666 -97.9971 30.999c-44.667 12.667 -77.334 26.334 -98.001 41.001c-29.333 21.333 -44 50 -44 86c0 43.333 23 82 69 116c-39.333 23.333 -59 57.333 -59 102c0 87.333 57.667 131 173 131c51.333 0 97 -7.33301 137 -22
c4 -21.333 -1.33301 -37.666 -16 -48.999c-32 10.667 -68 16 -108 16c-80 0 -120 -25 -120 -75c0 -24 14 -43.333 42 -58c12.667 -6 44 -16.667 94 -32c43.333 -12.667 74.666 -26.334 93.999 -41.001c28.667 -20.667 43 -49 43 -85c0 -42 -21.333 -79 -64 -111
c46.667 -25.333 70 -61.333 70 -108c0 -90 -64.667 -135 -194 -135c-60.667 0 -113.334 8.33301 -158.001 25c-4 22.667 1.33301 39.667 16 51c42 -12.667 85.667 -19 131 -19c90 0 135 26.333 135 79c0 23.333 -15 42.333 -45 57zM133.003 350c0 -28 18 -49.002 54 -63.002
c12.667 -5.33301 30.667 -11 54 -17c31.333 -8 51.333 -13.333 60 -16c34.667 27.333 52 54.333 52 81s-18 47.334 -54 62.001c-12 5.33301 -29.667 11.333 -53 18c-28 8 -47 13.667 -57 17c-37.333 -25.333 -56 -52.666 -56 -81.999z" />
    <glyph glyph-name="dieresis" unicode="&#xa8;" horiz-adv-x="455" 
d="M181 616c-8 -3.33301 -20 -5 -36 -5c-16.667 0 -29 1.66699 -37 5v65c8 3.33301 20.333 5 37 5c16 0 28 -1.66699 36 -5v-65zM339 616c-8 -3.33301 -20 -5 -36 -5c-16.667 0 -29 1.66699 -37 5v65c8 3.33301 20.333 5 37 5c16 0 28 -1.66699 36 -5v-65z" />
    <glyph glyph-name="copyright" unicode="&#xa9;" horiz-adv-x="534" 
d="M116 362c-41.333 40.667 -62 90.334 -62 149.001c0 58 20.667 107.333 62 148c40.667 41.333 90.334 62 149.001 62c58 0 107.333 -20.667 148 -62c41.333 -40.667 62 -90 62 -148c0 -58.667 -20.667 -108.334 -62 -149.001c-40.667 -41.333 -90 -62 -148 -62
c-58.667 0 -108.334 20.667 -149.001 62zM138 637c-35.333 -34.667 -53 -76.667 -53 -126c0 -50 17.667 -92.333 53 -127c34.667 -35.333 77 -53 127 -53c49.333 0 91.333 17.667 126 53c35.333 34.667 53 77 53 127c0 49.333 -17.667 91.333 -53 126
c-34.667 35.333 -76.667 53 -126 53c-50 0 -92.333 -17.667 -127 -53zM160 515c0 82 35.333 123 106 123c26.667 0 47.667 -4.66699 63 -14c0 -10.667 -3.66699 -19 -11 -25c-15.333 6.66699 -31.333 10 -48 10c-50 0 -75 -31.333 -75 -94c0 -62 25 -93 75 -93
c18 0 35 2.66699 51 8c7.33301 -4.66699 11 -12.667 11 -24c-16 -10 -38 -15 -66 -15c-70.667 0 -106 41.333 -106 124z" />
    <glyph glyph-name="ordfeminine" unicode="&#xaa;" horiz-adv-x="361" 
d="M186 630c74.667 0 112 -36 112 -108v-216c-4.66699 -2.66699 -11.667 -4 -21 -4c-8 0 -14.667 1.33301 -20 4l-6 37c-20 -31.333 -53 -47 -99 -47c-63.333 0 -95 33 -95 99c0 64 38.667 96 116 96c26 0 51 -1.33301 75 -4v32c0 44.667 -22.667 67 -68 67
c-29.333 0 -57.333 -5 -84 -15c-10 10 -15 22.333 -15 37c32 14.667 67 22 105 22zM248 450l-26 2c-16.667 0.666992 -31 1 -43 1c-48 0 -72 -19.333 -72 -58s19.667 -58 59 -58c24.667 0 44.667 8.33301 60 25c14 15.333 21.333 36.333 22 63v25zM295 244
c4.66699 -14 4.66699 -28.332 0 -42.999h-233c-4 15.333 -4 29.666 0 42.999h233z" />
    <glyph glyph-name="guillemotleft" unicode="&#xab;" horiz-adv-x="507" 
d="M259 509c13.333 -9.33301 21.666 -24.333 24.999 -45l-172 -194l172 -195c-3.33301 -20.667 -11.666 -35.667 -24.999 -45l-204 208c-4 7.33301 -6 17.333 -6 30c0 13.333 2 24 6 32zM423 491c13.333 -9.33301 21 -23.668 23 -43.001l-156 -178l156 -179
c-2 -19.333 -9.66699 -33.666 -23 -42.999l-189 192c-3.33301 6.66699 -5 16 -5 28c0 12.667 1.66699 22.667 5 30z" />
    <glyph glyph-name="logicalnot" unicode="&#xac;" horiz-adv-x="602" 
d="M521 181c-8 -4.66699 -18.668 -7 -32.001 -7s-23.666 2.33301 -30.999 7v196h-394c-4.66699 8 -7 18 -7 30c0 13.333 2.33301 24 7 32h457v-258z" />
    <glyph glyph-name="uni00AD" unicode="&#xad;" horiz-adv-x="262" 
 />
    <glyph glyph-name="registered" unicode="&#xae;" horiz-adv-x="534" 
d="M118 361c-41.333 41.333 -62 91 -62 149s20.667 107.667 62 149s91 62 149 62s107.667 -20.667 149 -62s62 -91 62 -149s-20.667 -107.667 -62 -149s-91 -62 -149 -62s-107.667 20.667 -149 62zM141 636c-34.667 -34.667 -52 -76.667 -52 -126s17.333 -91.333 52 -126
s76.667 -52 126 -52s91.333 17.333 126 52s52 76.667 52 126s-17.333 91.333 -52 126s-76.667 52 -126 52s-91.333 -17.333 -126 -52zM283 628c49.333 0 74 -22.667 74 -68c0 -32 -14.667 -52.667 -44 -62l58 -93c-5.33301 -3.33301 -12 -5 -20 -5
c-7.33301 0 -13.333 1 -18 3l-57 92h-49v-92c-5.33301 -2 -11 -3 -17 -3c-6.66699 0 -12 1 -16 3v225h89zM281 523c28 0 42 12.333 42 37c0 26.667 -14 40 -42 40h-54v-77h54z" />
    <glyph glyph-name="macron" unicode="&#xaf;" horiz-adv-x="407" 
d="M52 630c-7.33301 16.667 -7.33301 33 0 49h300c6 -14 6 -30.333 0 -49h-300z" />
    <glyph glyph-name="degree" unicode="&#xb0;" horiz-adv-x="358" 
d="M87 702c24 26 55.333 39.002 94 39.002c38 0 68.333 -12.667 91 -38c20.667 -22.667 31 -50.334 31 -83.001s-10.333 -60.334 -31 -83.001c-22.667 -25.333 -53 -38 -91 -38c-40 0 -71.667 12.333 -95 37c-20.667 21.333 -31 48.333 -31 81s10.667 61 32 85zM241 676.002
c-14.667 16.667 -35.001 24.999 -61.001 24.999s-46.667 -8.66699 -62 -26c-13.333 -15.333 -20 -34.333 -20 -57c0 -22 6.66699 -40.333 20 -55c14.667 -16.667 35.334 -25 62.001 -25c26 0 46.333 8.33301 61 25c12.667 14.667 19 33.334 19 56.001
s-6.33301 41.667 -19 57z" />
    <glyph glyph-name="plusminus" unicode="&#xb1;" horiz-adv-x="512" 
d="M83 374c-3.33301 6.66699 -5 16 -5 28s1.66699 21.333 5 28h145v116c6.66699 2.66699 16 4 28 4s21.333 -1.33301 28 -4v-116h146c2.66699 -6.66699 4 -16 4 -28s-1.33301 -21.333 -4 -28h-146v-115c-6.66699 -3.33301 -16 -5 -28 -5s-21.333 1.66699 -28 5v115h-145z
M83 136c-3.33301 6.66699 -5 16 -5 28s1.66699 21.333 5 28h347c2.66699 -6.66699 4 -16 4 -28s-1.33301 -21.333 -4 -28h-347z" />
    <glyph glyph-name="uni00B2" unicode="&#xb2;" horiz-adv-x="299" 
d="M122 509c33.333 18 53.667 30 61 36c18.667 14 28 31 28 51c0 37.333 -25.667 56 -77 56c-28.667 0 -51.334 -3.33301 -68.001 -10c-10 12 -14 24.667 -12 38c24.667 9.33301 54.667 14 90 14c78 0 117 -31.667 117 -95c0 -42 -28.333 -78.333 -85 -109
c-59.333 -32 -90.666 -65.333 -93.999 -100h171c3.33301 -8 5 -15.333 5 -22s-1.66699 -14 -5 -22h-217c-2.66699 12 -4 25.667 -4 41c0 49.333 30 90 90 122z" />
    <glyph glyph-name="uni00B3" unicode="&#xb3;" horiz-adv-x="300" 
d="M125 341c-36.667 0 -67 5.66699 -91 17c0 16 4.66699 27.667 14 35c22 -6.66699 47 -10 75 -10c58 0 87 20.333 87 61s-24 61 -72 61h-45c-5.33301 14 -5.33301 27.667 0 41h45c40.667 0 61 17.333 61 52c0 36 -23 54 -69 54c-28 0 -53 -3 -75 -9
c-9.33301 9.33301 -13.333 21.333 -12 36c24 10 54 15 90 15c78 0 117 -30 117 -90c0 -36 -15 -61.667 -45 -77c37.333 -15.333 56 -44.333 56 -87c0 -66 -45.333 -99 -136 -99z" />
    <glyph glyph-name="acute" unicode="&#xb4;" horiz-adv-x="224" 
d="M69 640c-20.667 2 -35 10 -43 24l104 144c30 2.66699 51.333 -7 64 -29z" />
    <glyph glyph-name="uni00B5" unicode="&#xb5;" horiz-adv-x="579" 
d="M412 521c7.33301 3.33301 19.333 5.00098 36 5.00098s28.667 -1.66699 36 -5v-516c-7.33301 -3.33301 -19.333 -5 -36 -5s-28.667 1.66699 -36 5v59c-38 -49.333 -88 -74 -150 -74c-46.667 0 -82.667 14 -108 42c5.33301 -130 17 -218.333 35 -265
c-21.333 -18.667 -47.333 -23 -78 -13c-12.667 43.333 -19 120.666 -19 231.999v535c8 3.33301 20 5 36 5c17.333 0 29.333 -1.66699 36 -5v-368c0 -68.667 36.333 -103 109 -103c60.667 0 107 30.333 139 91v380z" />
    <glyph glyph-name="paragraph" unicode="&#xb6;" horiz-adv-x="518" 
d="M172 406c-44.667 0.666992 -79.999 16.333 -105.999 47c-23.333 26.667 -35 59.667 -35 99c1.33301 40 14 73.667 38 101c26.667 30.667 62.667 46 108 46h54v-922c-6.66699 -2.66699 -16.334 -4 -29.001 -4c-14.667 0 -24.667 1.33301 -30 4v629zM418.001 -223.001
c-6.66699 -2.66699 -16.667 -4 -30 -4s-23 1.33301 -29 4v918c6 2.66699 15.667 4 29 4s23.333 -1.33301 30 -4v-918z" />
    <glyph glyph-name="periodcentered" unicode="&#xb7;" horiz-adv-x="224" 
d="M149 252c-8.66699 -4 -21 -6 -37 -6c-16.667 0 -29 2 -37 6v65c8 3.33301 20.333 5 37 5c16 0 28.333 -1.66699 37 -5v-65z" />
    <glyph glyph-name="cedilla" unicode="&#xb8;" horiz-adv-x="296" 
d="M157 36l-10.999 -62c72 0 108 -30.667 108 -92c0 -66 -39 -99 -117 -99c-36.667 0 -66.667 7.66699 -90 23c0 15.333 5.66699 27 17 35c21.333 -10.667 44.666 -16 69.999 -16c46 0 69 19.333 69 58c0 34.667 -20.667 52 -62 52h-35l-10 12l18 98z" />
    <glyph glyph-name="uni00B9" unicode="&#xb9;" horiz-adv-x="242" 
d="M137 685c6.66699 2.66699 15 3.99902 25 3.99902c7.33301 0 15 -1.33301 23 -4v-336c-6 -2 -13.667 -3 -23 -3c-11.333 0 -20 1 -26 3v236c0 18.667 0.333008 32 1 40c-28 -23.333 -60.333 -38.666 -97 -45.999c-10 10 -14 23.667 -12 41c44.667 11.333 81 33 109 65z
" />
    <glyph glyph-name="ordmasculine" unicode="&#xba;" horiz-adv-x="377" 
d="M188 630c88.667 0 133 -55.667 133 -167c0 -112 -44.333 -168 -133 -168c-87.333 0 -131 56 -131 168c0 111.333 43.667 167 131 167zM249 560c-12.667 18.667 -33 28.001 -61 28.001c-28.667 0 -48.667 -9.33301 -60 -28c-12.667 -18.667 -19 -51 -19 -97
s6.33301 -78.667 19 -98c11.333 -18 31.333 -27 60 -27c28 0 48.333 9 61 27c12.667 19.333 19 52 19 98c0 45.333 -6.33301 77.666 -19 96.999zM306 244.001c2.66699 -6.66699 4 -13.666 4 -20.999c0 -8 -1.33301 -15.333 -4 -22h-236c-2 5.33301 -3 12.666 -3 21.999
s1 16.333 3 21h236z" />
    <glyph glyph-name="guillemotright" unicode="&#xbb;" horiz-adv-x="506" 
d="M452 300c3.33301 -8 5 -18.667 5 -32c0 -12.667 -1.66699 -22.667 -5 -30l-205 -208c-13.333 10 -21.666 25 -24.999 45l172 195l-172 194c3.33301 20 11.666 35 24.999 45zM272 298c3.33301 -7.33301 5 -17.333 5 -30c0 -12 -1.66699 -21.333 -5 -28l-189 -192
c-12 8 -19.667 22.333 -23 43l156 179l-156 178c3.33301 20.667 11 35 23 43z" />
    <glyph glyph-name="onequarter" unicode="&#xbc;" horiz-adv-x="657" 
d="M499 697c5.33301 3.33301 14.333 5 27 5s21.667 -1.66699 27 -5l-387 -703c-6.66699 -2.66699 -16 -4 -28 -4c-10.667 0 -19.667 1.33301 -27 4zM148 685c6 2.66699 14.333 4 25 4c6 0 13.667 -1.33301 23 -4v-336c-7.33301 -2 -15 -3 -23 -3c-12 0 -21 1 -27 3v236
c0 18.667 0.333008 32 1 40c-27.333 -22.667 -59.333 -38 -96 -46c-10.667 9.33301 -14.667 23 -12 41c44 11.333 80.333 33 109 65zM615 128c2 -10 3 -16.667 3 -20c0 -4.66699 -1 -11 -3 -19h-41v-86c-12 -2 -19 -3 -21 -3c-3.33301 0 -11 1 -23 3v86h-175
c-2 6 -3 11 -3 15c0 7.33301 1 13 3 17l171 218c8 2.66699 16 4 24 4c9.33301 0 17.333 -1.33301 24 -4v-211h41zM410 128h120v152z" />
    <glyph glyph-name="onehalf" unicode="&#xbd;" horiz-adv-x="712" 
d="M499 697c5.33301 3.33301 14.333 5 27 5s21.667 -1.66699 27 -5l-387 -703c-6.66699 -2.66699 -16 -4 -28 -4c-10.667 0 -19.667 1.33301 -27 4zM173 689c6 0 13.667 -1.33301 23 -4v-336c-7.33301 -2 -15 -3 -23 -3c-12 0 -21 1 -27 3v236c0 18.667 0.333008 32 1 40
c-27.333 -22.667 -59.333 -38 -96 -46c-10.667 9.33301 -14.667 23 -12 41c44 11.333 80.333 33 109 65c6 2.66699 14.333 4 25 4zM549 348c78.667 0 117.999 -31.667 117.999 -95c0 -42 -28.667 -78.333 -86 -109c-59.333 -32 -90.666 -65.333 -93.999 -100h171
c3.33301 -6 5 -13.333 5 -22s-1.66699 -16 -5 -22h-217c-2.66699 12 -4 25.667 -4 41c0 49.333 29.667 90 89 122c34 18 54.667 30 62 36c18.667 14 28 31 28 51c0 37.333 -25 56 -75 56c-30 0 -53.333 -3.33301 -70 -10c-9.33301 11.333 -13.333 24 -12 38
c24.667 9.33301 54.667 14 90 14z" />
    <glyph glyph-name="threequarters" unicode="&#xbe;" horiz-adv-x="708" 
d="M549 697c5.33301 3.33301 14.333 5 27 5s21.667 -1.66699 27 -5l-387 -703c-6.66699 -2.66699 -16 -4 -28 -4c-10.667 0 -19.667 1.33301 -27 4zM151 694c77.333 0 116.001 -30 116.001 -90c0 -36.667 -15 -62.334 -45 -77.001c37.333 -14.667 56 -43.667 56 -87
c0 -66 -45 -99 -135 -99c-36.667 0 -67 5.66699 -91 17c-1.33301 14.667 3 26.334 13 35.001c22.667 -6.66699 48 -10 76 -10c58 0 87 20.333 87 61s-24 61 -72 61h-45c-6.66699 14 -6.66699 27.667 0 41h45c40.667 0 61 17.333 61 52c0 36 -23 54 -69 54
c-28 0 -53.333 -3 -76 -9c-8.66699 8.66699 -12.334 20.667 -11.001 36c24 10 54 15 90 15zM576.001 339c8 2.66699 16 4 24 4c9.33301 0 17.333 -1.33301 24 -4v-211h41c2 -10 3 -16.667 3 -20c0 -4.66699 -1 -11 -3 -19h-41v-86c-12 -2 -19 -3 -21 -3
c-3.33301 0 -11 1 -23 3v86h-175c-2 8 -3 13.333 -3 16c0 6.66699 1 12 3 16zM580.001 128v152l-120 -152h120z" />
    <glyph glyph-name="questiondown" unicode="&#xbf;" horiz-adv-x="424" 
d="M215 515c9.33301 3.33301 22.666 5 39.999 5c18.667 0 32.334 -1.66699 41.001 -5v-73c-8.66699 -3.33301 -22.334 -5 -41.001 -5c-17.333 0 -30.666 1.66699 -39.999 5v73zM135 175c61.333 52.667 92 108.332 92 166.999c6 4 15.333 6 28 6s22.667 -2 30 -6
c0 -78.667 -27.667 -143 -83 -193c-30.667 -27.333 -50 -46.666 -58 -57.999c-17.333 -25.333 -26 -55.666 -26 -90.999c0 -72 42.333 -108 127 -108c52 0 93.333 8 124 24c17.333 -12.667 25 -30.334 23 -53.001c-40 -22 -92.333 -33 -157 -33c-60 0 -107 14.667 -141 44
s-51 70 -51 122c0 67.333 30.667 127 92 179z" />
    <glyph glyph-name="Agrave" unicode="&#xc0;" horiz-adv-x="648" 
d="M381 778c-8.66699 -14 -23 -22 -43 -24l-125 139c14 22 35.333 31.667 64 29zM283 714c10.667 4 24.334 6 41.001 6c17.333 0 31 -2 41 -6l265 -708c-8.66699 -4 -22.334 -6 -41.001 -6c-16 0 -28 2 -36 6l-72 191h-319l-73 -191c-8 -4 -20 -6 -36 -6s-27.667 2 -35 6z
M320 634c-4 -20 -10.667 -43 -20 -69l-116 -306h275l-116 306c-9.33301 26.667 -16 49.667 -20 69h-3z" />
    <glyph glyph-name="Aacute" unicode="&#xc1;" horiz-adv-x="647" 
d="M377 923c30 2.66699 51.333 -7 64 -29l-125 -139c-20.667 2 -35 10 -43 24zM282 714c10.667 4 24.334 6 41.001 6c17.333 0 31 -2 41 -6l265 -708c-8.66699 -4 -22.334 -6 -41.001 -6c-16 0 -28 2 -36 6l-72 191h-319l-73 -191c-8 -4 -20 -6 -36 -6s-27.333 2 -34 6z
M319 634c-4 -20 -10.667 -43 -20 -69l-116 -306h275l-116 306c-9.33301 26.667 -16 49.667 -20 69h-3z" />
    <glyph glyph-name="Acircumflex" unicode="&#xc2;" horiz-adv-x="647" 
d="M466 798c-8 -18.667 -19.333 -30.333 -34 -35l-112 79l-110 -79c-16.667 6 -28 17.667 -34 35l132 108h26zM282 714.001c10.667 4 24.334 6 41.001 6c17.333 0 31 -2 41 -6l265 -708c-8.66699 -4 -22.334 -6 -41.001 -6c-16 0 -28 2 -36 6l-72 191h-319l-73 -191
c-8 -4 -20 -6 -36 -6s-27.333 2 -34 6zM319 634.001c-4 -20 -10.667 -43 -20 -69l-116 -306h275l-116 306c-9.33301 26.667 -16 49.667 -20 69h-3z" />
    <glyph glyph-name="Atilde" unicode="&#xc3;" horiz-adv-x="647" 
d="M266 847c19.333 0.666992 39.999 -5 61.999 -17s39 -17.667 51 -17c18.667 0 32 9 40 27c18 -2.66699 31 -11 39 -25c-16.667 -33.333 -43.667 -50.333 -81 -51c-19.333 -0.666992 -39.666 5 -60.999 17c-22 11.333 -38.667 17 -50 17c-20 -0.666992 -33.667 -10 -41 -28
c-20 2 -32.333 10 -37 24c14.667 34 40.667 51.667 78 53zM281.999 714c10.667 4 24.334 6 41.001 6c17.333 0 31 -2 41 -6l265 -708c-8.66699 -4 -22.334 -6 -41.001 -6c-16 0 -28 2 -36 6l-72 191h-319l-73 -191c-8 -4 -20 -6 -36 -6s-27.333 2 -34 6zM318.999 634
c-4 -20 -10.667 -43 -20 -69l-116 -306h275l-116 306c-9.33301 26.667 -16 49.667 -20 69h-3z" />
    <glyph glyph-name="Adieresis" unicode="&#xc4;" horiz-adv-x="648" 
d="M206 832c8 2.66699 20.333 4 37 4c16 0 28.333 -1.33301 37 -4v-66c-8.66699 -2.66699 -21 -4 -37 -4c-16.667 0 -29 1.33301 -37 4v66zM364 832c8 2.66699 20.333 4 37 4c16 0 28.333 -1.33301 37 -4v-66c-8.66699 -2.66699 -21 -4 -37 -4c-16.667 0 -29 1.33301 -37 4
v66zM283 714c10.667 4 24.334 6 41.001 6c17.333 0 31 -2 41 -6l265 -708c-8.66699 -4 -22.334 -6 -41.001 -6c-16 0 -28 2 -36 6l-72 191h-319l-73 -191c-8 -4 -20 -6 -36 -6s-27.667 2 -35 6zM320 634c-4 -20 -10.667 -43 -20 -69l-116 -306h275l-116 306
c-9.33301 26.667 -16 49.667 -20 69h-3z" />
    <glyph glyph-name="Aring" unicode="&#xc5;" horiz-adv-x="648" 
d="M629 6c-8 -4 -21.333 -6 -40 -6c-16 0 -28 2 -36 6l-72 191h-319l-73 -191c-8 -4 -20 -6 -36 -6s-27.667 2 -35 6l257 687c-46 13.333 -69 46 -69 98c0 33.333 12 60 36 80c22 18 49 27 81 27c31.333 0 58 -9 80 -27c24.667 -20 37 -46.667 37 -80
c0 -48.667 -22.333 -80.667 -67 -96zM375 836c-12.667 13.333 -30.333 20 -53 20c-22 0 -39.333 -6.66699 -52 -20c-11.333 -12 -17 -27 -17 -45c0 -18.667 5.66699 -34 17 -46c12.667 -14 30 -21 52 -21s39.667 7 53 21c12 12.667 18 28 18 46s-6 33 -18 45zM343.001 565
c-9.33301 26.667 -16 49.667 -20 69h-3c-4 -20 -10.667 -43 -20 -69l-116 -306h275z" />
    <glyph glyph-name="AE" unicode="&#xc6;" horiz-adv-x="858" 
d="M796 720c9.33301 -19.333 9.33301 -39.999 0 -61.999h-278v-263h228c7.33301 -21.333 7.33301 -42 0 -62h-228v-271h288c8.66699 -22.667 8.66699 -43.334 0 -62.001h-358v190h-250l-110 -184c-10.667 -4 -24 -6 -40 -6c-16.667 0 -29.667 2 -39 6l433 714h354z
M448 252.001v355l-213 -355h213z" />
    <glyph glyph-name="Ccedilla" unicode="&#xc7;" horiz-adv-x="559" 
d="M522 24c-40.667 -22 -99.333 -33.3311 -176 -33.998l-7 -36c72 0 108 -30.667 108 -92c0 -66 -39 -99 -117 -99c-36.667 0 -66.667 7.66699 -90 23c0 15.333 5.66699 27 17 35c21.333 -10.667 44.666 -16 69.999 -16c46 0 69 19.333 69 58c0 34.667 -20.667 52 -62 52
h-35l-10 12l12 66c-158.667 17.333 -238 139.666 -238 366.999c0 246.667 93 370 279 370c73.333 0 129.666 -11 168.999 -33c2 -8.66699 0.666992 -18.667 -4 -30c-5.33301 -12 -11.666 -20.667 -18.999 -26c-38 16.667 -83.667 25 -137 25
c-68 0 -118.667 -21.333 -152 -64c-38.667 -49.333 -58 -130.333 -58 -243s19.333 -193.334 58 -242.001c33.333 -41.333 84 -62 152 -62c58.667 0 108 8.33301 148 25c6.66699 -4.66699 12.667 -12.667 18 -24c4.66699 -11.333 6.33398 -22 5.00098 -32z" />
    <glyph glyph-name="Egrave" unicode="&#xc8;" horiz-adv-x="555" 
d="M178 893c14 22 35.333 31.667 64 29l104 -144c-8.66699 -14 -23 -22 -43 -24zM493 720c4 -8.66699 6 -18.666 6 -29.999c0 -12 -2 -22.667 -6 -32h-323v-263h273c4 -8.66699 6 -18.334 6 -29.001c0 -11.333 -2 -22 -6 -32h-273v-272h333c4 -8.66699 6 -18.667 6 -30
s-2 -22 -6 -32h-407v720h397z" />
    <glyph glyph-name="Eacute" unicode="&#xc9;" horiz-adv-x="555" 
d="M260 756c-20.667 2 -35 10 -43 24l104 144c30 2.66699 51.333 -7 64 -29zM493 720c4 -8.66699 6 -18.666 6 -29.999c0 -12 -2 -22.667 -6 -32h-323v-263h273c4 -8.66699 6 -18.334 6 -29.001c0 -11.333 -2 -22 -6 -32h-273v-272h333c4 -8.66699 6 -18.667 6 -30
s-2 -22 -6 -32h-407v720h397z" />
    <glyph glyph-name="Ecircumflex" unicode="&#xca;" horiz-adv-x="555" 
d="M437 798c-6.66699 -18.667 -18 -30.333 -34 -35l-111 79l-110 -79c-16 6 -27.667 17.667 -35 35l132 108h26zM493 720.001c4 -8.66699 6 -18.666 6 -29.999c0 -12 -2 -22.667 -6 -32h-323v-263h273c4 -8.66699 6 -18.334 6 -29.001c0 -11.333 -2 -22 -6 -32h-273v-272
h333c4 -8.66699 6 -18.667 6 -30s-2 -22 -6 -32h-407v720h397z" />
    <glyph glyph-name="Edieresis" unicode="&#xcb;" horiz-adv-x="555" 
d="M254 766c-8 -2.66699 -20 -4 -36 -4c-16.667 0 -29 1.33301 -37 4v66c8 2.66699 20.333 4 37 4c16 0 28 -1.33301 36 -4v-66zM412 766c-8 -2.66699 -20 -4 -36 -4c-16.667 0 -29 1.33301 -37 4v66c8 2.66699 20.333 4 37 4c16 0 28 -1.33301 36 -4v-66zM493 720
c4 -8.66699 6 -18.666 6 -29.999c0 -12 -2 -22.667 -6 -32h-323v-263h273c4 -8.66699 6 -18.334 6 -29.001c0 -11.333 -2 -22 -6 -32h-273v-272h333c4 -8.66699 6 -18.667 6 -30s-2 -22 -6 -32h-407v720h397z" />
    <glyph glyph-name="Igrave" unicode="&#xcc;" horiz-adv-x="266" 
d="M28 893c14 22 35.333 31.667 64 29l104 -144c-8.66699 -14 -23 -22 -43 -24zM96 714c8 4 20.332 6 36.999 6s29 -2 37 -6v-708c-8.66699 -4 -21 -6 -37 -6c-17.333 0 -29.666 2 -36.999 6v708z" />
    <glyph glyph-name="Iacute" unicode="&#xcd;" horiz-adv-x="266" 
d="M100 756c-20.667 2 -35 10 -43 24l104 144c30 2.66699 51.333 -7 64 -29zM96 714c8 4 20.332 6 36.999 6s29 -2 37 -6v-708c-8.66699 -4 -21 -6 -37 -6c-17.333 0 -29.666 2 -36.999 6v708z" />
    <glyph glyph-name="Icircumflex" unicode="&#xce;" horiz-adv-x="266" 
d="M278 798c-8 -18.667 -19.334 -30.333 -34.001 -35l-112 79l-110 -79c-15.333 6 -26.666 17.667 -33.999 35l132 108h26zM95.999 714.001c8 4 20.332 6 36.999 6s29 -2 37 -6v-708c-8.66699 -4 -21 -6 -37 -6c-17.333 0 -29.666 2 -36.999 6v708z" />
    <glyph glyph-name="Idieresis" unicode="&#xcf;" horiz-adv-x="266" 
d="M91 766c-8 -2.66699 -20 -4 -36 -4c-16.667 0 -29 1.33301 -37 4v66c8 2.66699 20.333 4 37 4c16 0 28 -1.33301 36 -4v-66zM249 766c-8 -2.66699 -20 -4 -36 -4c-16.667 0 -29 1.33301 -37 4v66c8 2.66699 20.333 4 37 4c16 0 28 -1.33301 36 -4v-66zM96 714
c8 4 20.332 6 36.999 6s29 -2 37 -6v-708c-8.66699 -4 -21 -6 -37 -6c-17.333 0 -29.666 2 -36.999 6v708z" />
    <glyph glyph-name="Eth" unicode="&#xd0;" horiz-adv-x="670" 
d="M318 720c98.667 0 170.667 -26 216 -78c50 -57.333 75 -151.333 75 -282s-25 -224.334 -75 -281.001c-46 -52.667 -118 -79 -216 -79h-209v330h-82c-5.33301 18.667 -5.33301 36.334 0 53.001h82v337h209zM183 383l156 0.000976562c4.66699 -17.333 4.66699 -35 0 -53
h-156v-267h129c74 0 127.667 19.667 161 59c38 45.333 57 124.666 57 237.999c0 114 -19 193.667 -57 239c-33.333 38.667 -87 58 -161 58h-129v-274z" />
    <glyph glyph-name="Ntilde" unicode="&#xd1;" horiz-adv-x="696" 
d="M461 839c16.667 -4.66699 26.668 -15.999 30.001 -33.999c-14 -28.667 -41 -43 -81 -43c-18.667 0 -38.334 5.66699 -59.001 17c-21.333 11.333 -38 17 -50 17c-19.333 0 -34.333 -9 -45 -27c-17.333 7.33301 -27.333 18.666 -30 33.999c16 30 42.667 45 80 45
c19.333 0 39.333 -5.66699 60 -17c21.333 -12 38 -18 50 -18c20 0 35 8.66699 45 26zM217.001 515.001c-24 40 -41.999 76.667 -53.999 110h-3c3.33301 -36 5 -86.667 5 -152v-467c-7.33301 -4 -19 -6 -35 -6s-27.333 2 -34 6v708c10 4 24.667 6 44 6s33.666 -2 42.999 -6
l294 -503c22.667 -38.667 41.667 -77.334 57 -116.001h3c-4 42.667 -6 92.334 -6 149.001v470c7.33301 4 19 6 35 6c16.667 0 28 -2 34 -6v-708c-8.66699 -4 -23 -6 -43 -6c-19.333 0 -34 2 -44 6z" />
    <glyph glyph-name="Ograve" unicode="&#xd2;" 
d="M412 783c-8 -14 -22.333 -22 -43 -24l-120 134c14 22 35.333 31.667 64 29zM339 730c183.333 0 275 -123.333 275 -370s-91.667 -370 -275 -370s-275 123.333 -275 370s91.667 370 275 370zM339 668c-131.333 0 -197 -102.667 -197 -308s65.667 -308 197 -308
s197 102.667 197 308s-65.667 308 -197 308z" />
    <glyph glyph-name="Oacute" unicode="&#xd3;" 
d="M422 935c30 2.66699 51.333 -7 64 -29l-121 -134c-20.667 3.33301 -35 11.333 -43 24zM339 730c183.333 0 275 -123.333 275 -370s-91.667 -370 -275 -370s-275 123.333 -275 370s91.667 370 275 370zM339 668c-131.333 0 -197 -102.667 -197 -308s65.667 -308 197 -308
s197 102.667 197 308s-65.667 308 -197 308z" />
    <glyph glyph-name="Ocircumflex" unicode="&#xd4;" 
d="M486 798c-8 -18.667 -19.333 -30.333 -34 -35l-112 79l-110 -79c-16.667 6 -28 17.667 -34 35l132 108h26zM339 730.001c183.333 0 275 -123.333 275 -370s-91.667 -370 -275 -370s-275 123.333 -275 370s91.667 370 275 370zM339 668.001
c-131.333 0 -197 -102.667 -197 -308s65.667 -308 197 -308s197 102.667 197 308s-65.667 308 -197 308z" />
    <glyph glyph-name="Otilde" unicode="&#xd5;" 
d="M443 856c15.333 -5.33301 25.335 -16.333 30.002 -33c-14 -30.667 -40 -46.667 -78 -48c-17.333 -0.666992 -37 4.33301 -59 15s-39.333 16 -52 16c-20 -0.666992 -35 -10.334 -45 -29.001c-14.667 7.33301 -24.334 18.333 -29.001 33c14 30 40 45.667 78 47
c19.333 0.666992 39.666 -4.33301 60.999 -15c21.333 -10 38 -15 50 -15c20 0.666992 34.667 10.334 44 29.001zM64.002 360c0 246.667 91.667 370 275 370s275 -123.333 275 -370s-91.667 -370 -275 -370s-275 123.333 -275 370zM142.002 360
c0 -205.333 65.667 -308 197 -308s197 102.667 197 308s-65.667 308 -197 308s-197 -102.667 -197 -308z" />
    <glyph glyph-name="Odieresis" unicode="&#xd6;" 
d="M223 842c8 2.66699 20.333 4 37 4c16 0 28.333 -1.33301 37 -4v-66c-8.66699 -2.66699 -21 -4 -37 -4c-16.667 0 -29 1.33301 -37 4v66zM381 842c8 2.66699 20.333 4 37 4c16 0 28.333 -1.33301 37 -4v-66c-8.66699 -2.66699 -21 -4 -37 -4c-16.667 0 -29 1.33301 -37 4
v66zM339 730c183.333 0 275 -123.333 275 -370s-91.667 -370 -275 -370s-275 123.333 -275 370s91.667 370 275 370zM339 668c-131.333 0 -197 -102.667 -197 -308s65.667 -308 197 -308s197 102.667 197 308s-65.667 308 -197 308z" />
    <glyph glyph-name="multiply" unicode="&#xd7;" horiz-adv-x="462" 
d="M115 131c-8 2.66699 -16 8.66699 -24 18c-9.33301 8 -15.333 16 -18 24l116 116l-116 116c2.66699 8 8.66699 16 18 24c8 9.33301 16 15.333 24 18l116 -116l116 116c8 -2.66699 16 -8.66699 24 -18c9.33301 -8 15.333 -16 18 -24l-116 -116l116 -116
c-2.66699 -8 -8.66699 -16 -18 -24c-8 -9.33301 -16 -15.333 -24 -18l-116 116z" />
    <glyph glyph-name="Oslash" unicode="&#xd8;" horiz-adv-x="677" 
d="M529 765c20.667 -2 38.666 -10.667 53.999 -26l-52 -88c54.667 -60.667 82 -157.667 82 -291c0 -246.667 -91.667 -370 -275 -370c-65.333 0 -118.666 16.333 -159.999 49l-49 -85c-22 2 -40 10.667 -54 26l59 101c-47.333 62 -71 155 -71 279
c0 246.667 91.667 370 275 370c58 0 107.333 -13.333 148 -40zM451.999 633c-30 23.333 -68 35 -114 35c-131.333 0 -197 -102.667 -197 -308c0 -88.667 12.667 -156.667 38 -204zM212.999 99c31.333 -31.333 73 -47.001 125 -47.001c131.333 0 197 102.667 197 308
c0 98.667 -15.667 171.334 -47 218.001z" />
    <glyph glyph-name="Ugrave" unicode="&#xd9;" horiz-adv-x="668" 
d="M220 893c14 22 35.333 31.667 64 29l98 -138c-8 -12.667 -22.333 -20.667 -43 -24zM578 235c0 -77.333 -22.333 -137.667 -67 -181c-44 -42.667 -103 -64 -177 -64s-133 21.333 -177 64c-44 44 -66 104.333 -66 181v479c8.66699 4 21 6 37 6c16.667 0 29 -2 37 -6v-490
c0 -54 15 -96 45 -126s72 -45 126 -45c53.333 0 95 15 125 45c29.333 30 44 72 44 126v490c8 4 20 6 36 6s28.333 -2 37 -6v-479z" />
    <glyph glyph-name="Uacute" unicode="&#xda;" horiz-adv-x="668" 
d="M312 756c-20.667 2 -35 10 -43 24l104 144c30 2.66699 51.333 -7 64 -29zM578 235c0 -77.333 -22.333 -137.667 -67 -181c-44 -42.667 -103 -64 -177 -64s-133 21.333 -177 64c-44 44 -66 104.333 -66 181v479c8.66699 4 21 6 37 6c16.667 0 29 -2 37 -6v-490
c0 -54 15 -96 45 -126s72 -45 126 -45c53.333 0 95 15 125 45c29.333 30 44 72 44 126v490c8 4 20 6 36 6s28.333 -2 37 -6v-479z" />
    <glyph glyph-name="Ucircumflex" unicode="&#xdb;" horiz-adv-x="668" 
d="M485 798c-8 -18.667 -19.333 -30.333 -34 -35l-112 79l-110 -79c-16.667 6 -28 17.667 -34 35l132 108h26zM578 235.001c0 -77.333 -22.333 -137.667 -67 -181c-44 -42.667 -103 -64 -177 -64s-133 21.333 -177 64c-44 44 -66 104.333 -66 181v479c8.66699 4 21 6 37 6
c16.667 0 29 -2 37 -6v-490c0 -54 15 -96 45 -126s72 -45 126 -45c53.333 0 95 15 125 45c29.333 30 44 72 44 126v490c8 4 20 6 36 6s28.333 -2 37 -6v-479z" />
    <glyph glyph-name="Udieresis" unicode="&#xdc;" horiz-adv-x="668" 
d="M292 778c-8 -3.33301 -20 -5 -36 -5c-16.667 0 -29 1.66699 -37 5v65c8 3.33301 20.333 5 37 5c16 0 28 -1.66699 36 -5v-65zM450 778c-8 -3.33301 -20 -5 -36 -5c-16.667 0 -29 1.66699 -37 5v65c8 3.33301 20.333 5 37 5c16 0 28 -1.66699 36 -5v-65zM578 235
c0 -77.333 -22.333 -137.667 -67 -181c-44 -42.667 -103 -64 -177 -64s-133 21.333 -177 64c-44 44 -66 104.333 -66 181v479c8.66699 4 21 6 37 6c16.667 0 29 -2 37 -6v-490c0 -54 15 -96 45 -126s72 -45 126 -45c53.333 0 95 15 125 45c29.333 30 44 72 44 126v490
c8 4 20 6 36 6s28.333 -2 37 -6v-479z" />
    <glyph glyph-name="Yacute" unicode="&#xdd;" horiz-adv-x="628" 
d="M361 924c30 2.66699 51.333 -7 64 -29l-125 -139c-20.667 2 -35 10 -43 24zM528 714c8 4 21 6 39 6c17.333 0 31.333 -2 42 -6l-259 -411v-297c-8 -4 -20 -6 -36 -6c-17.333 0 -30 2 -38 6v295l-252 413c10 4 25 6 45 6c18.667 0 32.667 -2 42 -6l206 -335z" />
    <glyph glyph-name="Thorn" unicode="&#xde;" horiz-adv-x="604" 
d="M96 714c7.33301 4 19.668 6 37.001 6s29.666 -2 36.999 -6v-135h179c63.333 0 114 -19 152 -57c36.667 -38 55 -88.333 55 -151s-18.333 -112.667 -55 -150c-38 -38 -88.667 -57 -152 -57h-179v-158c-8 -4 -20.333 -6 -37 -6c-18 0 -30.333 2 -37 6v708zM170.002 227h172
c43.333 0 77 12.667 101 38c23.333 25.333 35 60.333 35 105c0 46 -11.667 82 -35 108c-24 25.333 -57.667 38 -101 38h-172v-289z" />
    <glyph glyph-name="germandbls" unicode="&#xdf;" horiz-adv-x="571" 
d="M80 556c0 129.333 68.6689 194.002 206.002 194.002c62 0 110 -17.667 144 -53c30 -31.333 44.667 -71.333 44 -120c0 -32 -7 -63.333 -21 -94c-18 -0.666992 -36 -5 -54 -13c-36 -16.667 -54 -43 -54 -79c0 -23.333 9.66699 -44 29 -62
c7.33301 -6.66699 28.666 -21.334 63.999 -44.001c61.333 -40.667 92 -90.334 92 -149.001c0 -46 -14.667 -82 -44 -108c-28.667 -25.333 -68.667 -38 -120 -38c-46 0 -81.667 6 -107 18c-2 21.333 3.66699 38.333 17 51c22 -7.33301 48 -11 78 -11
c70.667 0 106 28.333 106 85c0 38.667 -31 78 -93 118c-62 40.667 -93 85 -93 133c0 47.333 19.667 83.333 59 108c19.333 12.667 38.666 20.334 57.999 23.001c6.66699 23.333 10 43.666 10 60.999c-0.666992 33.333 -10 60 -28 80c-20 23.333 -49.333 35 -88 35
c-88.667 0 -133 -45 -133 -135v-551c-7.33301 -3.33301 -19.333 -5 -36 -5s-28.667 1.66699 -36 5v551z" />
    <glyph glyph-name="agrave" unicode="&#xe0;" horiz-adv-x="515" 
d="M296 631c-8.66699 -14 -23 -22 -43 -24l-125 139c14 22 35.333 31.667 64 29zM257 536c68.667 0 116.666 -16.999 143.999 -50.999c24.667 -30.667 37 -81 37 -151v-329c-6 -3.33301 -15.667 -5 -29 -5c-12 0 -21.667 1.66699 -29 5l-11 75
c-28.667 -60 -84.667 -90 -168 -90c-47.333 0 -84.666 13.667 -111.999 41c-28.667 28 -43 67.667 -43 119c0 104 63 156 189 156c42.667 0 86.334 -2.66699 131.001 -8v57c0 79.333 -39.333 119 -118 119c-50 0 -96.667 -8.33301 -140 -25
c-6.66699 3.33301 -12.334 10.666 -17.001 21.999c-3.33301 8.66699 -5 19 -5 31c50.667 22.667 107.667 34 171 34zM365.999 246.001c-61.333 5.33301 -101.667 8 -121 8c-82.667 0 -124 -34.667 -124 -104c0 -68 34.333 -102 103 -102c43.333 0 78 15 104 45
c25.333 29.333 38 67 38 113v40z" />
    <glyph glyph-name="aacute" unicode="&#xe1;" horiz-adv-x="515" 
d="M292 775c29.333 2.66699 51 -7 65 -29l-125 -139c-20.667 2 -35 10 -43 24zM257 536c68.667 0 116.666 -16.999 143.999 -50.999c24.667 -30.667 37 -81 37 -151v-329c-6 -3.33301 -15.667 -5 -29 -5c-12 0 -21.667 1.66699 -29 5l-11 75
c-28.667 -60 -84.667 -90 -168 -90c-47.333 0 -84.666 13.667 -111.999 41c-28.667 28 -43 67.667 -43 119c0 104 63 156 189 156c42.667 0 86.334 -2.66699 131.001 -8v56c0 80 -39.333 120 -118 120c-50 0 -96.667 -8.33301 -140 -25
c-6.66699 3.33301 -12.334 10.666 -17.001 21.999c-3.33301 8.66699 -5 19 -5 31c50.667 22.667 107.667 34 171 34zM365.999 246.001c-61.333 5.33301 -101.667 8 -121 8c-82.667 0 -124 -34.667 -124 -104c0 -68 34.333 -102 103 -102c43.333 0 78 15 104 45
c25.333 29.333 38 67 38 113v40z" />
    <glyph glyph-name="acircumflex" unicode="&#xe2;" horiz-adv-x="515" 
d="M400 636c-8.66699 -18.667 -20 -29.666 -34 -32.999l-108 76l-109 -77c-14.667 5.33301 -25.667 16.666 -33 33.999l129 106h25zM257 536.001c68.667 0 116.666 -16.999 143.999 -50.999c24.667 -30.667 37 -81 37 -151v-329c-6 -3.33301 -15.667 -5 -29 -5
c-12 0 -21.667 1.66699 -29 5l-11 75c-28.667 -60 -84.667 -90 -168 -90c-47.333 0 -84.666 13.667 -111.999 41c-28.667 28 -43 67.667 -43 119c0 104 63 156 189 156c42.667 0 86.334 -2.66699 131.001 -8v58c0 78.667 -39.333 118 -118 118
c-50 0 -96.667 -8.33301 -140 -25c-6.66699 3.33301 -12.334 10.666 -17.001 21.999c-3.33301 8.66699 -5 19 -5 31c50.667 22.667 107.667 34 171 34zM365.999 246.002c-61.333 5.33301 -101.667 8 -121 8c-82.667 0 -124 -34.667 -124 -104c0 -68 34.333 -102 103 -102
c43.333 0 78 15 104 45c25.333 29.333 38 67 38 113v40z" />
    <glyph glyph-name="atilde" unicode="&#xe3;" horiz-adv-x="514" 
d="M208 711c18.667 0 38.332 -5.66699 58.999 -17c21.333 -11.333 38 -17 50 -17c22.667 0 37.667 8.66699 45 26c16 -6.66699 25.667 -18 29 -34c-1.33301 -6 -8.33301 -13.667 -21 -23c-17.333 -14 -36.666 -21 -57.999 -21c-19.333 0 -39.333 6 -60 18
c-21.333 11.333 -38 17 -50 17c-20 0 -35.333 -9.33301 -46 -28c-15.333 8.66699 -25 20 -29 34c22.667 30 49.667 45 81 45zM256.998 536c68.667 0 116.667 -16.999 144 -50.999c24.667 -30.667 37 -81 37 -151v-329c-6 -3.33301 -15.667 -5 -29 -5
c-12 0 -21.667 1.66699 -29 5l-11 75c-28.667 -60 -84.667 -90 -168 -90c-47.333 0 -84.666 13.667 -111.999 41c-28.667 28 -43 67.667 -43 119c0 104 63 156 189 156c42.667 0 86.334 -2.66699 131.001 -8v59c0 41.333 -9.66699 71.333 -29 90
c-18.667 18 -48.334 27 -89.001 27c-50 0 -96.667 -8.33301 -140 -25c-6.66699 3.33301 -12.334 10.666 -17.001 21.999c-3.33301 8 -5 18.333 -5 31c50.667 22.667 107.667 34 171 34zM365.998 246.001c-61.333 5.33301 -101.667 8 -121 8
c-82.667 0 -124 -34.667 -124 -104c0 -68 34.333 -102 103 -102c43.333 0 78 15 104 45c25.333 29.333 38 67 38 113v40z" />
    <glyph glyph-name="adieresis" unicode="&#xe4;" horiz-adv-x="515" 
d="M142 704c8 3.33301 20.333 5 37 5c16 0 28 -1.66699 36 -5v-65c-8 -3.33301 -20 -5 -36 -5c-16.667 0 -29 1.66699 -37 5v65zM300 704c8 3.33301 20.333 5 37 5c16 0 28 -1.66699 36 -5v-65c-8 -3.33301 -20 -5 -36 -5c-16.667 0 -29 1.66699 -37 5v65zM257 536
c68.667 0 116.666 -16.999 143.999 -50.999c24.667 -30.667 37 -81 37 -151v-329c-6 -3.33301 -15.667 -5 -29 -5c-12 0 -21.667 1.66699 -29 5l-11 75c-28.667 -60 -84.667 -90 -168 -90c-47.333 0 -84.666 13.667 -111.999 41c-28.667 28 -43 67.667 -43 119
c0 104 63 156 189 156c42.667 0 86.334 -2.66699 131.001 -8v57c0 79.333 -39.333 119 -118 119c-50 0 -96.667 -8.33301 -140 -25c-6.66699 3.33301 -12.334 10.666 -17.001 21.999c-3.33301 8.66699 -5 19 -5 31c50.667 22.667 107.667 34 171 34zM365.999 246.001
c-61.333 5.33301 -101.667 8 -121 8c-82.667 0 -124 -34.667 -124 -104c0 -68 34.333 -102 103 -102c43.333 0 78 15 104 45c25.333 29.333 38 67 38 113v40z" />
    <glyph glyph-name="aring" unicode="&#xe5;" horiz-adv-x="515" 
d="M179 772c21.333 17.333 47.667 26 79 26c30.667 0 57 -8.33301 79 -25c24 -19.333 36 -45 36 -77c0 -32.667 -11.333 -58.667 -34 -78c-22 -18 -49.333 -27 -82 -27c-33.333 0 -60 9 -80 27c-22 18.667 -33 44.667 -33 78c0 32 11.667 57.333 35 76zM307.001 738
c-12 12 -28.667 17.999 -50 17.999c-20 0 -36 -6.33301 -48 -19c-10.667 -11.333 -16 -25 -16 -41c0 -17.333 5.33301 -31.666 16 -42.999c11.333 -12.667 27.333 -19 48 -19c21.333 0 38 6.33301 50 19c11.333 12 17 26.333 17 43s-5.66699 30.667 -17 42zM257.001 535.999
c68.667 0 116.666 -16.999 143.999 -50.999c24.667 -30.667 37 -81 37 -151v-329c-6 -3.33301 -15.667 -5 -29 -5c-12 0 -21.667 1.66699 -29 5l-11 75c-28.667 -60 -84.667 -90 -168 -90c-47.333 0 -84.666 13.667 -111.999 41c-28.667 28 -43 67.667 -43 119
c0 104 63 156 189 156c42.667 0 86.334 -2.66699 131.001 -8v56c0 80 -39.333 120 -118 120c-50 0 -96.667 -8.33301 -140 -25c-6.66699 3.33301 -12.334 10.666 -17.001 21.999c-3.33301 8.66699 -5 19 -5 31c50.667 22.667 107.667 34 171 34zM366 246
c-61.333 5.33301 -101.667 8 -121 8c-82.667 0 -124 -34.667 -124 -104c0 -68 34.333 -102 103 -102c43.333 0 78 15 104 45c25.333 29.333 38 67 38 113v40z" />
    <glyph glyph-name="ae" unicode="&#xe6;" horiz-adv-x="775" 
d="M546 536c57.333 0 101.67 -17.335 133.003 -52.002c30.667 -33.333 46 -80.666 46 -141.999c0 -36.667 -3.66699 -68 -11 -94h-295c6.66699 -131.333 53.334 -197 140.001 -197c48 0 86 10.667 114 32c14.667 -10 23 -26.333 25 -49c-32 -29.333 -81.667 -44 -149 -44
c-88 0 -144.333 39.667 -169 119c-23.333 -79.333 -83.333 -119 -180 -119c-48.667 0 -86.334 13.667 -113.001 41c-27.333 28 -41 67.667 -41 119c0 101.333 60.667 152 182 152h120v55c0 42 -8.66699 72 -26 90s-45.333 27 -84 27
c-46.667 0 -90.334 -8.33301 -131.001 -25c-14 12.667 -21 30.334 -21 53.001c47.333 22.667 101 34 161 34c77.333 0 126.666 -30.667 147.999 -92c31.333 61.333 81.666 92 150.999 92zM546.004 476.998c-79.333 0 -121.667 -58.332 -127 -174.999h229
c2.66699 11.333 4 27.666 4 48.999c0 84 -35.333 126 -106 126zM238.003 247.999c-78.667 0 -118 -33 -118 -99c0 -67.333 31 -101 93 -101c41.333 0 74.333 14 99 42c24 28 36 65.667 36 113v45h-110z" />
    <glyph glyph-name="ccedilla" unicode="&#xe7;" horiz-adv-x="445" 
d="M259 -58c72 0 108 -29.6689 108 -89.002c0 -63.333 -39 -95 -117 -95c-36.667 0 -66.667 7.66699 -90 23c0 15.333 5.66699 27 17 35c21.333 -10.667 44.666 -16 69.999 -16c46 0 69 18 69 54c0 34 -20.667 51 -62 51h-35l-10 11l13 78
c-110.667 20.667 -166 110.334 -166 269.001c0 182 71.667 273 215 273c58 0 100 -8 126 -24c0 -21.333 -7.33301 -38.666 -22 -51.999c-23.333 11.333 -53.666 17 -90.999 17c-102 0 -153 -71.333 -153 -214c0 -141.333 52.333 -212 157 -212c38.667 0 71 6.66699 97 20
c14 -12 21.667 -29 23 -51c-29.333 -19.333 -76.333 -29.333 -141 -30z" />
    <glyph glyph-name="egrave" unicode="&#xe8;" horiz-adv-x="512" 
d="M159 746c14 22 35.333 31.667 64 29l104 -144c-8.66699 -14 -23 -22 -43 -24zM131 240c3.33301 -66.667 17.998 -114.666 43.998 -143.999c24 -28 61 -42 111 -42c50.667 0 91.334 11 122.001 33c16 -12.667 24.667 -30.334 26 -53.001
c-36.667 -29.333 -90.667 -44 -162 -44c-144 0 -216 92 -216 276c0 91.333 20 160 60 206c36.667 42.667 88.334 64 155.001 64c60 0 106.667 -17.333 140 -52c33.333 -34 50 -81.333 50 -142c0 -41.333 -3.66699 -75.333 -11 -102h-319zM270.998 477.001
c-88 0 -134.667 -61 -140 -183h253c2.66699 13.333 4 32.333 4 57c0 84 -39 126 -117 126z" />
    <glyph glyph-name="eacute" unicode="&#xe9;" horiz-adv-x="512" 
d="M232 607c-20.667 2 -35 10 -43 24l104 144c30 2.66699 51.333 -7 64 -29zM131 240c3.33301 -66.667 17.998 -114.666 43.998 -143.999c24 -28 61 -42 111 -42c50.667 0 91.334 11 122.001 33c16 -12.667 24.667 -30.334 26 -53.001c-36.667 -29.333 -90.667 -44 -162 -44
c-144 0 -216 92 -216 276c0 91.333 20 160 60 206c36.667 42.667 88.334 64 155.001 64c60 0 106.667 -17.333 140 -52c33.333 -34 50 -81.333 50 -142c0 -41.333 -3.66699 -75.333 -11 -102h-319zM270.998 477.001c-88 0 -134.667 -61 -140 -183h253
c2.66699 13.333 4 32.333 4 57c0 84 -39 126 -117 126z" />
    <glyph glyph-name="ecircumflex" unicode="&#xea;" horiz-adv-x="512" 
d="M411 636c-8.66699 -18.667 -20.001 -29.666 -34.001 -32.999l-108 76l-108 -77c-15.333 5.33301 -26.666 16.666 -33.999 33.999l129 106h25zM130.999 240.001c3.33301 -66.667 17.998 -114.666 43.998 -143.999c24 -28 61 -42 111 -42c50.667 0 91.334 11 122.001 33
c16 -12.667 24.667 -30.334 26 -53.001c-36.667 -29.333 -90.667 -44 -162 -44c-144 0 -216 92 -216 276c0 91.333 20 160 60 206c36.667 42.667 88.334 64 155.001 64c60 0 106.667 -17.333 140 -52c33.333 -34 50 -81.333 50 -142c0 -41.333 -3.66699 -75.333 -11 -102
h-319zM270.997 477.002c-88 0 -134.667 -61 -140 -183h253c2.66699 13.333 4 32.333 4 57c0 84 -39 126 -117 126z" />
    <glyph glyph-name="edieresis" unicode="&#xeb;" horiz-adv-x="512" 
d="M227 630c-8.66699 -3.33301 -21 -5 -37 -5c-16.667 0 -28.667 1.66699 -36 5v65c7.33301 3.33301 19.333 5 36 5c16 0 28.333 -1.66699 37 -5v-65zM385 630c-8.66699 -3.33301 -21 -5 -37 -5c-16.667 0 -28.667 1.66699 -36 5v65c7.33301 3.33301 19.333 5 36 5
c16 0 28.333 -1.66699 37 -5v-65zM131 240c3.33301 -66.667 17.998 -114.666 43.998 -143.999c24 -28 61 -42 111 -42c50.667 0 91.334 11 122.001 33c16 -12.667 24.667 -30.334 26 -53.001c-36.667 -29.333 -90.667 -44 -162 -44c-144 0 -216 92 -216 276
c0 91.333 20 160 60 206c36.667 42.667 88.334 64 155.001 64c60 0 106.667 -17.333 140 -52c33.333 -34 50 -81.333 50 -142c0 -41.333 -3.66699 -75.333 -11 -102h-319zM270.998 477.001c-88 0 -134.667 -61 -140 -183h253c2.66699 13.333 4 32.333 4 57
c0 84 -39 126 -117 126z" />
    <glyph glyph-name="igrave" unicode="&#xec;" horiz-adv-x="238" 
d="M8 748c14 22 35.333 31.667 64 29l104 -144c-8.66699 -14 -23 -22 -43 -24zM155 5c-8 -3.33301 -20 -5 -36 -5c-17.333 0 -29.333 1.66699 -36 5v516c6.66699 3.33301 18.667 5 36 5c16 0 28 -1.66699 36 -5v-516z" />
    <glyph glyph-name="iacute" unicode="&#xed;" horiz-adv-x="238" 
d="M96 607c-20.667 2 -35 10 -43 24l104 144c30 2.66699 51.333 -7 64 -29zM155 5c-8 -3.33301 -20 -5 -36 -5c-17.333 0 -29.333 1.66699 -36 5v516c6.66699 3.33301 18.667 5 36 5c16 0 28 -1.66699 36 -5v-516z" />
    <glyph glyph-name="icircumflex" unicode="&#xee;" horiz-adv-x="238" 
d="M262 636c-8.66699 -18.667 -19.668 -29.667 -33.001 -33l-109 76l-108 -77c-15.333 6 -26.666 17.333 -33.999 34l130 106h25zM154.999 5c-8 -3.33301 -20 -5 -36 -5c-17.333 0 -29.333 1.66699 -36 5v516c6.66699 3.33301 18.667 5 36 5c16 0 28 -1.66699 36 -5v-516z
" />
    <glyph glyph-name="idieresis" unicode="&#xef;" horiz-adv-x="238" 
d="M74 634c-8 -2.66699 -20.333 -4 -37 -4c-16 0 -28 1.33301 -36 4v66c8 2.66699 20 4 36 4c16.667 0 29 -1.33301 37 -4v-66zM232 634c-8 -2.66699 -20 -4 -36 -4c-16.667 0 -29 1.33301 -37 4v66c8 2.66699 20.333 4 37 4c16 0 28 -1.33301 36 -4v-66zM155 5
c-8 -3.33301 -20 -5 -36 -5c-17.333 0 -29.333 1.66699 -36 5v516c6.66699 3.33301 18.667 5 36 5c16 0 28 -1.66699 36 -5v-516z" />
    <glyph glyph-name="eth" unicode="&#xf0;" horiz-adv-x="556" 
d="M355 658c94 -81.333 141 -198.333 141 -351c0 -116 -19.667 -199.333 -59 -250c-35.333 -44.667 -90 -67 -164 -67c-144 0 -216 87.333 -216 262s69 262 207 262c67.333 0 117 -23.667 149 -71c-16.667 75.333 -53 136 -109 182l-124 -78
c-14.667 10.667 -23.667 24.667 -27 42l105 66c-36.667 22 -76.667 37.333 -120 46c-2 20.667 3 37 15 49c57.333 -10 110 -30 158 -60l78 49c14 -10 23 -24.333 27 -43zM415 252c0 76 -13.668 130.333 -41.001 163c-23.333 27.333 -58.666 41 -105.999 41
c-45.333 0 -78.333 -14 -99 -42c-24.667 -32.667 -37 -86.667 -37 -162c0 -136.667 47 -205 141 -205c94.667 0 142 68.333 142 205z" />
    <glyph glyph-name="ntilde" unicode="&#xf1;" horiz-adv-x="549" 
d="M221 716c19.333 0 39.6641 -5.66699 60.9971 -17c20.667 -11.333 37 -17 49 -17c20 0 35 10 45 30c18 -7.33301 28.667 -19 32 -35c-17.333 -31.333 -44.666 -47 -81.999 -47c-19.333 0 -39.666 5.66699 -60.999 17c-20.667 11.333 -37 17 -49 17c-20 0 -35 -10 -45 -30
c-17.333 8 -27.666 19.667 -30.999 35c16.667 31.333 43.667 47 81 47zM151.998 458c41.333 52 96.667 78 166 78c48.667 0 86.667 -13.667 114 -41c26.667 -26.667 40 -63 40 -109v-381c-8.66699 -3.33301 -20.667 -5 -36 -5c-16.667 0 -28.667 1.66699 -36 5v367
c0 69.333 -36 104 -108 104c-61.333 0 -108 -30.333 -140 -91v-380c-8 -3.33301 -20 -5 -36 -5c-16.667 0 -28.667 1.66699 -36 5v516c7.33301 3.33301 19.333 5 36 5c16 0 28 -1.66699 36 -5v-63z" />
    <glyph glyph-name="ograve" unicode="&#xf2;" horiz-adv-x="542" 
d="M312 631c-8.66699 -14 -23.333 -22 -44 -24l-125 139c14 22 35.667 31.667 65 29zM271.001 536c142.667 0 214 -91 214 -273s-71.333 -273 -214 -273s-214 91 -214 273s71.333 273 214 273zM373.001 434c-22 30 -56 45 -102 45s-80 -15 -102 -45
c-25.333 -34.667 -38 -91.667 -38 -171s12.667 -136.333 38 -171c22 -30 56 -45 102 -45s80 15 102 45c25.333 34.667 38 91.667 38 171s-12.667 136.333 -38 171z" />
    <glyph glyph-name="oacute" unicode="&#xf3;" horiz-adv-x="542" 
d="M291 775c30 2.66699 51.333 -7 64 -29l-125 -139c-20.667 2 -35 10 -43 24zM271 536c142.667 0 214 -91 214 -273s-71.333 -273 -214 -273s-214 91 -214 273s71.333 273 214 273zM373 434c-22 30 -56 45 -102 45s-80 -15 -102 -45c-25.333 -34.667 -38 -91.667 -38 -171
s12.667 -136.333 38 -171c22 -30 56 -45 102 -45s80 15 102 45c25.333 34.667 38 91.667 38 171s-12.667 136.333 -38 171z" />
    <glyph glyph-name="ocircumflex" unicode="&#xf4;" horiz-adv-x="542" 
d="M410 636c-8.66699 -18.667 -19.668 -29.666 -33.001 -32.999l-109 76l-108 -77c-15.333 5.33301 -26.666 16.666 -33.999 33.999l129 106h25zM270.999 536.001c142.667 0 214 -91 214 -273s-71.333 -273 -214 -273s-214 91 -214 273s71.333 273 214 273zM372.999 434.001
c-22 30 -56 45 -102 45s-80 -15 -102 -45c-25.333 -34.667 -38 -91.667 -38 -171s12.667 -136.333 38 -171c22 -30 56 -45 102 -45s80 15 102 45c25.333 34.667 38 91.667 38 171s-12.667 136.333 -38 171z" />
    <glyph glyph-name="otilde" unicode="&#xf5;" horiz-adv-x="542" 
d="M216 710c19.333 0 39.667 -5.66699 61 -17c20.667 -11.333 37 -17 49 -17c20 0 35 9.66699 45 29c17.333 -5.33301 27.666 -16.666 30.999 -33.999c-16.667 -31.333 -43.667 -47 -81 -47c-19.333 0 -39.666 6 -60.999 18c-20.667 11.333 -37 17 -49 17
c-20 0 -35.333 -10 -46 -30c-16.667 7.33301 -26.667 18.666 -30 33.999c16.667 31.333 43.667 47 81 47zM271.001 536c142.667 0 214 -91 214 -273s-71.333 -273 -214 -273s-214 91 -214 273s71.333 273 214 273zM373.001 434c-22 30 -56 45 -102 45s-80 -15 -102 -45
c-25.333 -34.667 -38 -91.667 -38 -171s12.667 -136.333 38 -171c22 -30 56 -45 102 -45s80 15 102 45c25.333 34.667 38 91.667 38 171s-12.667 136.333 -38 171z" />
    <glyph glyph-name="odieresis" unicode="&#xf6;" horiz-adv-x="542" 
d="M153 704c8 2.66699 20.333 4 37 4c16 0 28 -1.33301 36 -4v-66c-8 -2.66699 -20 -4 -36 -4c-16.667 0 -29 1.33301 -37 4v66zM311 704c8 2.66699 20.333 4 37 4c16 0 28 -1.33301 36 -4v-66c-8 -2.66699 -20 -4 -36 -4c-16.667 0 -29 1.33301 -37 4v66zM271 536
c142.667 0 214 -91 214 -273s-71.333 -273 -214 -273s-214 91 -214 273s71.333 273 214 273zM373 434c-22 30 -56 45 -102 45s-80 -15 -102 -45c-25.333 -34.667 -38 -91.667 -38 -171s12.667 -136.333 38 -171c22 -30 56 -45 102 -45s80 15 102 45
c25.333 34.667 38 91.667 38 171s-12.667 136.333 -38 171z" />
    <glyph glyph-name="divide" unicode="&#xf7;" horiz-adv-x="545" 
d="M314 415c-9.33301 -3.33301 -23 -5 -41 -5c-18.667 0 -32.334 1.66699 -41.001 5v73c8.66699 3.33301 22.334 5 41.001 5c18 0 31.667 -1.66699 41 -5v-73zM74 262c-3.33301 6.66699 -5 16 -5 28s1.66699 21.333 5 28h398c2.66699 -6.66699 4 -16 4 -28
s-1.33301 -21.333 -4 -28h-398zM314 92c-9.33301 -3.33301 -23 -5 -41 -5c-18.667 0 -32.334 1.66699 -41.001 5v73c8.66699 3.33301 22.334 5 41.001 5c18 0 31.667 -1.66699 41 -5v-73z" />
    <glyph glyph-name="oslash" unicode="&#xf8;" horiz-adv-x="542" 
d="M424 571c17.333 -2 32.666 -9.66797 45.999 -23.001l-43 -72c39.333 -45.333 59 -116.333 59 -213c0 -182 -71.667 -273 -215 -273c-43.333 0 -80.333 8.33301 -111 25l-35 -60c-18 0.666992 -33 8.33398 -45 23.001l39 68c-41.333 44.667 -62 117 -62 217
c0 182 71.333 273 214 273c46.667 0 85.334 -9.66699 116.001 -29zM355 452.999c-22 17.333 -50 26 -84 26c-46 0 -80 -15 -102 -45c-25.333 -34.667 -38 -91.667 -38 -171c0 -66 10.333 -114.667 31 -146zM193 68.999c20.667 -14.667 46.667 -22 78 -22c46 0 80 15 102 45
c25.333 34.667 38 91.667 38 171c0 60.667 -8.66699 107.667 -26 141z" />
    <glyph glyph-name="ugrave" unicode="&#xf9;" horiz-adv-x="548" 
d="M328 631c-8.66699 -14 -23 -22 -43 -24l-125 139c14 22 35.333 31.667 64 29zM396 521c8 3.33301 19.999 5.00098 35.999 5.00098c16.667 0 28.667 -1.66699 36 -5v-516c-7.33301 -3.33301 -19.333 -5 -36 -5c-16 0 -28 1.66699 -36 5v63
c-41.333 -52 -96.666 -78 -165.999 -78c-48 0 -86 13.667 -114 41c-26.667 27.333 -40 63.666 -40 108.999v381c8.66699 3.33301 20.667 5 36 5c16.667 0 28.667 -1.66699 36 -5v-367c0 -69.333 36.333 -104 109 -104c60 0 106.333 30.333 139 91v380z" />
    <glyph glyph-name="uacute" unicode="&#xfa;" horiz-adv-x="548" 
d="M241 607c-20.667 2 -35 10 -43 24l104 144c30 2.66699 51.333 -7 64 -29zM76 521c8.66699 3.33301 20.666 5.00098 35.999 5.00098c16.667 0 28.667 -1.66699 36 -5v-367c0 -69.333 36.333 -104 109 -104c60 0 106.333 30.333 139 91v380c8 3.33301 20 5 36 5
c16.667 0 28.667 -1.66699 36 -5v-516c-7.33301 -3.33301 -19.333 -5 -36 -5c-16 0 -28 1.66699 -36 5v63c-41.333 -52 -96.666 -78 -165.999 -78c-48 0 -86 13.667 -114 41c-26.667 27.333 -40 63.666 -40 108.999v381z" />
    <glyph glyph-name="ucircumflex" unicode="&#xfb;" horiz-adv-x="548" 
d="M415 636c-7.33301 -18 -18.333 -29 -33 -33l-109 76l-108 -77c-16 6 -27 17.333 -33 34l129 106h25zM76 521c8.66699 3.33301 20.666 5.00098 35.999 5.00098c16.667 0 28.667 -1.66699 36 -5v-367c0 -69.333 36.333 -104 109 -104c60 0 106.333 30.333 139 91v380
c8 3.33301 20 5 36 5c16.667 0 28.667 -1.66699 36 -5v-516c-7.33301 -3.33301 -19.333 -5 -36 -5c-16 0 -28 1.66699 -36 5v63c-41.333 -52 -96.666 -78 -165.999 -78c-48 0 -86 13.667 -114 41c-26.667 27.333 -40 63.666 -40 108.999v381z" />
    <glyph glyph-name="udieresis" unicode="&#xfc;" horiz-adv-x="548" 
d="M155 705c8 3.33301 20.333 5 37 5c16 0 28.333 -1.66699 37 -5v-65c-8.66699 -3.33301 -21 -5 -37 -5c-16.667 0 -29 1.66699 -37 5v65zM313 705c8 3.33301 20.333 5 37 5c16 0 28.333 -1.66699 37 -5v-65c-8.66699 -3.33301 -21 -5 -37 -5c-16.667 0 -29 1.66699 -37 5
v65zM396 521c8 3.33301 19.999 5.00098 35.999 5.00098c16.667 0 28.667 -1.66699 36 -5v-516c-7.33301 -3.33301 -19.333 -5 -36 -5c-16 0 -28 1.66699 -36 5v63c-41.333 -52 -96.666 -78 -165.999 -78c-48 0 -86 13.667 -114 41c-26.667 27.333 -40 63.666 -40 108.999
v381c8.66699 3.33301 20.667 5 36 5c16.667 0 28.667 -1.66699 36 -5v-367c0 -69.333 36.333 -104 109 -104c60 0 106.333 30.333 139 91v380z" />
    <glyph glyph-name="yacute" unicode="&#xfd;" horiz-adv-x="524" 
d="M235 607c-20.667 2 -35 10 -43 24l104 144c30 2.66699 51.333 -7 64 -29zM285 -97c-18 -53.333 -36.6699 -90.667 -56.0029 -112c-24 -27.333 -57 -41 -99 -41c-20 0 -37 2.66699 -51 8c-4 8 -6 17.333 -6 28c0 15.333 2.33301 25.333 7 30c12.667 -3.33301 27 -5 43 -5
c22.667 0 40.334 6.66699 53.001 20c14.667 15.333 29 44 43 86l30 84c-7.33301 0 -15.333 1.66699 -24 5l-200 515c8.66699 3.33301 21.334 5 38.001 5s29.334 -1.66699 38.001 -5l135 -343c16 -41.333 28 -77 36 -107h3c7.33301 29.333 18 65 32 107l118 343
c7.33301 3.33301 19.333 5 36 5c15.333 0 27.333 -1.66699 36 -5z" />
    <glyph glyph-name="thorn" unicode="&#xfe;" horiz-adv-x="556" 
d="M80 745c7.33301 3.33301 19.333 5 36 5s28.667 -1.66699 36 -5v-287c30.667 52 82 78 154 78c128 0 192 -91 192 -273s-64 -273 -192 -273c-72 0 -123.333 26 -154 78v-302c-7.33301 -3.33301 -19.333 -5 -36 -5s-28.667 1.66699 -36 5v979zM389 428
c-21.333 31.333 -57 47 -107 47c-40 0 -72 -15 -96 -45c-22 -27.333 -33.333 -61 -34 -101v-129c0 -40 11 -74 33 -102c24.667 -31.333 57 -47 97 -47c50 0 85.667 15.667 107 47c22.667 32.667 34 87.667 34 165s-11.333 132.333 -34 165z" />
    <glyph glyph-name="ydieresis" unicode="&#xff;" horiz-adv-x="524" 
d="M221 641c-8.66699 -3.33301 -21 -5 -37 -5c-16.667 0 -29 1.66699 -37 5v65c8 3.33301 20.333 5 37 5c16 0 28.333 -1.66699 37 -5v-65zM379 641c-8.66699 -3.33301 -21 -5 -37 -5c-16.667 0 -29 1.66699 -37 5v65c8 3.33301 20.333 5 37 5c16 0 28.333 -1.66699 37 -5
v-65zM285 -97c-18 -53.333 -36.6699 -90.667 -56.0029 -112c-24 -27.333 -57 -41 -99 -41c-20 0 -37 2.66699 -51 8c-4 8 -6 17.333 -6 28c0 15.333 2.33301 25.333 7 30c12.667 -3.33301 27 -5 43 -5c22.667 0 40.334 6.66699 53.001 20c14.667 15.333 29 44 43 86l30 84
c-7.33301 0 -15.333 1.66699 -24 5l-200 515c8.66699 3.33301 21.334 5 38.001 5s29.334 -1.66699 38.001 -5l135 -343c16 -41.333 28 -77 36 -107h3c7.33301 29.333 18 65 32 107l118 343c7.33301 3.33301 19.333 5 36 5c15.333 0 27.333 -1.66699 36 -5z" />
    <glyph glyph-name="Amacron" unicode="&#x100;" horiz-adv-x="647" 
d="M460 837c7.33301 -15.333 7.33301 -31.667 0 -49h-283c-6.66699 16.667 -6.66699 33 0 49h283zM282 713.999c10.667 4 24.334 6 41.001 6c17.333 0 31 -2 41 -6l265 -708c-8.66699 -4 -22.334 -6 -41.001 -6c-16 0 -28 2 -36 6l-72 191h-319l-73 -191
c-8 -4 -20 -6 -36 -6s-27.333 2 -34 6zM319 633.999c-4 -20 -10.667 -43 -20 -69l-116 -306h275l-116 306c-9.33301 26.667 -16 49.667 -20 69h-3z" />
    <glyph glyph-name="amacron" unicode="&#x101;" horiz-adv-x="514" 
d="M394 694c6 -14.667 6 -30.333 0 -47h-269c-5.33301 17.333 -5.33301 33 0 47h269zM257 536.001c68.667 0 116.666 -16.999 143.999 -50.999c24.667 -30.667 37 -81 37 -151v-329c-6 -3.33301 -15.667 -5 -29 -5c-12 0 -21.667 1.66699 -29 5l-11 75
c-28.667 -60 -84.667 -90 -168 -90c-47.333 0 -84.666 13.667 -111.999 41c-28.667 28 -43 67.667 -43 119c0 104 63 156 189 156c42.667 0 86.334 -2.66699 131.001 -8v56c0 80 -39.333 120 -118 120c-50 0 -96.667 -8.33301 -140 -25
c-6.66699 3.33301 -12.334 10.666 -17.001 21.999c-3.33301 8.66699 -5 19 -5 31c50.667 22.667 107.667 34 171 34zM365.999 246.002c-61.333 5.33301 -101.667 8 -121 8c-82.667 0 -124 -34.667 -124 -104c0 -68 34.333 -102 103 -102c43.333 0 78 15 104 45
c25.333 29.333 38 67 38 113v40z" />
    <glyph glyph-name="Abreve" unicode="&#x102;" horiz-adv-x="648" 
d="M432 872c17.333 -4.66699 28.668 -16.333 34.001 -35c-32.667 -37.333 -81.334 -56 -146.001 -56c-65.333 0 -114 18.667 -146 56c5.33301 17.333 16.333 29 33 35c29.333 -24 67 -36 113 -36s83.333 12 112 36zM283.002 714.001c10.667 4 24.334 6 41.001 6
c17.333 0 31 -2 41 -6l265 -708c-8.66699 -4 -22.334 -6 -41.001 -6c-16 0 -28 2 -36 6l-72 191h-319l-73 -191c-8 -4 -20 -6 -36 -6s-27.667 2 -35 6zM320.002 634.001c-4 -20 -10.667 -43 -20 -69l-116 -306h275l-116 306c-9.33301 26.667 -16 49.667 -20 69h-3z" />
    <glyph glyph-name="abreve" unicode="&#x103;" horiz-adv-x="515" 
d="M365 716c16.667 -6 27.666 -18 32.999 -36c-31.333 -40 -78.666 -60 -141.999 -60c-62.667 0 -110 20 -142 60c6 18 17 30 33 36c28 -24.667 64.333 -37 109 -37s81 12.333 109 37zM256.999 536c68.667 0 116.666 -16.999 143.999 -50.999c24.667 -30.667 37 -81 37 -151
v-329c-6 -3.33301 -15.667 -5 -29 -5c-12 0 -21.667 1.66699 -29 5l-11 75c-28.667 -60 -84.667 -90 -168 -90c-47.333 0 -84.666 13.667 -111.999 41c-28.667 28 -43 67.667 -43 119c0 104 63 156 189 156c42.667 0 86.334 -2.66699 131.001 -8v59
c0 78 -39.333 117 -118 117c-50 0 -96.667 -8.33301 -140 -25c-6.66699 3.33301 -12.334 10.666 -17.001 21.999c-3.33301 8.66699 -5 19 -5 31c50.667 22.667 107.667 34 171 34zM365.998 246.001c-61.333 5.33301 -101.667 8 -121 8c-82.667 0 -124 -34.667 -124 -104
c0 -68 34.333 -102 103 -102c43.333 0 78 15 104 45c25.333 29.333 38 67 38 113v40z" />
    <glyph glyph-name="Aogonek" unicode="&#x104;" horiz-adv-x="648" 
d="M612 -131c8.66699 -6.66699 12.999 -17.334 12.999 -32.001c-17.333 -11.333 -38.333 -17 -63 -17c-28 0 -50.333 7.66699 -67 23s-25 36 -25 62c0 49.333 27 84.333 81 105l-70 187h-319l-73 -191c-8 -4 -20 -6 -36 -6s-27.667 2 -35 6l265 708
c10.667 4 24.334 6 41.001 6c17.333 0 31 -2 41 -6l265 -708l-9 -3c-66 -13.333 -99 -43.666 -99 -90.999c0 -34 18 -51 54 -51c14 0 26 2.66699 36 8zM342.999 565c-9.33301 26.667 -16 49.667 -20 69h-3c-4 -20 -10.667 -43 -20 -69l-116 -306h275z" />
    <glyph glyph-name="aogonek" unicode="&#x105;" horiz-adv-x="515" 
d="M257 536c68.667 0 116.665 -16.998 143.998 -50.998c24.667 -30.667 37 -81 37 -151v-330c-68 -18 -102 -51 -102 -99c0 -28.667 17.667 -43 53 -43c14 0 26.667 2.33301 38 7c8.66699 -6.66699 13 -18.334 13 -35.001c-17.333 -11.333 -38.666 -17 -63.999 -17
c-63.333 0 -95 26.333 -95 79c0 50 33 89 99 117l-11 67c-28.667 -60 -84.667 -90 -168 -90c-47.333 0 -84.666 13.667 -111.999 41c-28.667 28 -43 67.667 -43 119c0 104 63 156 189 156c42.667 0 86.334 -2.66699 131.001 -8v55c0 42.667 -9.33301 73.667 -28 93
c-18.667 18.667 -48.667 28 -90 28c-50 0 -96.667 -8.33301 -140 -25c-6.66699 3.33301 -12.334 10.666 -17.001 21.999c-3.33301 8.66699 -5 19 -5 31c50.667 22.667 107.667 34 171 34zM365.998 246.002c-61.333 5.33301 -101.668 8 -121.001 8
c-82.667 0 -124 -34.667 -124 -104c0 -68 34.333 -102 103 -102c42.667 0 77.334 16 104.001 48c25.333 30 38 67.667 38 113v37z" />
    <glyph glyph-name="Cacute" unicode="&#x106;" horiz-adv-x="560" 
d="M321 756c-20.667 2 -35 10 -43 24l104 144c30 2.66699 51.333 -7 64 -29zM65 360c0 246.667 93.001 370 279.001 370c73.333 0 129.666 -11 168.999 -33c0.666992 -21.333 -7 -40 -23 -56c-38 16.667 -83.667 25 -137 25c-68 0 -118.667 -21.333 -152 -64
c-38.667 -49.333 -58 -130.333 -58 -243s19.333 -193 58 -241c33.333 -41.333 84 -62 152 -62c58.667 0 108 8.33301 148 25c14 -14 21.667 -33 23 -57c-41.333 -22.667 -101.333 -34 -180 -34c-186 0 -279 123.333 -279 370z" />
    <glyph glyph-name="cacute" unicode="&#x107;" horiz-adv-x="446" 
d="M226 607c-20.667 2 -35 10 -43 24l104 144c30 2.66699 51.333 -7 64 -29zM131 263c0 -139.333 52.333 -209 157 -209c38.667 0 71 6.33301 97 19c14 -11.333 21.667 -29 23 -53c-30.667 -20 -76.334 -30 -137.001 -30c-143.333 0 -215 91 -215 273s71.667 273 215 273
c58 0 100 -8 126 -24c0 -23.333 -7.33301 -41.333 -22 -54c-23.333 11.333 -53.666 17 -90.999 17c-102 0 -153 -70.667 -153 -212z" />
    <glyph glyph-name="Ccircumflex" unicode="&#x108;" horiz-adv-x="560" 
d="M496 786c-8.66699 -19.333 -20 -30.667 -34 -34l-112 78l-110 -79c-16 6 -27.333 17.667 -34 35l132 108h26zM65 359.999c0 246.667 93.001 370 279.001 370c73.333 0 129.666 -11 168.999 -33c0.666992 -20 -7 -38.667 -23 -56c-38 16.667 -83.667 25 -137 25
c-68 0 -118.667 -21.333 -152 -64c-38.667 -49.333 -58 -130.333 -58 -243s19.333 -193 58 -241c33.333 -41.333 84 -62 152 -62c58.667 0 108 8.33301 148 25c14 -13.333 21.667 -32.333 23 -57c-41.333 -22.667 -101.333 -34 -180 -34c-186 0 -279 123.333 -279 370z" />
    <glyph glyph-name="ccircumflex" unicode="&#x109;" horiz-adv-x="446" 
d="M402 638c-8 -18 -19.334 -29.332 -34.001 -33.999l-108 77l-108 -77c-15.333 5.33301 -26.666 16.666 -33.999 33.999l129 106h25zM130.999 263.001c0 -139.333 52.333 -209 157 -209c38.667 0 71 6.33301 97 19c14 -11.333 21.667 -29 23 -53
c-30.667 -20 -76.334 -30 -137.001 -30c-143.333 0 -215 91 -215 273s71.667 273 215 273c58 0 100 -8 126 -24c0 -23.333 -7.33301 -41.333 -22 -54c-23.333 11.333 -53.666 17 -90.999 17c-102 0 -153 -70.667 -153 -212z" />
    <glyph glyph-name="Cdotaccent" unicode="&#x10a;" horiz-adv-x="560" 
d="M385 785c-8.66699 -3.33301 -21.334 -5 -38.001 -5c-18 0 -30.667 1.66699 -38 5v68c7.33301 2.66699 20 4 38 4c16.667 0 29.334 -1.33301 38.001 -4v-68zM65 360c0 246.667 93.001 370 279.001 370c73.333 0 129.666 -11 168.999 -33c0.666992 -22 -7 -40.667 -23 -56
c-38 16.667 -83.667 25 -137 25c-68 0 -118.667 -21.333 -152 -64c-38.667 -49.333 -58 -130.333 -58 -243s19.333 -193 58 -241c33.333 -41.333 84 -62 152 -62c58.667 0 108 8.33301 148 25c14 -14 21.667 -33 23 -57c-41.333 -22.667 -101.333 -34 -180 -34
c-186 0 -279 123.333 -279 370z" />
    <glyph glyph-name="cdotaccent" unicode="&#x10b;" horiz-adv-x="446" 
d="M299 641c-8.66699 -3.33301 -21.334 -5 -38.001 -5c-17.333 0 -30 1.66699 -38 5v68c8 2.66699 20.667 4 38 4c16.667 0 29.334 -1.33301 38.001 -4v-68zM131 263c0 -139.333 52.333 -209 157 -209c38.667 0 71 6.33301 97 19c14 -11.333 21.667 -29 23 -53
c-30.667 -20 -76.334 -30 -137.001 -30c-143.333 0 -215 91 -215 273s71.667 273 215 273c58 0 100 -8 126 -24c0 -23.333 -7.33301 -41.333 -22 -54c-23.333 11.333 -53.666 17 -90.999 17c-102 0 -153 -70.667 -153 -212z" />
    <glyph glyph-name="Ccaron" unicode="&#x10c;" horiz-adv-x="560" 
d="M199 871c8 18 19.333 29.667 34 35l112 -79l110 78c14.667 -4.66699 26 -16 34 -34l-131 -108h-26zM65 360c0 246.667 93.001 370 279.001 370c73.333 0 129.666 -11 168.999 -33c0.666992 -21.333 -7 -40 -23 -56c-38 16.667 -83.667 25 -137 25
c-68 0 -118.667 -21.333 -152 -64c-38.667 -49.333 -58 -130.333 -58 -243s19.333 -193 58 -241c33.333 -41.333 84 -62 152 -62c58.667 0 108 8.33301 148 25c14 -14 21.667 -33 23 -57c-41.333 -22.667 -101.333 -34 -180 -34c-186 0 -279 123.333 -279 370z" />
    <glyph glyph-name="ccaron" unicode="&#x10d;" horiz-adv-x="446" 
d="M136 702c6.66699 16 17.333 27.001 32 33.001l102 -73l101 72c12.667 -4.66699 23 -15.334 31 -32.001l-121 -100h-23zM130.999 263.001c0 -139.333 52.333 -209 157 -209c38.667 0 71 6.33301 97 19c14 -11.333 21.667 -29 23 -53c-30.667 -20 -76.334 -30 -137.001 -30
c-143.333 0 -215 91 -215 273s71.667 273 215 273c58 0 100 -8 126 -24c0 -23.333 -7.33301 -41.333 -22 -54c-23.333 11.333 -53.666 17 -90.999 17c-102 0 -153 -70.667 -153 -212z" />
    <glyph glyph-name="Dcaron" unicode="&#x10e;" horiz-adv-x="661" 
d="M145 871c6.66699 17.333 18 29 34 35l112 -79l110 78c14.667 -4.66699 26 -16 34 -34l-132 -108h-26zM305 720c98 0 170 -25.999 216 -77.999c50 -57.333 75 -151.333 75 -282s-25 -224.334 -75 -281.001c-46 -52.667 -118 -79 -216 -79h-209v720h209zM299 63.001
c74 0 127.333 19.668 160 59.001c38.667 45.333 58 124.666 58 237.999c0 114 -19.333 193.667 -58 239c-32.667 38.667 -86 58 -160 58h-129v-594h129z" />
    <glyph glyph-name="dcaron" unicode="&#x10f;" horiz-adv-x="568" 
d="M573 748c26.667 6.66699 48 4.33301 64 -7c-2.66699 -74.667 -29 -127.667 -79 -159c-16 2 -27.333 8.33301 -34 19c36.667 38.667 53 87.667 49 147zM403 744.999c7.33301 3.33301 19.334 5 36.001 5s28.667 -1.66699 36 -5v-740c-8 -3.33301 -18 -5 -30 -5
c-12.667 0 -23.334 1.66699 -32.001 5l-7 67c-32 -54.667 -84.333 -82 -157 -82c-128 0 -192 91 -192 273s64 273 192 273c70.667 0 122 -26 154 -78v287zM403.001 327.999c-0.666992 39.333 -12 73 -34 101c-24 30.667 -56 46 -96 46c-49.333 0 -85 -15.667 -107 -47
c-22.667 -32.667 -34 -87.667 -34 -165s11.333 -132.333 34 -165c22 -31.333 57.667 -47 107 -47c40 0 72.333 15.667 97 47c22 28 33 62 33 102v128z" />
    <glyph glyph-name="Dcroat" unicode="&#x110;" horiz-adv-x="670" 
d="M319 720c98 0 170 -25.999 216 -77.999c50 -57.333 75 -151.333 75 -282s-25 -224.334 -75 -281.001c-46 -52.667 -118 -79 -216 -79h-209v330h-82c-6 18 -6 35.667 0 53h82v337h209zM184 383.001l156 0.00195312c4.66699 -16.667 4.66699 -34.334 0 -53.001h-156v-267
h129c74 0 127.333 19.667 160 59c38.667 45.333 58 124.666 58 237.999c0 114 -19.333 193.667 -58 239c-32.667 38.667 -86 58 -160 58h-129v-274z" />
    <glyph glyph-name="dcroat" unicode="&#x111;" horiz-adv-x="555" 
d="M545 668c2 -5.33301 3.00098 -13.333 3.00098 -24s-1 -18.667 -3 -24h-70v-615c-8 -3.33301 -18 -5 -30 -5c-12.667 0 -23.334 1.66699 -32.001 5l-7 67c-32 -54.667 -84.333 -82 -157 -82c-128 0 -192 91 -192 273s64 273 192 273c70.667 0 122 -26 154 -78v162h-135
c-2.66699 5.33301 -4 13.333 -4 24s1.33301 18.667 4 24h135v77c7.33301 3.33301 19.333 5 36 5s28.667 -1.66699 36 -5v-77h70zM403.001 328c-0.666992 39.333 -12 73 -34 101c-24 30.667 -56 46 -96 46c-49.333 0 -85 -15.667 -107 -47
c-22.667 -32.667 -34 -87.667 -34 -165s11.333 -132.333 34 -165c22 -31.333 57.667 -47 107 -47c40 0 72.333 15.667 97 47c22 28 33 62 33 102v128z" />
    <glyph glyph-name="Emacron" unicode="&#x112;" horiz-adv-x="555" 
d="M151 788c-5.33301 16.667 -5.33301 33 0 49h284c5.33301 -14.667 5.33301 -31 0 -49h-284zM493 720c4 -8.66699 6 -18.666 6 -29.999c0 -12 -2 -22.667 -6 -32h-323v-263h273c4 -8.66699 6 -18.334 6 -29.001c0 -11.333 -2 -22 -6 -32h-273v-272h333
c4 -8.66699 6 -18.667 6 -30s-2 -22 -6 -32h-407v720h397z" />
    <glyph glyph-name="emacron" unicode="&#x113;" horiz-adv-x="512" 
d="M149 639c-5.33301 16.667 -5.33301 33 0 49h249c6.66699 -18.667 6.66699 -35 0 -49h-249zM131 240c3.33301 -66.667 17.998 -114.666 43.998 -143.999c24 -28 61 -42 111 -42c50.667 0 91.334 11 122.001 33c16 -12.667 24.667 -30.334 26 -53.001
c-36.667 -29.333 -90.667 -44 -162 -44c-144 0 -216 92 -216 276c0 91.333 20 160 60 206c36.667 42.667 88.334 64 155.001 64c60 0 106.667 -17.333 140 -52c33.333 -34 50 -81.333 50 -142c0 -41.333 -3.66699 -75.333 -11 -102h-319zM270.998 477.001
c-88 0 -134.667 -61 -140 -183h253c2.66699 13.333 4 32.333 4 57c0 84 -39 126 -117 126z" />
    <glyph glyph-name="Ebreve" unicode="&#x114;" horiz-adv-x="555" 
d="M292 787c-65.333 0 -114.333 18.667 -147 56c5.33301 17.333 16.666 29 33.999 35c28.667 -24 66.334 -36 113.001 -36c46 0 83.333 12 112 36c18 -5.33301 29 -17 33 -35c-32.667 -37.333 -81 -56 -145 -56zM493 720c4 -8.66699 6 -18.666 6 -29.999
c0 -12 -2 -22.667 -6 -32h-323v-263h273c4 -8.66699 6 -18.334 6 -29.001c0 -11.333 -2 -22 -6 -32h-273v-272h333c4 -8.66699 6 -18.667 6 -30s-2 -22 -6 -32h-407v720h397z" />
    <glyph glyph-name="ebreve" unicode="&#x115;" horiz-adv-x="512" 
d="M269 620c-62.667 0 -110.001 20 -142.001 60c6 18 17 30 33 36c28 -24.667 64.333 -37 109 -37s81 12.333 109 37c16.667 -6 27.667 -18 33 -36c-31.333 -40 -78.666 -60 -141.999 -60zM130.999 240c3.33301 -66.667 17.998 -114.666 43.998 -143.999
c24 -28 61 -42 111 -42c50.667 0 91.334 11 122.001 33c16 -12.667 24.667 -30.334 26 -53.001c-36.667 -29.333 -90.667 -44 -162 -44c-144 0 -216 92 -216 276c0 91.333 20 160 60 206c36.667 42.667 88.334 64 155.001 64c60 0 106.667 -17.333 140 -52
c33.333 -34 50 -81.333 50 -142c0 -41.333 -3.66699 -75.333 -11 -102h-319zM270.997 477.001c-88 0 -134.667 -61 -140 -183h253c2.66699 13.333 4 32.333 4 57c0 84 -39 126 -117 126z" />
    <glyph glyph-name="Edotaccent" unicode="&#x116;" horiz-adv-x="555" 
d="M335 785c-9.33301 -3.33301 -22 -5 -38 -5c-18 0 -31 1.66699 -39 5v68c8 2.66699 21 4 39 4c16 0 28.667 -1.33301 38 -4v-68zM493 720c4 -8.66699 6 -18.666 6 -29.999c0 -12 -2 -22.667 -6 -32h-323v-263h273c4 -8.66699 6 -18.334 6 -29.001c0 -11.333 -2 -22 -6 -32
h-273v-272h333c4 -8.66699 6 -18.667 6 -30s-2 -22 -6 -32h-407v720h397z" />
    <glyph glyph-name="edotaccent" unicode="&#x117;" horiz-adv-x="512" 
d="M308 636c-8.66699 -3.33301 -21.334 -5 -38.001 -5c-17.333 0 -30 1.66699 -38 5v68c8 3.33301 20.667 5 38 5c16.667 0 29.334 -1.66699 38.001 -5v-68zM131 240c3.33301 -66.667 17.998 -114.666 43.998 -143.999c24 -28 61 -42 111 -42c50.667 0 91.334 11 122.001 33
c16 -12.667 24.667 -30.334 26 -53.001c-36.667 -29.333 -90.667 -44 -162 -44c-144 0 -216 92 -216 276c0 91.333 20 160 60 206c36.667 42.667 88.334 64 155.001 64c60 0 106.667 -17.333 140 -52c33.333 -34 50 -81.333 50 -142c0 -41.333 -3.66699 -75.333 -11 -102
h-319zM270.998 477.001c-88 0 -134.667 -61 -140 -183h253c2.66699 13.333 4 32.333 4 57c0 84 -39 126 -117 126z" />
    <glyph glyph-name="Eogonek" unicode="&#x118;" horiz-adv-x="555" 
d="M493 720c4 -8.66699 6 -18.665 6 -29.998c0 -12 -2 -22.667 -6 -32h-323v-263h273c4 -8.66699 6 -18.334 6 -29.001c0 -11.333 -2 -22 -6 -32h-273v-272h333c4 -8.66699 6 -18.667 6 -30s-2 -22 -6 -32c-77.333 -10 -116 -40.667 -116 -92c0 -34 18 -51 54 -51
c14 0 26 2.66699 36 8c8.66699 -6.66699 13 -17.334 13 -32.001c-18 -12 -39.333 -18 -64 -18c-27.333 0 -49.333 7.66699 -66 23s-25 36 -25 62c0 46.667 22.333 80 67 100h-306v720h397z" />
    <glyph glyph-name="eogonek" unicode="&#x119;" horiz-adv-x="512" 
d="M116 472c36.667 42.667 88.332 64.001 154.999 64.001c60 0 106.667 -17.333 140 -52c33.333 -34 50 -81.333 50 -142c0 -41.333 -3.66699 -75.333 -11 -102h-319c3.33301 -66.667 18 -114.667 44 -144c24 -28 61 -42 111 -42c50.667 0 91.334 11 122.001 33
c16 -12.667 24.667 -30.334 26 -53.001c-18.667 -15.333 -46 -27 -82 -35c-59.333 -16 -89 -49 -89 -99c0 -26 18 -39 54 -39c14 0 26 2.66699 36 8c8.66699 -6.66699 13 -18 13 -34c-18 -11.333 -39.333 -17 -64 -17c-61.333 0 -92 24.667 -92 74c0 42 17 74.667 51 98
c-136.667 5.33301 -205 97.333 -205 276c0 91.333 20 160 60 206zM270.998 477.001c-88 0 -134.667 -61 -140 -183h253c2.66699 13.333 4 32.333 4 57c0 84 -39 126 -117 126z" />
    <glyph glyph-name="Ecaron" unicode="&#x11a;" horiz-adv-x="555" 
d="M136 871c8 18 19.333 29.667 34 35l112 -79l110 78c14.667 -4.66699 26 -16 34 -34l-131 -108h-26zM493 720c4 -8.66699 6 -18.666 6 -29.999c0 -12 -2 -22.667 -6 -32h-323v-263h273c4 -8.66699 6 -18.334 6 -29.001c0 -11.333 -2 -22 -6 -32h-273v-272h333
c4 -8.66699 6 -18.667 6 -30s-2 -22 -6 -32h-407v720h397z" />
    <glyph glyph-name="ecaron" unicode="&#x11b;" horiz-adv-x="512" 
d="M130 705c6.66699 17.333 17.667 28.333 33 33l106 -76l105 75c14 -4 24.667 -14.667 32 -32l-125 -103h-25zM131 240c3.33301 -66.667 17.998 -114.666 43.998 -143.999c24 -28 61 -42 111 -42c50.667 0 91.334 11 122.001 33c16 -12.667 24.667 -30.334 26 -53.001
c-36.667 -29.333 -90.667 -44 -162 -44c-144 0 -216 92 -216 276c0 91.333 20 160 60 206c36.667 42.667 88.334 64 155.001 64c60 0 106.667 -17.333 140 -52c33.333 -34 50 -81.333 50 -142c0 -41.333 -3.66699 -75.333 -11 -102h-319zM270.998 477.001
c-88 0 -134.667 -61 -140 -183h253c2.66699 13.333 4 32.333 4 57c0 84 -39 126 -117 126z" />
    <glyph glyph-name="Gcircumflex" unicode="&#x11c;" horiz-adv-x="624" 
d="M518 798c-8 -18.667 -19.333 -30.333 -34 -35l-112 79l-110 -79c-16.667 6 -28 17.667 -34 35l132 108h26zM64 360.001c0 121.333 25.332 213.666 75.999 276.999c49.333 62 121.666 93 216.999 93c78 0 139.667 -11 185 -33c-1.33301 -23.333 -9 -41.666 -23 -54.999
c-46 16 -97 24 -153 24c-149.333 0 -224 -102.333 -224 -307c0 -112 21.333 -192.667 64 -242c36 -41.333 89.333 -62 160 -62c40.667 0 79.334 4.33301 116.001 13v259h-164c-4 8 -6 18.333 -6 31c0 14 2 24.333 6 31h235v-366c-49.333 -22 -114.666 -33 -195.999 -33
c-195.333 0 -293 123.333 -293 370z" />
    <glyph glyph-name="gcircumflex" unicode="&#x11d;" horiz-adv-x="525" 
d="M388 636c-8.66699 -18.667 -19.667 -29.667 -33 -33l-109 76l-108 -77c-16 6 -27 17.333 -33 34l129 106h25zM59 360c0 54.667 16.334 97.667 49.001 129c33.333 31.333 80 47 140 47c41.333 0 77.333 -8 108 -24l136 23c8 -20 8 -40.333 0 -61l-90 -2
c23.333 -28.667 35 -66 35 -112c0 -55.333 -16 -98 -48 -128c-33.333 -31.333 -80.333 -47 -141 -47c-22.667 0 -40.334 1.66699 -53.001 5c-18.667 -24.667 -27.667 -49.334 -27 -74.001c1.33301 -22 19 -37.333 53 -46l111 -16c49.333 -7.33301 86 -19 110 -35
c32.667 -22.667 49 -56.667 49 -102c0 -48.667 -21.333 -88 -64 -118c-45.333 -32.667 -107.333 -49 -186 -49c-68.667 0 -120.667 13.667 -156 41c-32.667 24.667 -49 58.334 -49 101.001c0 58.667 29.333 106.667 88 144c-15.333 15.333 -23 34.666 -23 57.999
c0 34.667 15.667 71.334 47 110.001c-59.333 27.333 -89 79.333 -89 156zM130.001 361c0 -82 39.333 -123 118 -123s118 41 118 123c0 81.333 -39.333 122 -118 122s-118 -40.667 -118 -122zM374.001 -167c31.333 19.333 46.999 44.668 46.999 76.001
c0 41.333 -30.667 67.666 -92 78.999c-9.33301 2 -37 5.66699 -83 11c-34 4 -60 9 -78 15c-40 -28 -60 -64 -60 -108c0 -68 45 -102 135 -102c54.667 0 98.334 9.66699 131.001 29z" />
    <glyph glyph-name="Gbreve" unicode="&#x11e;" horiz-adv-x="624" 
d="M362 781c-65.333 0 -114.332 18.667 -146.999 56c5.33301 17.333 16.666 29 33.999 35c29.333 -24 67 -36 113 -36s83.333 12 112 36c18 -5.33301 29 -17 33 -35c-32.667 -37.333 -81 -56 -145 -56zM64.001 360c0 121.333 25.332 213.666 75.999 276.999
c49.333 62 121.666 93 216.999 93c78 0 139.667 -11 185 -33c-1.33301 -23.333 -9 -41.666 -23 -54.999c-46 16 -97 24 -153 24c-149.333 0 -224 -102.333 -224 -307c0 -112 21.333 -192.667 64 -242c36 -41.333 89.333 -62 160 -62c40.667 0 79.334 4.33301 116.001 13v259
h-164c-4 8 -6 18.333 -6 31c0 14 2 24.333 6 31h235v-366c-49.333 -22 -114.666 -33 -195.999 -33c-195.333 0 -293 123.333 -293 370z" />
    <glyph glyph-name="gbreve" unicode="&#x11f;" horiz-adv-x="525" 
d="M251 620c-62.667 0 -110.001 20 -142.001 60c6 18 17 30 33 36c28 -24.667 64.333 -37 109 -37s81 12.333 109 37c16.667 -6 27.667 -18 33 -36c-31.333 -40 -78.666 -60 -141.999 -60zM58.999 360c0 54.667 16.334 97.667 49.001 129c33.333 31.333 80 47 140 47
c41.333 0 77.333 -8 108 -24l136 23c8 -20 8 -40 0 -60l-90 -3c23.333 -28.667 35 -66 35 -112c0 -55.333 -16 -98 -48 -128c-33.333 -31.333 -80.333 -47 -141 -47c-22.667 0 -40.334 1.66699 -53.001 5c-18.667 -24.667 -27.667 -49.334 -27 -74.001
c1.33301 -22 19 -37.333 53 -46l111 -16c49.333 -7.33301 86 -19 110 -35c32.667 -22.667 49 -56.667 49 -102c0 -48.667 -21.333 -88 -64 -118c-45.333 -32.667 -107.333 -49 -186 -49c-68.667 0 -120.667 13.667 -156 41c-32.667 24.667 -49 58.334 -49 101.001
c0 58.667 29.333 106.667 88 144c-15.333 15.333 -23 34.666 -23 57.999c0 34.667 15.667 71.334 47 110.001c-59.333 27.333 -89 79.333 -89 156zM130 361c0 -82 39.333 -123 118 -123s118 41 118 123c0 81.333 -39.333 122 -118 122s-118 -40.667 -118 -122zM374 -167
c31.333 19.333 46.999 44.668 46.999 76.001c0 41.333 -30.667 67.666 -92 78.999c-9.33301 2 -37 5.66699 -83 11c-34 4 -60 9 -78 15c-40 -28 -60 -64 -60 -108c0 -68 45 -102 135 -102c54.667 0 98.334 9.66699 131.001 29z" />
    <glyph glyph-name="Gdotaccent" unicode="&#x120;" horiz-adv-x="624" 
d="M397 785c-8.66699 -3.33301 -21.334 -5 -38.001 -5c-17.333 0 -30 1.66699 -38 5v68c8 2.66699 20.667 4 38 4c16.667 0 29.334 -1.33301 38.001 -4v-68zM64 360c0 121.333 25.332 213.666 75.999 276.999c49.333 62 121.666 93 216.999 93c78 0 139.667 -11 185 -33
c-1.33301 -23.333 -9 -41.666 -23 -54.999c-46 16 -97 24 -153 24c-149.333 0 -224 -102.333 -224 -307c0 -112 21.333 -192.667 64 -242c36 -41.333 89.333 -62 160 -62c40.667 0 79.334 4.33301 116.001 13v259h-164c-4 8 -6 18.333 -6 31c0 14 2 24.333 6 31h235v-366
c-49.333 -22 -114.666 -33 -195.999 -33c-195.333 0 -293 123.333 -293 370z" />
    <glyph glyph-name="gdotaccent" unicode="&#x121;" horiz-adv-x="525" 
d="M290 635c-8.66699 -3.33301 -21.334 -5 -38.001 -5c-17.333 0 -30 1.66699 -38 5v68c8 3.33301 20.667 5 38 5c16.667 0 29.334 -1.66699 38.001 -5v-68zM59 360c0 54.667 16.334 97.667 49.001 129c33.333 31.333 80 47 140 47c41.333 0 77.333 -8 108 -24l136 23
c8 -20 8 -40.333 0 -61l-90 -2c23.333 -28.667 35 -66 35 -112c0 -55.333 -16 -98 -48 -128c-33.333 -31.333 -80.333 -47 -141 -47c-22.667 0 -40.334 1.66699 -53.001 5c-18.667 -24.667 -27.667 -49.334 -27 -74.001c1.33301 -22 19 -37.333 53 -46l111 -16
c49.333 -7.33301 86 -19 110 -35c32.667 -22.667 49 -56.667 49 -102c0 -48.667 -21.333 -88 -64 -118c-45.333 -32.667 -107.333 -49 -186 -49c-68.667 0 -120.667 13.667 -156 41c-32.667 24.667 -49 58.334 -49 101.001c0 58.667 29.333 106.667 88 144
c-15.333 15.333 -23 34.666 -23 57.999c0 34.667 15.667 71.334 47 110.001c-59.333 27.333 -89 79.333 -89 156zM130.001 361c0 -82 39.333 -123 118 -123s118 41 118 123c0 81.333 -39.333 122 -118 122s-118 -40.667 -118 -122zM374.001 -167
c31.333 19.333 46.999 44.668 46.999 76.001c0 41.333 -30.667 67.666 -92 78.999c-9.33301 2 -37 5.66699 -83 11c-34 4 -60 9 -78 15c-40 -28 -60 -64 -60 -108c0 -68 45 -102 135 -102c54.667 0 98.334 9.66699 131.001 29z" />
    <glyph glyph-name="Gcommaaccent" unicode="&#x122;" horiz-adv-x="624" 
d="M64 360c0 121.333 25.332 213.667 75.999 277c49.333 62 121.666 93 216.999 93c78 0 139.667 -11 185 -33c-1.33301 -22.667 -9 -41 -23 -55c-46 16 -97 24 -153 24c-149.333 0 -224 -102.333 -224 -307c0 -112 21.333 -192.667 64 -242c36 -41.333 89.333 -62 160 -62
c40.667 0 79.334 4.33301 116.001 13v259h-164c-4 8 -6 18.333 -6 31c0 14 2 24.333 6 31h235v-366c-49.333 -22 -114.666 -33 -195.999 -33c-195.333 0 -293 123.333 -293 370zM307.999 -205.999c22 20 34.667 48.999 38 86.999c-13.333 0.666992 -23 2.33398 -29 5.00098
v68c10 3.33301 24.667 5 44 5c18.667 0 33 -1.66699 43 -5v-47c0 -57.333 -22 -101 -66 -131z" />
    <glyph glyph-name="gcommaaccent" unicode="&#x123;" horiz-adv-x="525" 
d="M299 759c-20.667 -19.333 -32.667 -46.666 -36 -81.999c12.667 -0.666992 22 -2.33398 28 -5.00098v-65c-9.33301 -2.66699 -23 -4 -41 -4s-32 1.33301 -42 4v45c0 54 20.667 95.333 62 124zM59 360c0 54.667 16.334 97.667 49.001 129c33.333 31.333 80 47 140 47
c41.333 0 77.333 -8 108 -24l136 23c8 -20 8 -40.333 0 -61l-90 -2c23.333 -28.667 35 -66 35 -112c0 -55.333 -16 -98 -48 -128c-33.333 -31.333 -80.333 -47 -141 -47c-22.667 0 -40.334 1.66699 -53.001 5c-18.667 -24.667 -27.667 -49.334 -27 -74.001
c1.33301 -22 19 -37.333 53 -46l111 -16c49.333 -7.33301 86 -19 110 -35c32.667 -22.667 49 -56.667 49 -102c0 -48.667 -21.333 -88 -64 -118c-45.333 -32.667 -107.333 -49 -186 -49c-68.667 0 -120.667 13.667 -156 41c-32.667 24.667 -49 58.334 -49 101.001
c0 58.667 29.333 106.667 88 144c-15.333 15.333 -23 34.666 -23 57.999c0 34.667 15.667 71.334 47 110.001c-59.333 27.333 -89 79.333 -89 156zM130.001 361c0 -82 39.333 -123 118 -123s118 41 118 123c0 81.333 -39.333 122 -118 122s-118 -40.667 -118 -122z
M374.001 -167c31.333 19.333 46.999 44.668 46.999 76.001c0 41.333 -30.667 67.666 -92 78.999c-9.33301 2 -37 5.66699 -83 11c-34 4 -60 9 -78 15c-40 -28 -60 -64 -60 -108c0 -68 45 -102 135 -102c54.667 0 98.334 9.66699 131.001 29z" />
    <glyph glyph-name="Hcircumflex" unicode="&#x124;" 
d="M491 798c-8 -18.667 -19.333 -30.333 -34 -35l-112 79l-110 -79c-16.667 6 -28 17.667 -34 35l132 108h26zM508 714.001c8.66699 4 21 6 37 6s28.333 -2 37 -6v-708c-8 -4 -20.333 -6 -37 -6c-18 0 -30.333 2 -37 6v330h-338v-330c-8.66699 -4 -21 -6 -37 -6
c-18 0 -30.333 2 -37 6v708c8.66699 4 21 6 37 6s28.333 -2 37 -6v-312h338v312z" />
    <glyph glyph-name="hcircumflex" unicode="&#x125;" horiz-adv-x="549" 
d="M260 798c-6.66699 -17.333 -17.667 -28.333 -33 -33l-107 76l-105 -76c-16 6 -27 17 -33 33l127 105h25zM472 5c-8.66699 -3.33301 -20.666 -5 -35.999 -5c-16.667 0 -28.667 1.66699 -36 5v367c0 69.333 -36 104 -108 104c-61.333 0 -108 -30.333 -140 -91v-380
c-8 -3.33301 -20 -5 -36 -5c-16.667 0 -28.667 1.66699 -36 5v740c7.33301 3.33301 19.333 5 36 5c16 0 28 -1.66699 36 -5v-287c41.333 52 96.666 78 165.999 78c48.667 0 86.667 -13.667 114 -41c26.667 -26.667 40 -63 40 -109v-381z" />
    <glyph glyph-name="Hbar" unicode="&#x126;" horiz-adv-x="692" 
d="M669 598c5.33301 -16 5.33301 -32.332 0 -48.999h-75v-543c-8 -4 -20.333 -6 -37 -6c-18 0 -30.333 2 -37 6v330h-338v-330c-8.66699 -4 -21 -6 -37 -6c-18 0 -30.333 2 -37 6v543h-65c-5.33301 17.333 -5.33301 33.666 0 48.999h65v116c8.66699 4 21 6 37 6
s28.333 -2 37 -6v-116h338v116c8.66699 4 21 6 37 6s28.333 -2 37 -6v-116h75zM182 402.001h338v147h-338v-147z" />
    <glyph glyph-name="hbar" unicode="&#x127;" horiz-adv-x="549" 
d="M156 458c41.333 52 96.667 77.999 166 77.999c48 0 86 -13.667 114 -41c26.667 -26.667 40 -63 40 -109v-381c-8.66699 -3.33301 -20.667 -5 -36 -5c-16.667 0 -28.667 1.66699 -36 5v367c0 69.333 -36 104 -108 104c-61.333 0 -108 -30.333 -140 -91v-380
c-8 -3.33301 -20 -5 -36 -5c-16.667 0 -28.667 1.66699 -36 5v614h-69c-6 18 -6 34.333 0 49h69v77c7.33301 3.33301 19.333 5 36 5c16 0 28 -1.66699 36 -5v-77h178c6.66699 -15.333 6.66699 -31.666 0 -48.999h-178v-161z" />
    <glyph glyph-name="Itilde" unicode="&#x128;" horiz-adv-x="266" 
d="M239 838c14.667 -6 23.666 -16.332 26.999 -30.999c-1.33301 -6 -8 -14 -20 -24c-17.333 -14 -36.333 -21 -57 -21c-18.667 0 -38.334 5.66699 -59.001 17c-20.667 10.667 -36.667 16 -48 16c-19.333 0 -34 -8.33301 -44 -25c-15.333 7.33301 -24.333 17.666 -27 30.999
c14.667 29.333 40.334 44 77.001 44c18.667 0 38 -5.33301 58 -16c20.667 -11.333 37 -17 49 -17c18.667 0 33.334 8.66699 44.001 26zM95.999 714.001c8 4 20.332 6 36.999 6s29 -2 37 -6v-708c-8.66699 -4 -21 -6 -37 -6c-17.333 0 -29.666 2 -36.999 6v708z" />
    <glyph glyph-name="itilde" unicode="&#x129;" horiz-adv-x="238" 
d="M203 702c14.667 -6 23.001 -17 25.001 -33c-12.667 -30 -35 -45 -67 -45c-15.333 0 -31.333 5.66699 -48 17c-17.333 10.667 -31 16 -41 16c-16 0 -28 -9 -36 -27c-16 8.66699 -24.333 19.667 -25 33c2 7.33301 8 15.333 18 24c14 12.667 30 19 48 19
c15.333 0 31.666 -5.33301 48.999 -16c16.667 -10.667 30 -16 40 -16c16 0 28.333 9.33301 37 28zM155.001 5c-8 -3.33301 -20 -5 -36 -5c-17.333 0 -29.333 1.66699 -36 5v516c6.66699 3.33301 18.667 5 36 5c16 0 28 -1.66699 36 -5v-516z" />
    <glyph glyph-name="Imacron" unicode="&#x12a;" horiz-adv-x="266" 
d="M-2 763c-7.33301 16.667 -7.33301 32.999 0 48.999h283c8 -15.333 8 -31.666 0 -48.999h-283zM101 713.999c8 4 20.332 6 36.999 6s29 -2 37 -6v-708c-8.66699 -4 -21 -6 -37 -6c-17.333 0 -29.666 2 -36.999 6v708z" />
    <glyph glyph-name="imacron" unicode="&#x12b;" horiz-adv-x="238" 
d="M30 648c-4.66699 16.667 -4.66699 32.334 0 47.001h186c4.66699 -16.667 4.66699 -32.334 0 -47.001h-186zM158 5c-8 -3.33301 -20 -5 -36 -5c-17.333 0 -29.333 1.66699 -36 5v516c6.66699 3.33301 18.667 5 36 5c16 0 28 -1.66699 36 -5v-516z" />
    <glyph glyph-name="Ibreve" unicode="&#x12c;" horiz-adv-x="266" 
d="M131 781c-64.667 0 -113.331 18.668 -145.998 56.001c5.33301 17.333 16.333 29 33 35c29.333 -24 67 -36 113 -36s83.333 12 112 36c17.333 -4.66699 28.666 -16.334 33.999 -35.001c-32.667 -37.333 -81.334 -56 -146.001 -56zM96.0029 714.001c8 4 20.332 6 36.999 6
s29 -2 37 -6v-708c-8.66699 -4 -21 -6 -37 -6c-17.333 0 -29.666 2 -36.999 6v708z" />
    <glyph glyph-name="ibreve" unicode="&#x12d;" horiz-adv-x="238" 
d="M118 622c-62.667 0 -110.001 20 -142.001 60c6 18.667 17 30.334 33 35.001c28 -24 64.333 -36 109 -36s81 12 109 36c16.667 -4.66699 27.667 -16.334 33 -35.001c-31.333 -40 -78.666 -60 -141.999 -60zM154.999 5c-8 -3.33301 -20 -5 -36 -5
c-17.333 0 -29.333 1.66699 -36 5v516c6.66699 3.33301 18.667 5 36 5c16 0 28 -1.66699 36 -5v-516z" />
    <glyph glyph-name="Iogonek" unicode="&#x12e;" horiz-adv-x="266" 
d="M170 5c-70 -18 -105.001 -48.666 -105.001 -91.999c0 -34 18 -51 54 -51c14 0 26 2.66699 36 8c8.66699 -6.66699 13 -17.334 13 -32.001c-17.333 -12 -38.666 -18 -63.999 -18c-27.333 0 -49.333 7.66699 -66 23s-25 36 -25 62c0 50 27.667 85.333 83 106v703
c8 4 20.333 6 37 6s29 -2 37 -6v-709z" />
    <glyph glyph-name="iogonek" unicode="&#x12f;" horiz-adv-x="238" 
d="M78 684c8.66699 3.33301 22.334 5 41.001 5c18 0 31.667 -1.66699 41 -5v-73c-9.33301 -3.33301 -23 -5 -41 -5c-18.667 0 -32.334 1.66699 -41.001 5v73zM83 521c6.66699 3.33301 18.667 5 36 5c16 0 28 -1.66699 36 -5v-516c-56 -19.333 -84 -53.333 -84 -102
c0 -28.667 18 -43 54 -43c14 0 26 2.66699 36 8c9.33301 -7.33301 13.333 -19.333 12 -36c-17.333 -11.333 -38.333 -17 -63 -17c-28.667 0 -51.667 6.66699 -69 20c-18.667 14.667 -28 34.667 -28 60c0 49.333 23.333 86.333 70 111v515z" />
    <glyph glyph-name="Idotaccent" unicode="&#x130;" horiz-adv-x="266" 
d="M93 848c8.66699 3.33301 22 5 40 5s31.667 -1.66699 41 -5v-73c-9.33301 -3.33301 -23 -5 -41 -5s-31.333 1.66699 -40 5v73zM96 714c8 4 20.332 6 36.999 6s29 -2 37 -6v-708c-8.66699 -4 -21 -6 -37 -6c-17.333 0 -29.666 2 -36.999 6v708z" />
    <glyph glyph-name="dotlessi" unicode="&#x131;" horiz-adv-x="238" 
d="M155 5c-8 -3.33301 -20 -5 -36 -5c-17.333 0 -29.333 1.66699 -36 5v516c6.66699 3.33301 18.667 5 36 5c16 0 28 -1.66699 36 -5v-516z" />
    <glyph glyph-name="IJ" unicode="&#x132;" horiz-adv-x="655" 
d="M96 714c8 4 20.332 6 36.999 6s29 -2 37 -6v-708c-8.66699 -4 -21 -6 -37 -6c-17.333 0 -29.666 2 -36.999 6v708zM489.999 714c6.66699 4 19 6 37 6c16 0 28.333 -2 37 -6v-540c0 -122.667 -59 -184 -177 -184c-51.333 0 -98.333 10 -141 30
c-1.33301 24 5.66699 43 21 57c34 -14 70 -21 108 -21c76.667 0 115 39.333 115 118v540z" />
    <glyph glyph-name="ij" unicode="&#x133;" horiz-adv-x="461" 
d="M160 640c-9.33301 -3.33301 -23 -5 -41 -5c-18.667 0 -32.334 1.66699 -41.001 5v73c8.66699 3.33301 22.334 5 41.001 5c18 0 31.667 -1.66699 41 -5v-73zM155 5c-8 -3.33301 -20 -5 -36 -5c-17.333 0 -29.333 1.66699 -36 5v516c6.66699 3.33301 18.667 5 36 5
c16 0 28 -1.66699 36 -5v-516zM382 642c-9.33301 -4 -22.666 -6 -39.999 -6c-18.667 0 -32.334 2 -41.001 6v73c8.66699 3.33301 22.334 5 41.001 5c17.333 0 30.666 -1.66699 39.999 -5v-73zM306 521c6.66699 3.33301 18.667 4.99902 36 4.99902c16 0 28 -1.66699 36 -5
v-609c0 -108 -46.667 -162 -140 -162c-28 0 -48.667 3 -62 9c-2 4.66699 -3 10.334 -3 17.001c0 16.667 2.66699 29 8 37c10.667 -2.66699 24 -4 40 -4c56.667 0 85 33 85 99v613z" />
    <glyph glyph-name="Jcircumflex" unicode="&#x134;" horiz-adv-x="432" 
d="M451 798c-8.66699 -18.667 -20 -30.333 -34 -35l-112 79l-110 -79c-16.667 6 -28 17.667 -34 35l132 108h26zM269 714.001c6.66699 4 18.999 6 36.999 6c16.667 0 29 -2 37 -6v-538c0 -124 -58.667 -186 -176 -186c-52 0 -99 10 -141 30
c-1.33301 23.333 5.33398 42.333 20.001 57c34 -14 70 -21 108 -21c76.667 0 115 39.333 115 118v540z" />
    <glyph glyph-name="jcircumflex" unicode="&#x135;" horiz-adv-x="238" 
d="M261 618c-8.66699 -19.333 -20 -30.667 -34 -34l-109 77l-108 -78c-16 6 -27 17.667 -33 35l129 105h26zM83 520.999c6.66699 3.33301 18.667 4.99902 36 4.99902c16 0 28 -1.66699 36 -5v-609c0 -108 -46.667 -162 -140 -162c-28 0 -48.667 3 -62 9
c-2 4.66699 -3 10.334 -3 17.001c0 16.667 2.66699 29 8 37c10.667 -2.66699 24 -4 40 -4c56.667 0 85 33 85 99v613z" />
    <glyph glyph-name="Kcommaaccent" unicode="&#x136;" horiz-adv-x="613" 
d="M488 714c10.667 4 23.3301 6 37.9971 6c16 0 29.333 -2 40 -6l-232 -332l261 -376c-9.33301 -4 -23.666 -6 -42.999 -6c-18 0 -32.667 2 -44 6l-235 337h-103v-337c-7.33301 -4 -19.666 -6 -36.999 -6c-16 0 -28.333 2 -37 6v708c8.66699 4 21.334 6 38.001 6
c16 0 28 -2 36 -6v-309h102zM270.996 -216c20.667 21.333 32.334 52.332 35.001 92.999c-12 0.666992 -20.667 2.33398 -26 5.00098v73c9.33301 3.33301 22.666 5 39.999 5c18 0 31.667 -1.66699 41 -5v-50c0 -62 -20.667 -109 -62 -141z" />
    <glyph glyph-name="kcommaaccent" unicode="&#x137;" horiz-adv-x="498" 
d="M384 521c9.33301 3.33301 22.335 5 39.002 5c14.667 0 26.334 -1.66699 35.001 -5l-162 -241l186 -274c-10.667 -4 -24.334 -6 -41.001 -6c-17.333 0 -31 2 -41 6l-164 240h-84v-241c-8.66699 -3.33301 -20.334 -5 -35.001 -5c-16 0 -28.333 1.66699 -37 5v741
c9.33301 2.66699 21.666 4 36.999 4c14 0 25.667 -1.33301 35 -4v-443h85zM223.002 -216c20 21.333 31.668 51.999 35.001 91.999c-12.667 0.666992 -21.667 2.33398 -27 5.00098v73c9.33301 3.33301 22.666 5 39.999 5c18 0 31.667 -1.66699 41 -5v-50
c0 -62 -20.333 -108.667 -61 -140z" />
    <glyph glyph-name="kgreenlandic" unicode="&#x138;" horiz-adv-x="507" 
d="M491 8c-9.33301 -5.33301 -23.334 -8 -42.001 -8c-19.333 0 -33.666 2 -42.999 6l-173 242l-81 -94v-148c-10 -4 -21.667 -6 -35 -6c-14.667 0 -27 2 -37 6v516c8.66699 2.66699 21 4 37 4s27.667 -1.33301 35 -4v-276l238 276c10.667 2.66699 23.667 4 39 4
c16.667 0 30 -1.66699 40 -5l-186 -215z" />
    <glyph glyph-name="Lacute" unicode="&#x139;" horiz-adv-x="513" 
d="M120 756c-20.667 2 -35 10 -43 24l104 144c30 2.66699 51.333 -7 64 -29zM96 714c8.66699 4 21 6 37 6c16.667 0 29 -2 37 -6v-649h313c3.33301 -11.333 5 -22 5 -32c0 -8.66699 -1.66699 -19.667 -5 -33h-387v714z" />
    <glyph glyph-name="lacute" unicode="&#x13a;" horiz-adv-x="242" 
d="M97 777c-20.667 2 -35 10 -43 24l104 144c30 2.66699 51.333 -7 64 -29zM157 5c-8 -3.33301 -20 -5 -36 -5c-17.333 0 -29.333 1.66699 -36 5v740c6.66699 3.33301 18.667 5 36 5c16 0 28 -1.66699 36 -5v-740z" />
    <glyph glyph-name="Lcommaaccent" unicode="&#x13b;" horiz-adv-x="513" 
d="M96 714c8.66699 4 21 6 37 6c16.667 0 29 -2 37 -6v-649h313c3.33301 -11.333 5 -22 5 -32c0 -8.66699 -1.66699 -19.667 -5 -33h-387v714zM247 -216c20.667 21.333 32.333 52.332 35 92.999c-12 0.666992 -21 2.33398 -27 5.00098v73c9.33301 3.33301 23 5 41 5
s31.333 -1.66699 40 -5v-50c0 -62 -20.333 -109 -61 -141z" />
    <glyph glyph-name="lcommaaccent" unicode="&#x13c;" horiz-adv-x="242" 
d="M157 5c-8 -3.33301 -20 -5 -36 -5c-17.333 0 -29.333 1.66699 -36 5v740c6.66699 3.33301 18.667 5 36 5c16 0 28 -1.66699 36 -5v-740zM73 -216c20 21.333 31.668 52.332 35.001 92.999c-12.667 0.666992 -21.667 2.33398 -27 5.00098v73
c9.33301 3.33301 22.666 5 39.999 5c18 0 31.667 -1.66699 41 -5v-50c0 -62 -20.333 -109 -61 -141z" />
    <glyph glyph-name="Lcaron" unicode="&#x13d;" horiz-adv-x="512" 
d="M258 607c40.667 35.333 62.001 82.667 64.001 142c28 2 49 -2.66699 63 -14c-9.33301 -73.333 -41 -123.333 -95 -150c-14.667 2.66699 -25.334 10 -32.001 22zM96.001 714.001c8.66699 4 21 6 37 6c16.667 0 29 -2 37 -6v-649h313c3.33301 -11.333 5 -22 5 -32
c0 -8.66699 -1.66699 -19.667 -5 -33h-387v714z" />
    <glyph glyph-name="lcaron" unicode="&#x13e;" horiz-adv-x="250" 
d="M206 601c37.333 39.333 53.667 88.333 49 147c26.667 6 48 3.66699 64 -7c-2.66699 -75.333 -29 -128.333 -79 -159c-16 2 -27.333 8.33301 -34 19zM157.001 5c-8 -3.33301 -20 -5 -36 -5c-17.333 0 -29.333 1.66699 -36 5v740c6.66699 3.33301 18.667 5 36 5
c16 0 28 -1.66699 36 -5v-740z" />
    <glyph glyph-name="Ldot" unicode="&#x13f;" horiz-adv-x="521" 
d="M96 714c8.66699 4 21 6 37 6c16.667 0 29 -2 37 -6v-649h313c3.33301 -11.333 5 -22 5 -32c0 -8.66699 -1.66699 -19.667 -5 -33h-387v714zM424 302c-8.66699 -4 -21 -6 -37 -6c-16.667 0 -29 2 -37 6v65c8 3.33301 20.333 5 37 5c16 0 28.333 -1.66699 37 -5v-65z" />
    <glyph glyph-name="ldot" unicode="&#x140;" horiz-adv-x="337" 
d="M157 5c-8 -3.33301 -20 -5 -36 -5c-17.333 0 -29.333 1.66699 -36 5v740c6.66699 3.33301 18.667 5 36 5c16 0 28 -1.66699 36 -5v-740zM336 302c-8.66699 -4 -21 -6 -37 -6c-17.333 0 -29.666 2 -36.999 6v65c7.33301 3.33301 19.666 5 36.999 5
c16 0 28.333 -1.66699 37 -5v-65z" />
    <glyph glyph-name="Lslash" unicode="&#x141;" horiz-adv-x="536" 
d="M120 714c8.66699 4 21 6 37 6c16.667 0 29 -2 37 -6v-291l150 87c13.333 -10.667 21.666 -25 24.999 -43l-175 -101v-301h313c3.33301 -11.333 5 -22 5 -32c0 -8.66699 -1.66699 -19.667 -5 -33h-387v323l-82 -47c-13.333 10 -21.666 24 -24.999 42l107 62v334z" />
    <glyph glyph-name="lslash" unicode="&#x142;" horiz-adv-x="336" 
d="M131 745c6.66699 3.33301 18.668 5 36.001 5c16 0 28 -1.66699 36 -5v-293l81 46c5.33301 -2.66699 10.666 -8.66699 15.999 -18c5.33301 -10 8 -18.333 8 -25l-105 -61v-389c-8 -3.33301 -20 -5 -36 -5c-17.333 0 -29.333 1.66699 -36 5v347l-76 -43
c-4.66699 1.33301 -10 7.33301 -16 18c-6 10 -9 18 -9 24l101 59v335z" />
    <glyph glyph-name="Nacute" unicode="&#x143;" horiz-adv-x="696" 
d="M355 756c-20.667 2 -35 10 -43 24l104 144c30 2.66699 51.333 -7 64 -29zM217 515c-24 40 -41.999 76.667 -53.999 110h-3c3.33301 -36 5 -86.667 5 -152v-467c-7.33301 -4 -19 -6 -35 -6s-27.333 2 -34 6v708c10 4 24.667 6 44 6s33.666 -2 42.999 -6l294 -503
c22.667 -38.667 41.667 -77.334 57 -116.001h3c-4 42.667 -6 92.334 -6 149.001v470c7.33301 4 19 6 35 6c16.667 0 28 -2 34 -6v-708c-8.66699 -4 -23 -6 -43 -6c-19.333 0 -34 2 -44 6z" />
    <glyph glyph-name="nacute" unicode="&#x144;" horiz-adv-x="549" 
d="M235 607c-20.667 2 -35 10 -43 24l104 144c30 2.66699 51.333 -7 64 -29zM472 5c-8.66699 -3.33301 -20.666 -5 -35.999 -5c-16.667 0 -28.667 1.66699 -36 5v367c0 69.333 -36 104 -108 104c-61.333 0 -108 -30.333 -140 -91v-380c-8 -3.33301 -20 -5 -36 -5
c-16.667 0 -28.667 1.66699 -36 5v516c7.33301 3.33301 19.333 5 36 5c16 0 28 -1.66699 36 -5v-63c41.333 52 96.666 78 165.999 78c48.667 0 86.667 -13.667 114 -41c26.667 -26.667 40 -63 40 -109v-381z" />
    <glyph glyph-name="Ncommaaccent" unicode="&#x145;" horiz-adv-x="696" 
d="M217 515c-24 40 -41.999 76.667 -53.999 110h-3c3.33301 -36 5 -86.667 5 -152v-467c-7.33301 -4 -19 -6 -35 -6s-27.333 2 -34 6v708c10 4 24.667 6 44 6s33.666 -2 42.999 -6l294 -503c22.667 -38.667 41.667 -77.334 57 -116.001h3c-4 42.667 -6 92.334 -6 149.001
v470c7.33301 4 19 6 35 6c16.667 0 28 -2 34 -6v-708c-8.66699 -4 -23 -6 -43 -6c-19.333 0 -34 2 -44 6zM306.001 -216c20.667 21.333 32.334 52.332 35.001 92.999c-12 0.666992 -20.667 2.33398 -26 5.00098v73c9.33301 3.33301 22.666 5 39.999 5
c18 0 31.667 -1.66699 41 -5v-50c0 -62 -20.667 -109 -62 -141z" />
    <glyph glyph-name="ncommaaccent" unicode="&#x146;" horiz-adv-x="549" 
d="M472 5c-8.66699 -3.33301 -20.666 -5 -35.999 -5c-16.667 0 -28.667 1.66699 -36 5v367c0 69.333 -36 104 -108 104c-61.333 0 -108 -30.333 -140 -91v-380c-8 -3.33301 -20 -5 -36 -5c-16.667 0 -28.667 1.66699 -36 5v516c7.33301 3.33301 19.333 5 36 5
c16 0 28 -1.66699 36 -5v-63c41.333 52 96.666 78 165.999 78c48.667 0 86.667 -13.667 114 -41c26.667 -26.667 40 -63 40 -109v-381zM232.001 -218c20 21.333 31.668 51.999 35.001 91.999c-12 0.666992 -21 2.33398 -27 5.00098v74c9.33301 3.33301 23 5 41 5
c17.333 0 30.666 -1.66699 39.999 -5v-51c0 -61.333 -20.333 -108 -61 -140z" />
    <glyph glyph-name="Ncaron" unicode="&#x147;" horiz-adv-x="696" 
d="M210 871c6.66699 17.333 18 29 34 35l112 -79l110 78c14.667 -4.66699 26 -16 34 -34l-132 -108h-26zM217 515c-24 40 -41.999 76.667 -53.999 110h-3c3.33301 -36 5 -86.667 5 -152v-467c-7.33301 -4 -19 -6 -35 -6s-27.333 2 -34 6v708c10 4 24.667 6 44 6
s33.666 -2 42.999 -6l294 -503c22.667 -38.667 41.667 -77.334 57 -116.001h3c-4 42.667 -6 92.334 -6 149.001v470c7.33301 4 19 6 35 6c16.667 0 28 -2 34 -6v-708c-8.66699 -4 -23 -6 -43 -6c-19.333 0 -34 2 -44 6z" />
    <glyph glyph-name="ncaron" unicode="&#x148;" horiz-adv-x="549" 
d="M382 738c13.333 -3.33301 24 -14 32 -32l-121 -99h-23l-122 99c6.66699 17.333 17 28.333 31 33l102 -73zM80 521c7.33301 3.33301 19.334 5 36.001 5c16 0 28 -1.66699 36 -5v-63c41.333 52 96.666 78 165.999 78c48.667 0 86.667 -13.667 114 -41
c26.667 -26.667 40 -63 40 -109v-381c-8.66699 -3.33301 -20.667 -5 -36 -5c-16.667 0 -28.667 1.66699 -36 5v367c0 69.333 -36 104 -108 104c-61.333 0 -108 -30.333 -140 -91v-380c-8 -3.33301 -20 -5 -36 -5c-16.667 0 -28.667 1.66699 -36 5v516z" />
    <glyph glyph-name="napostrophe" unicode="&#x149;" horiz-adv-x="549" 
d="M75 607c40.667 35.333 62.001 82.667 64.001 142c28 2 49 -2.66699 63 -14c-9.33301 -73.333 -41 -123.333 -95 -150c-14.667 2.66699 -25.334 10 -32.001 22zM472.001 5.00098c-8.66699 -3.33301 -20.666 -5 -35.999 -5c-16.667 0 -28.667 1.66699 -36 5v367
c0 69.333 -36 104 -108 104c-61.333 0 -108 -30.333 -140 -91v-380c-8 -3.33301 -20 -5 -36 -5c-16.667 0 -28.667 1.66699 -36 5v516c7.33301 3.33301 19.333 5 36 5c16 0 28 -1.66699 36 -5v-63c41.333 52 96.666 78 165.999 78c48.667 0 86.667 -13.667 114 -41
c26.667 -26.667 40 -63 40 -109v-381z" />
    <glyph glyph-name="Eng" unicode="&#x14a;" horiz-adv-x="696" 
d="M531 714c7.33301 4 19.001 5.99902 35.001 5.99902c16.667 0 28 -2 34 -6v-762c0 -49.333 -8.33301 -87.666 -25 -114.999c-18 -29.333 -48.667 -51 -92 -65c-17.333 11.333 -25 29.333 -23 54c45.333 16.667 68 58.334 68 125.001v51
c-6.66699 1.33301 -11.667 2.66602 -15 3.99902l-296 509c-24 40 -42 76.667 -54 110h-3c3.33301 -36 5 -86.667 5 -152v-467c-7.33301 -4 -19 -6 -35 -6s-27.333 2 -34 6v708c10 4 24.667 6 44 6s33.666 -2 42.999 -6l294 -503c22.667 -38.667 41.667 -77.334 57 -116.001
h3c-4 42.667 -6 92.334 -6 149.001v470z" />
    <glyph glyph-name="eng" unicode="&#x14b;" horiz-adv-x="549" 
d="M152 458c41.333 52 96.667 77.999 166 77.999c48.667 0 86.667 -13.667 114 -41c26.667 -26.667 40 -63 40 -109v-434c0 -49.333 -8.33301 -87.666 -25 -114.999c-18 -29.333 -48.667 -51 -92 -65c-17.333 12 -25.333 29.667 -24 53c46 16 69 58 69 126v421
c0 69.333 -36 104 -108 104c-61.333 0 -108 -30.333 -140 -91v-380c-8 -3.33301 -20 -5 -36 -5c-16.667 0 -28.667 1.66699 -36 5v516c7.33301 3.33301 19.333 5 36 5c16 0 28 -1.66699 36 -5v-63z" />
    <glyph glyph-name="Omacron" unicode="&#x14c;" 
d="M480 840c5.33301 -14.667 5.33301 -31 0 -49h-275c-5.33301 16.667 -5.33301 33 0 49h275zM339 730c183.333 0 275 -123.333 275 -370s-91.667 -370 -275 -370s-275 123.333 -275 370s91.667 370 275 370zM339 668c-131.333 0 -197 -102.667 -197 -308
s65.667 -308 197 -308s197 102.667 197 308s-65.667 308 -197 308z" />
    <glyph glyph-name="omacron" unicode="&#x14d;" horiz-adv-x="542" 
d="M391 694c5.33301 -16 5.33301 -32.332 0 -48.999h-242c-4.66699 17.333 -4.66699 33.666 0 48.999h242zM271 536.001c142.667 0 214 -91 214 -273s-71.333 -273 -214 -273s-214 91 -214 273s71.333 273 214 273zM373 434.001c-22 30 -56 45 -102 45s-80 -15 -102 -45
c-25.333 -34.667 -38 -91.667 -38 -171s12.667 -136.333 38 -171c22 -30 56 -45 102 -45s80 15 102 45c25.333 34.667 38 91.667 38 171s-12.667 136.333 -38 171z" />
    <glyph glyph-name="Obreve" unicode="&#x14e;" 
d="M453 872c17.333 -4.66699 28.668 -16.333 34.001 -35c-32.667 -37.333 -81.334 -56 -146.001 -56c-65.333 0 -114 18.667 -146 56c5.33301 17.333 16.333 29 33 35c29.333 -24 67 -36 113 -36s83.333 12 112 36zM339.002 730.001c183.333 0 275 -123.333 275 -370
s-91.667 -370 -275 -370s-275 123.333 -275 370s91.667 370 275 370zM339.002 668.001c-131.333 0 -197 -102.667 -197 -308s65.667 -308 197 -308s197 102.667 197 308s-65.667 308 -197 308z" />
    <glyph glyph-name="obreve" unicode="&#x14f;" horiz-adv-x="542" 
d="M379 721c16.667 -4.66699 27.666 -16.667 32.999 -36c-31.333 -39.333 -78.666 -59 -141.999 -59c-62.667 0 -110 19.667 -142 59c6 18 17 30 33 36c28 -24.667 64.333 -37 109 -37s81 12.333 109 37zM270.999 536c142.667 0 214 -91 214 -273s-71.333 -273 -214 -273
s-214 91 -214 273s71.333 273 214 273zM372.999 434c-22 30 -56 45 -102 45s-80 -15 -102 -45c-25.333 -34.667 -38 -91.667 -38 -171s12.667 -136.333 38 -171c22 -30 56 -45 102 -45s80 15 102 45c25.333 34.667 38 91.667 38 171s-12.667 136.333 -38 171z" />
    <glyph glyph-name="Ohungarumlaut" unicode="&#x150;" 
d="M310 917c28.667 2 50.667 -7.33301 66 -28l-113 -128c-20.667 3.33301 -34.667 11 -42 23zM462 917c29.333 2 51 -7.33301 65 -28l-113 -128c-19.333 3.33301 -33.333 11 -42 23zM339 730c183.333 0 275 -123.333 275 -370s-91.667 -370 -275 -370s-275 123.333 -275 370
s91.667 370 275 370zM339 668c-131.333 0 -197 -102.667 -197 -308s65.667 -308 197 -308s197 102.667 197 308s-65.667 308 -197 308z" />
    <glyph glyph-name="ohungarumlaut" unicode="&#x151;" horiz-adv-x="542" 
d="M261 746c26.667 2 47.332 -6 61.999 -24l-115 -117c-19.333 3.33301 -32.666 10.333 -39.999 21zM405.998 746c27.333 2 48.332 -6 62.999 -24l-115 -117c-19.333 3.33301 -32.666 10.333 -39.999 21zM270.997 536c142.667 0 214 -91 214 -273s-71.333 -273 -214 -273
s-214 91 -214 273s71.333 273 214 273zM372.997 434c-22 30 -56 45 -102 45s-80 -15 -102 -45c-25.333 -34.667 -38 -91.667 -38 -171s12.667 -136.333 38 -171c22 -30 56 -45 102 -45s80 15 102 45c25.333 34.667 38 91.667 38 171s-12.667 136.333 -38 171z" />
    <glyph glyph-name="OE" unicode="&#x152;" horiz-adv-x="853" 
d="M347 730c28 0 56.666 -3.33398 85.999 -10.001h358c4 -8.66699 6 -19 6 -31c0 -11.333 -2 -21.666 -6 -30.999h-281v-263h231c4 -8.66699 6 -18.667 6 -30c0 -10.667 -2 -21 -6 -31h-231v-272h291c4 -10 6 -20.333 6 -31s-2 -21 -6 -31h-369
c-29.333 -6.66699 -57.666 -10 -84.999 -10c-188.667 0 -283 123.333 -283 370s94.333 370 283 370zM435.999 651.999c-25.333 10.667 -55 16 -89 16c-136.667 0 -205 -102.667 -205 -308s68.333 -308 205 -308c34 0 63.667 5.33301 89 16v584z" />
    <glyph glyph-name="oe" unicode="&#x153;" horiz-adv-x="823" 
d="M463 240c3.33301 -68 16 -116.668 38 -146.001c22 -28.667 55.667 -43 101 -43c47.333 0 86.666 10.667 117.999 32c14.667 -9.33301 23 -25.666 25 -48.999c-34 -29.333 -86 -44 -156 -44c-77.333 0 -130.666 36 -159.999 108c-29.333 -72 -83 -108 -161 -108
c-140.667 0 -211 91 -211 273s70.333 273 211 273c80 0 134 -36.333 162 -109c30 72.667 82.667 109 158 109c58.667 0 104 -17.333 136 -52c32 -34 48 -81.333 48 -142c0 -41.333 -3.66699 -75.333 -11 -102h-298zM169 433.999
c-24.667 -34.667 -36.999 -91.668 -36.999 -171.001s12.333 -136.333 37 -171c21.333 -30 54.333 -45 99 -45c44 0 75.667 15.333 95 46c21.333 33.333 32 90.333 32 171s-10.667 137.334 -32 170.001c-18.667 30 -50.334 45 -95.001 45s-77.667 -15 -99 -45z
M588.001 476.998c-76.667 0 -118.333 -61.001 -125 -183.001h232l2 19c1.33301 12.667 2 25.334 2 38.001c0 84 -37 126 -111 126z" />
    <glyph glyph-name="Racute" unicode="&#x154;" horiz-adv-x="621" 
d="M321 924c30 2.66699 51.333 -7 64 -29l-125 -139c-20.667 2 -35 10 -43 24zM344 720c63.333 0 113.999 -18.666 151.999 -55.999c36.667 -37.333 55 -87 55 -149c0 -50.667 -12.667 -93.334 -38 -128.001c-25.333 -35.333 -60.666 -58.333 -105.999 -69l173 -312
c-10 -4 -24.333 -6 -43 -6s-33 2 -43 6l-168 304h-156v-304c-8 -4 -20 -6 -36 -6c-18 0 -30.667 2 -38 6v714h248zM169.999 373.001l167 -0.000976562c42.667 0 76 12.333 100 37c24 25.333 36 60.333 36 105s-12 79.334 -36 104.001c-24 25.333 -57.333 38 -100 38h-167
v-284z" />
    <glyph glyph-name="racute" unicode="&#x155;" horiz-adv-x="391" 
d="M246 775c30 2.66699 51.333 -7 64 -29l-125 -139c-20.667 2 -35 10 -43 24zM152 439c35.333 64 80.333 95.999 135 95.999c32.667 0 61.334 -8 86.001 -24c-2.66699 -25.333 -13.667 -45.666 -33 -60.999c-20.667 13.333 -43.334 20 -68.001 20
c-47.333 0 -87.333 -33.333 -120 -100v-365c-7.33301 -3.33301 -19.333 -5 -36 -5s-28.667 1.66699 -36 5v516c7.33301 3.33301 19.333 5 36 5s28.667 -1.66699 36 -5v-82z" />
    <glyph glyph-name="Rcommaaccent" unicode="&#x156;" horiz-adv-x="621" 
d="M344 720c63.333 0 113.999 -18.666 151.999 -55.999c36.667 -37.333 55 -87 55 -149c0 -50.667 -12.667 -93.334 -38 -128.001c-25.333 -35.333 -60.666 -58.333 -105.999 -69l173 -312c-10 -4 -24.333 -6 -43 -6s-33 2 -43 6l-168 304h-156v-304c-8 -4 -20 -6 -36 -6
c-18 0 -30.667 2 -38 6v714h248zM169.999 373.001l167 -0.000976562c42.667 0 76 12.333 100 37c24 25.333 36 60.333 36 105s-12 79.334 -36 104.001c-24 25.333 -57.333 38 -100 38h-167v-284zM279.999 -45c9.33301 3.33301 22.666 4.99902 39.999 4.99902
c18 0 31.667 -1.66699 41 -5v-50c0 -62 -20.667 -109 -62 -141l-28 20c20.667 21.333 32.334 52.333 35.001 93c-12 0.666992 -20.667 2.33398 -26 5.00098v73z" />
    <glyph glyph-name="rcommaaccent" unicode="&#x157;" horiz-adv-x="391" 
d="M152 439c39.333 64 84.333 95.999 135 95.999c32.667 0 61.334 -8 86.001 -24c-2.66699 -25.333 -13.667 -45.666 -33 -60.999c-20.667 13.333 -43.334 20 -68.001 20c-41.333 0 -81.333 -33.333 -120 -100v-365c-7.33301 -3.33301 -19.333 -5 -36 -5
s-28.667 1.66699 -36 5v516c7.33301 3.33301 19.333 5 36 5s28.667 -1.66699 36 -5v-82zM76 -45.001c9.33301 3.33301 23 4.99902 41 4.99902c17.333 0 30.666 -1.66699 39.999 -5v-50c0 -62 -20.333 -109 -61 -141l-28 20c20.667 21.333 32.334 52.333 35.001 93
c-12 0.666992 -21 2.33398 -27 5.00098v73z" />
    <glyph glyph-name="Rcaron" unicode="&#x158;" horiz-adv-x="621" 
d="M401 905c14.667 -4.66699 26 -16 34 -34l-132 -108h-26l-132 108c6.66699 17.333 18 29 34 35l112 -79zM344 720c63.333 0 113.999 -18.666 151.999 -55.999c36.667 -37.333 55 -87 55 -149c0 -50.667 -12.667 -93.334 -38 -128.001
c-25.333 -35.333 -60.666 -58.333 -105.999 -69l173 -312c-10 -4 -24.333 -6 -43 -6s-33 2 -43 6l-168 304h-156v-304c-8 -4 -20 -6 -36 -6c-18 0 -30.667 2 -38 6v714h248zM169.999 373.001l167 -0.000976562c42.667 0 76 12.333 100 37c24 25.333 36 60.333 36 105
s-12 79.334 -36 104.001c-24 25.333 -57.333 38 -100 38h-167v-284z" />
    <glyph glyph-name="rcaron" unicode="&#x159;" horiz-adv-x="391" 
d="M304 734c12.667 -4.66699 22.999 -15.333 30.999 -32l-121 -100h-23l-122 100c6.66699 16 17.334 27 32.001 33l102 -73zM151.999 439.001c39.333 64 84.333 95.999 135 95.999c32.667 0 61.334 -8 86.001 -24c-2.66699 -25.333 -13.667 -45.666 -33 -60.999
c-20.667 13.333 -43.334 20 -68.001 20c-41.333 0 -81.333 -33.333 -120 -100v-365c-7.33301 -3.33301 -19.333 -5 -36 -5s-28.667 1.66699 -36 5v516c7.33301 3.33301 19.333 5 36 5s28.667 -1.66699 36 -5v-82z" />
    <glyph glyph-name="Sacute" unicode="&#x15a;" horiz-adv-x="565" 
d="M282 768c-21.333 3.33301 -35.333 12.001 -42 26.001l102 135c29.333 1.33301 50.333 -9.33398 63 -32.001zM136 535.001c0 -40.667 18.668 -72.002 56.001 -94.002c18.667 -10.667 63 -26.667 133 -48c60 -18 103.667 -38.667 131 -62
c39.333 -33.333 59 -79.666 59 -138.999c0 -64 -21 -113.667 -63 -149c-42.667 -35.333 -103 -53 -181 -53c-84.667 0 -154.334 13.333 -209.001 40c-1.33301 25.333 5 45 19 59c60.667 -20.667 122.334 -31 185.001 -31c115.333 0 173 44.333 173 133
c0 40.667 -16 72.334 -48 95.001c-21.333 14.667 -58.333 29.667 -111 45c-72.667 21.333 -122.334 41.333 -149.001 60c-46 32 -69 78.667 -69 140s20 109.666 60 144.999c41.333 36 100.333 54 177 54s139.667 -9 189 -27c0 -25.333 -6.66699 -44.666 -20 -57.999
c-48 14 -101 21 -159 21c-115.333 0 -173 -43.667 -173 -131z" />
    <glyph glyph-name="sacute" unicode="&#x15b;" horiz-adv-x="444" 
d="M196 607c-20.667 2 -35 10 -43 24l104 144c30 2.66699 51.333 -7 64 -29zM101 494c32 28 77.667 42.002 137 42.002s104.333 -8.33301 135 -25c0.666992 -22.667 -6 -40.334 -20 -53.001c-32 11.333 -67.667 17 -107 17c-79.333 0 -119 -29.333 -119 -88
c0 -24.667 12 -44.334 36 -59.001c16 -10 44 -20.333 84 -31c48.667 -15.333 83 -30.333 103 -45c32.667 -25.333 49 -61.333 49 -108c0 -102.667 -61 -154 -183 -154c-66.667 0 -120 11.333 -160 34c-1.33301 23.333 5.33398 41.333 20.001 54
c43.333 -16.667 88.666 -25 135.999 -25c76.667 0 115 29.667 115 89c0 29.333 -13 52 -39 68c-13.333 7.33301 -42.666 17.666 -87.999 30.999c-44.667 12.667 -77.334 27 -98.001 43c-30 24 -45 57.333 -45 100c0 46.667 14.667 83.334 44 110.001z" />
    <glyph glyph-name="Scircumflex" unicode="&#x15c;" horiz-adv-x="564" 
d="M440 804c-7.33301 -18 -18.332 -29.667 -32.999 -35l-112 79l-110 -79c-16.667 6 -28.334 17.667 -35.001 35l133 108h26zM136.001 535c0 -41.333 19 -72.999 57 -94.999c18 -10 62.667 -26 134 -48c59.333 -18 102.333 -38.667 129 -62
c39.333 -33.333 59 -79.333 59 -138c0 -64 -21 -113.667 -63 -149c-42.667 -35.333 -103 -53 -181 -53c-84.667 0 -154.334 13.333 -209.001 40c-1.33301 25.333 5 45 19 59c60.667 -20.667 122.334 -31 185.001 -31c115.333 0 173 44.333 173 133
c0 42 -17.333 74.667 -52 98c-21.333 14 -61 29.333 -119 46c-67.333 19.333 -114.333 39 -141 59c-43.333 32 -65 77.667 -65 137c0 61.333 20 109.666 60 144.999c41.333 36 100.333 54 177 54s139.667 -9 189 -27c0 -24.667 -6.66699 -44 -20 -58c-48 14 -101 21 -159 21
c-115.333 0 -173 -43.667 -173 -131z" />
    <glyph glyph-name="scircumflex" unicode="&#x15d;" horiz-adv-x="444" 
d="M373 630c-8 -18 -19 -29.333 -33 -34l-109 77l-108 -77c-16 6 -27 17.333 -33 34l129 105h25zM101 494c32 28 77.667 42 137 42s104.333 -8.33301 135 -25c0.666992 -22.667 -6 -40.334 -20 -53.001c-32 11.333 -67.667 17 -107 17c-79.333 0 -119 -29.333 -119 -88
c0 -25.333 13 -45.333 39 -60c14 -8 43 -18.667 87 -32c46.667 -14.667 79.667 -29.667 99 -45c31.333 -25.333 47 -60.666 47 -105.999c0 -102.667 -61 -154 -183 -154c-66.667 0 -120 11.333 -160 34c-1.33301 23.333 5.33398 41.333 20.001 54
c43.333 -16.667 88.666 -25 135.999 -25c76.667 0 115 29.667 115 89c0 29.333 -13 51.666 -39 66.999c-14 8.66699 -42.667 19 -86 31c-45.333 13.333 -78.333 28 -99 44c-30.667 24 -46 57.333 -46 100c0 46.667 14.667 83.334 44 110.001z" />
    <glyph glyph-name="Scedilla" unicode="&#x15e;" horiz-adv-x="565" 
d="M456 331c39.333 -33.333 59 -79.666 59 -138.999c0 -60 -19 -107.667 -57 -143c-37.333 -34.667 -91 -54.334 -161 -59.001l-9 -48c72 0 108 -30.667 108 -92c0 -66 -39 -99 -117 -99c-36.667 0 -66.667 7.66699 -90 23c0 15.333 5.66699 27 17 35
c21.333 -10.667 44.666 -16 69.999 -16c46 0 69 19.333 69 58c0 34.667 -20.667 52 -62 52h-35l-10 12l14 75c-77.333 2.66699 -140.666 16 -189.999 40c-1.33301 25.333 5 45 19 59c60.667 -20.667 122.334 -31 185.001 -31c115.333 0 173 44.333 173 133
c0 41.333 -16.667 73.333 -50 96c-21.333 14.667 -59.333 29.667 -114 45c-70.667 21.333 -119 41.333 -145 60c-45.333 32 -68 78.333 -68 139c0 61.333 20 109.666 60 144.999c41.333 36 100.333 54 177 54s139.667 -9 189 -27c0 -25.333 -6.66699 -44.666 -20 -57.999
c-48 14 -101 21 -159 21c-115.333 0 -173 -43.667 -173 -131c0 -40.667 19 -72 57 -94c17.333 -10 61.666 -26.333 132.999 -49c60 -18 103.333 -38.333 130 -61z" />
    <glyph glyph-name="scedilla" unicode="&#x15f;" horiz-adv-x="444" 
d="M101 494c32 28 77.667 42.002 137 42.002s104.333 -8.33301 135 -25c0.666992 -22.667 -6 -40.334 -20 -53.001c-32 11.333 -67.667 17 -107 17c-79.333 0 -119 -29.333 -119 -88c0 -24.667 12.333 -44.334 37 -59.001c15.333 -9.33301 43 -20 83 -32
c48 -14 82.333 -28.667 103 -44c32.667 -25.333 49 -61.333 49 -108c0 -94.667 -53.333 -146 -160 -154l-9 -47c70 0 105 -29.333 105 -88c0 -64 -38 -96 -114 -96c-36 0 -65.333 7.66699 -88 23c0 14 5.66699 25 17 33c21.333 -10.667 44 -16 68 -16c45.333 0 68 19 68 57
c0 33.333 -20.333 50 -61 50h-34l-10 11l14 73c-58.667 3.33301 -105 14.666 -139 33.999c-1.33301 23.333 5.33398 41.333 20.001 54c43.333 -16.667 88.666 -25 135.999 -25c76.667 0 115 29.667 115 89c0 29.333 -13 51.666 -39 66.999c-14 8 -42.667 18.333 -86 31
c-45.333 12.667 -78.333 27.334 -99 44.001c-30.667 24 -46 57.333 -46 100c0 46.667 14.667 83.334 44 110.001z" />
    <glyph glyph-name="Scaron" unicode="&#x160;" horiz-adv-x="565" 
d="M154 879c8 18.667 19.668 30.333 35.001 35l111 -79l110 78c15.333 -4 26.666 -15.333 33.999 -34l-131 -105h-26zM134.001 534.999c0 -40.667 18.3311 -71.667 54.998 -93c19.333 -12 62.333 -27.667 129 -47c62.667 -19.333 107.334 -40 134.001 -62
c40.667 -33.333 61 -80.333 61 -141c0 -64 -21 -113.667 -63 -149c-42.667 -35.333 -103 -53 -181 -53c-84.667 0 -154.334 13.333 -209.001 40c0 23.333 6.33301 43 19 59c60.667 -20.667 122.334 -31 185.001 -31c115.333 0 173 44.333 173 133
c0 41.333 -16.667 73.333 -50 96c-21.333 14.667 -59.666 30 -114.999 46c-70 20.667 -118.333 40.334 -145 59.001c-44.667 32 -67 78.333 -67 139c0 61.333 20 109.666 60 144.999c41.333 36 100.333 54 177 54s139.667 -9 189 -27c0 -24.667 -6.66699 -44 -20 -58
c-48 14 -101 21 -159 21c-115.333 0 -173 -43.667 -173 -131z" />
    <glyph glyph-name="scaron" unicode="&#x161;" horiz-adv-x="444" 
d="M102 704c6 16 16.667 26.333 32 31l100 -71l100 71c12.667 -4.66699 22.667 -15 30 -31l-118 -98h-24zM101 494c32 28 77.666 42.001 136.999 42.001s104.333 -8.33301 135 -25c0.666992 -22.667 -6 -40.334 -20 -53.001c-32 11.333 -67.667 17 -107 17
c-79.333 0 -119 -29.333 -119 -88c0 -24.667 12 -44.334 36 -59.001c15.333 -10 42.333 -20.333 81 -31c49.333 -14 84.333 -28.667 105 -44c33.333 -25.333 50 -61.666 50 -108.999c0 -102.667 -61 -154 -183 -154c-66.667 0 -120 11.333 -160 34
c-1.33301 23.333 5.33398 41.333 20.001 54c43.333 -16.667 88.666 -25 135.999 -25c76.667 0 115 29.667 115 89c0 29.333 -13 51.666 -39 66.999c-13.333 8 -41.666 18.333 -84.999 31c-46 13.333 -79.333 28 -100 44c-30.667 24 -46 57.333 -46 100
c0 46.667 14.667 83.334 44 110.001z" />
    <glyph glyph-name="Tcommaaccent" unicode="&#x162;" horiz-adv-x="539" 
d="M504 720c4 -8 5.99902 -18.668 5.99902 -32.001c0 -12.667 -2 -23.667 -6 -33h-195v-649c-8.66699 -4 -21 -6 -37 -6c-17.333 0 -29.666 2 -36.999 6v649h-200c-4 8.66699 -6 19.667 -6 33c0 12.667 2 23.334 6 32.001h469zM227.999 -227.001
c20.667 21.333 32.333 51.999 35 91.999c-12 0.666992 -21 2.33398 -27 5.00098v73c9.33301 3.33301 23 5 41 5s31.333 -1.66699 40 -5v-50c0 -61.333 -20.333 -108 -61 -140z" />
    <glyph glyph-name="Tcommaaccent" unicode="&#x21a;" horiz-adv-x="539" 
d="M504 720c4 -8 5.99902 -18.668 5.99902 -32.001c0 -12.667 -2 -23.667 -6 -33h-195v-649c-8.66699 -4 -21 -6 -37 -6c-17.333 0 -29.666 2 -36.999 6v649h-200c-4 8.66699 -6 19.667 -6 33c0 12.667 2 23.334 6 32.001h469zM227.999 -227.001
c20.667 21.333 32.333 51.999 35 91.999c-12 0.666992 -21 2.33398 -27 5.00098v73c9.33301 3.33301 23 5 41 5s31.333 -1.66699 40 -5v-50c0 -61.333 -20.333 -108 -61 -140z" />
    <glyph glyph-name="tcommaaccent" unicode="&#x163;" horiz-adv-x="368" 
d="M183 182c0 -48 7.66602 -82 22.999 -102c16 -20 43.667 -30 83 -30c16.667 0 33 1.66699 49 5c4 -8 6 -18 6 -30c0 -11.333 -1.33301 -20.333 -4 -27c-18 -5.33301 -41.333 -8 -70 -8c-57.333 0 -98.666 16.333 -123.999 49c-23.333 30 -35 76.667 -35 140v290h-78
c-3.33301 6.66699 -5 16 -5 28c0 13.333 1.66699 23 5 29h78v95c18.667 12.667 42.667 18 72 16v-111h143c3.33301 -6.66699 5 -16 5 -28s-1.66699 -21.667 -5 -29h-143v-287zM191.999 -242c20.667 21.333 32.333 52.332 35 92.999c-12 0.666992 -21 2.33398 -27 5.00098v73
c9.33301 3.33301 23 5 41 5s31.333 -1.66699 40 -5v-50c0 -62 -20.333 -108.667 -61 -140z" />
    <glyph glyph-name="tcommaaccent" unicode="&#x21b;" horiz-adv-x="368" 
d="M183 182c0 -48 7.66602 -82 22.999 -102c16 -20 43.667 -30 83 -30c16.667 0 33 1.66699 49 5c4 -8 6 -18 6 -30c0 -11.333 -1.33301 -20.333 -4 -27c-18 -5.33301 -41.333 -8 -70 -8c-57.333 0 -98.666 16.333 -123.999 49c-23.333 30 -35 76.667 -35 140v290h-78
c-3.33301 6.66699 -5 16 -5 28c0 13.333 1.66699 23 5 29h78v95c18.667 12.667 42.667 18 72 16v-111h143c3.33301 -6.66699 5 -16 5 -28s-1.66699 -21.667 -5 -29h-143v-287zM191.999 -242c20.667 21.333 32.333 52.332 35 92.999c-12 0.666992 -21 2.33398 -27 5.00098v73
c9.33301 3.33301 23 5 41 5s31.333 -1.66699 40 -5v-50c0 -62 -20.333 -108.667 -61 -140z" />
    <glyph glyph-name="Tcaron" unicode="&#x164;" horiz-adv-x="539" 
d="M128 871c6.66699 17.333 18 29 34 35l112 -79l110 78c14.667 -4.66699 26 -16 34 -34l-132 -108h-26zM504 720c4 -8 5.99902 -18.668 5.99902 -32.001c0 -12.667 -2 -23.667 -6 -33h-195v-649c-8.66699 -4 -21 -6 -37 -6c-17.333 0 -29.666 2 -36.999 6v649h-200
c-4 8.66699 -6 19.667 -6 33c0 12.667 2 23.334 6 32.001h469z" />
    <glyph glyph-name="tcaron" unicode="&#x165;" horiz-adv-x="368" 
d="M268 607c40.667 35.333 62.001 82.667 64.001 142c28 2 49 -2.66699 63 -14c-9.33301 -73.333 -41 -123.333 -95 -150c-14.667 2.66699 -25.334 10 -32.001 22zM183.001 182.001c0 -48 7.66602 -82 22.999 -102c16 -20 43.667 -30 83 -30c16.667 0 33 1.66699 49 5
c4 -8 6 -18 6 -30c0 -11.333 -1.33301 -20.333 -4 -27c-18 -5.33301 -41.333 -8 -70 -8c-57.333 0 -98.666 16.333 -123.999 49c-23.333 30 -35 76.667 -35 140v290h-78c-3.33301 6.66699 -5 16 -5 28c0 13.333 1.66699 23 5 29h78v95c18.667 12.667 42.667 18 72 16v-111
h143c3.33301 -6.66699 5 -16 5 -28s-1.66699 -21.667 -5 -29h-143v-287z" />
    <glyph glyph-name="Tbar" unicode="&#x166;" horiz-adv-x="554" 
d="M447 368c4.66699 -14 4.66602 -30.333 -0.000976562 -49h-131v-313c-8.66699 -4 -21 -6 -37 -6c-17.333 0 -29.666 2 -36.999 6v313h-134c-4 17.333 -4 33.666 0 48.999h134v287h-200c-4 8.66699 -6 19.667 -6 33c0 12.667 2 23.334 6 32.001h469c4 -8 6 -18.667 6 -32
c0 -12.667 -2 -23.667 -6 -33h-195v-287h131z" />
    <glyph glyph-name="tbar" unicode="&#x167;" horiz-adv-x="371" 
d="M340 55c4 -8 5.99902 -18 5.99902 -30c0 -11.333 -1.33301 -20.333 -4 -27c-18 -5.33301 -41.333 -8 -70 -8c-57.333 0 -98.666 16.333 -123.999 49c-23.333 30 -35 76.667 -35 140v81h-67c-4 16.667 -4 32.667 0 48h67v161h-78c-3.33301 6.66699 -5 16 -5 28
c0 13.333 1.66699 23 5 29h78v95c18.667 12.667 42.667 18 72 16v-111h143c3.33301 -6.66699 5 -16 5 -28s-1.66699 -21.667 -5 -29h-143v-161h135c4.66699 -14 4.66699 -30 0 -48h-135v-78c0 -48 7.66699 -82 23 -102c16 -20 43.667 -30 83 -30c16.667 0 33 1.66699 49 5z
" />
    <glyph glyph-name="Utilde" unicode="&#x168;" horiz-adv-x="668" 
d="M445 843c15.333 -6 25.334 -17.001 30.001 -33.001c-15.333 -28.667 -42 -43 -80 -43c-18 0 -37.667 5.66699 -59 17c-20.667 11.333 -37.334 17 -50.001 17c-20 0 -35 -9.33301 -45 -28c-16 6.66699 -26 17.334 -30 32.001c16 30 43 45 81 45
c18.667 0 38.667 -5.66699 60 -17c20.667 -11.333 37 -17 49 -17c20 0 34.667 9 44 27zM578.001 234.999c0 -77.333 -22.333 -137.667 -67 -181c-44 -42.667 -103 -64 -177 -64s-133 21.333 -177 64c-44 44 -66 104.333 -66 181v479c8.66699 4 21 6 37 6
c16.667 0 29 -2 37 -6v-490c0 -54 15 -96 45 -126s72 -45 126 -45c53.333 0 95 15 125 45c29.333 30 44 72 44 126v490c8 4 20 6 36 6s28.333 -2 37 -6v-479z" />
    <glyph glyph-name="utilde" unicode="&#x169;" horiz-adv-x="548" 
d="M223 715c18.667 0 38.667 -5.66797 60 -17.001s38 -17 50 -17c20 0 35 9.66699 45 29c16 -5.33301 26.333 -16.666 31 -33.999c-16.667 -30.667 -44 -46 -82 -46c-19.333 0 -39.333 5.66699 -60 17c-21.333 11.333 -38 17 -50 17c-20 0 -35.333 -10 -46 -30
c-17.333 8 -27.333 19.333 -30 34c16.667 31.333 44 47 82 47zM396 520.999c8 3.33301 19.999 5.00098 35.999 5.00098c16.667 0 28.667 -1.66699 36 -5v-516c-7.33301 -3.33301 -19.333 -5 -36 -5c-16 0 -28 1.66699 -36 5v63c-41.333 -52 -96.666 -78 -165.999 -78
c-48 0 -86 13.667 -114 41c-26.667 27.333 -40 63.666 -40 108.999v381c8.66699 3.33301 20.667 5 36 5c16.667 0 28.667 -1.66699 36 -5v-367c0 -69.333 36.333 -104 109 -104c60 0 106.333 30.333 139 91v380z" />
    <glyph glyph-name="Umacron" unicode="&#x16a;" horiz-adv-x="668" 
d="M195 790c-6 16.667 -6 33 0 49h283c5.33301 -16 5.33301 -32.333 0 -49h-283zM578 235c0 -77.333 -22.333 -137.667 -67 -181c-44 -42.667 -103 -64 -177 -64s-133 21.333 -177 64c-44 44 -66 104.333 -66 181v479c8.66699 4 21 6 37 6c16.667 0 29 -2 37 -6v-490
c0 -54 15 -96 45 -126s72 -45 126 -45c53.333 0 95 15 125 45c29.333 30 44 72 44 126v490c8 4 20 6 36 6s28.333 -2 37 -6v-479z" />
    <glyph glyph-name="umacron" unicode="&#x16b;" horiz-adv-x="548" 
d="M390 699c6 -12.667 6 -28 0 -46h-231c-5.33301 16.667 -5.33301 32 0 46h231zM396 521c8 3.33301 19.999 5.00098 35.999 5.00098c16.667 0 28.667 -1.66699 36 -5v-516c-7.33301 -3.33301 -19.333 -5 -36 -5c-16 0 -28 1.66699 -36 5v63
c-41.333 -52 -96.666 -78 -165.999 -78c-48 0 -86 13.667 -114 41c-26.667 27.333 -40 63.666 -40 108.999v381c8.66699 3.33301 20.667 5 36 5c16.667 0 28.667 -1.66699 36 -5v-367c0 -69.333 36.333 -104 109 -104c60 0 106.333 30.333 139 91v380z" />
    <glyph glyph-name="Ubreve" unicode="&#x16c;" horiz-adv-x="668" 
d="M335 781c-65.333 0 -114.332 18.667 -146.999 56c5.33301 17.333 16.666 29 33.999 35c29.333 -24 67 -36 113 -36s83.333 12 112 36c18 -5.33301 29 -17 33 -35c-32.667 -37.333 -81 -56 -145 -56zM578.001 235c0 -77.333 -22.333 -137.667 -67 -181
c-44 -42.667 -103 -64 -177 -64s-133 21.333 -177 64c-44 44 -66 104.333 -66 181v479c8.66699 4 21 6 37 6c16.667 0 29 -2 37 -6v-490c0 -54 15 -96 45 -126s72 -45 126 -45c53.333 0 95 15 125 45c29.333 30 44 72 44 126v490c8 4 20 6 36 6s28.333 -2 37 -6v-479z" />
    <glyph glyph-name="ubreve" unicode="&#x16d;" horiz-adv-x="548" 
d="M381 718c18 -5.33301 28.999 -17 32.999 -35c-31.333 -40 -78.666 -60 -141.999 -60c-62.667 0 -110 20 -142 60c6 18 17 29.667 33 35c28 -24 64.333 -36 109 -36s81 12 109 36zM395.999 521c8 3.33301 19.999 5.00098 35.999 5.00098c16.667 0 28.667 -1.66699 36 -5
v-516c-7.33301 -3.33301 -19.333 -5 -36 -5c-16 0 -28 1.66699 -36 5v63c-41.333 -52 -96.666 -78 -165.999 -78c-48 0 -86 13.667 -114 41c-26.667 27.333 -40 63.666 -40 108.999v381c8.66699 3.33301 20.667 5 36 5c16.667 0 28.667 -1.66699 36 -5v-367
c0 -69.333 36.333 -104 109 -104c60 0 106.333 30.333 139 91v380z" />
    <glyph glyph-name="Uring" unicode="&#x16e;" horiz-adv-x="668" 
d="M253 794c-22 20 -33 47 -33 81s12 60.667 36 80c22 18 49 27 81 27s59 -8.66699 81 -26c24.667 -20 37 -47 37 -81s-11.667 -61.333 -35 -82c-22 -18.667 -50 -28 -84 -28s-61.667 9.66699 -83 29zM390 921c-13.333 13.333 -31.333 20 -54 20c-22 0 -39.333 -7 -52 -21
c-11.333 -12 -17 -27 -17 -45c0 -18.667 5.66699 -34 17 -46c12.667 -14 30 -21 52 -21c22.667 0 40.667 7 54 21c11.333 12.667 17 28 17 46c0 18.667 -5.66699 34 -17 46zM578 235c0 -77.333 -22.333 -137.667 -67 -181c-44 -42.667 -103 -64 -177 -64
s-133 21.333 -177 64c-44 44 -66 104.333 -66 181v479c8.66699 4 21 6 37 6c16.667 0 29 -2 37 -6v-490c0 -54 15 -96 45 -126s72 -45 126 -45c53.333 0 95 15 125 45c29.333 30 44 72 44 126v490c8 4 20 6 36 6s28.333 -2 37 -6v-479z" />
    <glyph glyph-name="uring" unicode="&#x16f;" horiz-adv-x="548" 
d="M192 781c22 18 49 27 81 27s59 -8.66699 81 -26c24.667 -20 37 -47 37 -81s-11.667 -61.333 -35 -82c-22 -18.667 -50 -28 -84 -28s-61.667 9.66699 -83 29c-22 20 -33 47 -33 81s12 60.667 36 80zM326 747c-13.333 13.333 -31.333 20 -54 20c-22 0 -39.333 -7 -52 -21
c-11.333 -12 -17 -27 -17 -45c0 -18.667 5.66699 -34 17 -46c12.667 -14 30 -21 52 -21c22.667 0 40.667 7 54 21c11.333 12.667 17 28 17 46c0 18.667 -5.66699 34 -17 46zM396 521c8 3.33301 19.999 5.00098 35.999 5.00098c16.667 0 28.667 -1.66699 36 -5v-516
c-7.33301 -3.33301 -19.333 -5 -36 -5c-16 0 -28 1.66699 -36 5v63c-41.333 -52 -96.666 -78 -165.999 -78c-48 0 -86 13.667 -114 41c-26.667 27.333 -40 63.666 -40 108.999v381c8.66699 3.33301 20.667 5 36 5c16.667 0 28.667 -1.66699 36 -5v-367
c0 -69.333 36.333 -104 109 -104c60 0 106.333 30.333 139 91v380z" />
    <glyph glyph-name="Uhungarumlaut" unicode="&#x170;" horiz-adv-x="668" 
d="M261 760c-20 2 -34 9.66699 -42 23l93 136c30 2 52 -7.33301 66 -28zM414 760c-20 2 -34 9.66699 -42 23l93 136c30 2 52 -7.33301 66 -28zM578 235c0 -77.333 -22.333 -137.667 -67 -181c-44 -42.667 -103 -64 -177 -64s-133 21.333 -177 64c-44 44 -66 104.333 -66 181
v479c8.66699 4 21 6 37 6c16.667 0 29 -2 37 -6v-490c0 -54 15 -96 45 -126s72 -45 126 -45c53.333 0 95 15 125 45c29.333 30 44 72 44 126v490c8 4 20 6 36 6s28.333 -2 37 -6v-479z" />
    <glyph glyph-name="uhungarumlaut" unicode="&#x171;" horiz-adv-x="548" 
d="M197 606c-18 2 -31.333 9.33301 -40 22l93 132c28 2 49 -6.66699 63 -26zM344 606c-18.667 2 -32.333 9.33301 -41 22l93 132c27.333 2 48.333 -6.66699 63 -26zM76.001 521c8.66699 3.33301 20.666 5.00098 35.999 5.00098c16.667 0 28.667 -1.66699 36 -5v-367
c0 -69.333 36.333 -104 109 -104c60 0 106.333 30.333 139 91v380c8 3.33301 20 5 36 5c16.667 0 28.667 -1.66699 36 -5v-516c-7.33301 -3.33301 -19.333 -5 -36 -5c-16 0 -28 1.66699 -36 5v63c-41.333 -52 -96.666 -78 -165.999 -78c-48 0 -86 13.667 -114 41
c-26.667 27.333 -40 63.666 -40 108.999v381z" />
    <glyph glyph-name="Uogonek" unicode="&#x172;" horiz-adv-x="667" 
d="M504 714c8 4 19.999 6 35.999 6s28.333 -2 37 -6v-479c0 -132 -58 -211 -174 -237c-65.333 -18.667 -98 -49 -98 -91c0 -34 18 -51 54 -51c14 0 26 2.66699 36 8c8.66699 -6.66699 13 -17.334 13 -32.001c-17.333 -12 -38.666 -18 -63.999 -18
c-27.333 0 -49.333 7.66699 -66 23s-25 36 -25 62c0 38.667 17.667 69.334 53 92.001c-66.667 5.33301 -119 29 -157 71c-39.333 43.333 -59 101 -59 173v479c8.66699 4 21 6 37 6c16.667 0 29 -2 37 -6v-490c0 -54 15 -96 45 -126s72 -45 126 -45c53.333 0 95 15 125 45
c29.333 30 44 72 44 126v490z" />
    <glyph glyph-name="uogonek" unicode="&#x173;" horiz-adv-x="549" 
d="M397 521c8 3.33301 19.998 5.00098 35.998 5.00098c16.667 0 28.667 -1.66699 36 -5v-516c-60 -18 -90 -52.667 -90 -104c0 -26 17.667 -39 53 -39c14 0 26 2.33301 36 7c8.66699 -6.66699 13 -18.334 13 -35.001c-17.333 -11.333 -38.666 -17 -63.999 -17
c-27.333 0 -49.333 6.66699 -66 20c-16.667 14 -25 32.667 -25 56c0 50.667 24 88.334 72 113.001l-1 62c-41.333 -52 -96.666 -78 -165.999 -78c-48 0 -86 13.667 -114 41c-26.667 27.333 -40 63.666 -40 108.999v381c8.66699 3.33301 20.667 5 36 5
c16.667 0 28.667 -1.66699 36 -5v-367c0 -69.333 36.333 -104 109 -104c60 0 106.333 30.333 139 91v380z" />
    <glyph glyph-name="Wcircumflex" unicode="&#x174;" horiz-adv-x="957" 
d="M630 798c-8 -18.667 -19.333 -30.333 -34 -35l-112 79l-110 -79c-16.667 6 -28 17.667 -34 35l132 108h26zM505 512.001c-13.333 52.667 -20.666 93.0029 -21.999 121.003h-3c-2 -28 -9.33301 -68.333 -22 -121l-140 -506c-12 -4 -26.667 -6 -44 -6
c-16.667 0 -30.334 2 -41.001 6l-205 708c8 4 20.333 6 37 6c17.333 0 30 -2 38 -6l149 -511c11.333 -40.667 20 -79.334 26 -116.001h3c4 36 11.333 74.333 22 115l143 512c7.33301 4 19.666 6 36.999 6c18 0 30.667 -2 38 -6l142 -511
c10.667 -42.667 17.667 -81.334 21 -116.001h3c4 33.333 12.333 71.666 25 114.999l145 512c8 4 19.333 6 34 6s26.334 -2 35.001 -6l-200 -708c-10 -4 -23.333 -6 -40 -6c-16 0 -30 2 -42 6z" />
    <glyph glyph-name="wcircumflex" unicode="&#x175;" horiz-adv-x="794" 
d="M543 636c-7.33301 -18 -18.333 -28.999 -33 -32.999l-109 76l-108 -77c-14.667 5.33301 -25.667 16.666 -33 33.999l129 106h25zM430 312.001c-18.667 62 -28.667 106.332 -30 132.999h-3c-3.33301 -32.667 -14.333 -77 -33 -133l-97 -307
c-14.667 -3.33301 -27.334 -5 -38.001 -5c-10 0 -23.333 1.66699 -40 5l-160 516c8 3.33301 20 5 36 5c16.667 0 27.667 -1.66699 33 -5l110 -350c8 -28 14.667 -58.333 20 -91h3c4.66699 30 12 60.333 22 91l110 350c10.667 3.33301 23.334 5 38.001 5
c16 0 28 -1.66699 36 -5l108 -348c7.33301 -24 14 -55 20 -93h3c3.33301 22.667 11 53.334 23 92.001l109 349c8 3.33301 19 5 33 5c15.333 0 26 -1.66699 32 -5l-160 -516c-18 -3.33301 -31 -5 -39 -5c-7.33301 0 -20.333 1.66699 -39 5z" />
    <glyph glyph-name="Ycircumflex" unicode="&#x176;" horiz-adv-x="628" 
d="M467 798c-6.66699 -18.667 -18 -30.333 -34 -35l-111 79l-110 -79c-16 6 -27.667 17.667 -35 35l132 108h26zM528 714.001c8 4 21 6 39 6c17.333 0 31.333 -2 42 -6l-259 -411v-297c-8 -4 -20 -6 -36 -6c-17.333 0 -30 2 -38 6v295l-252 413c10 4 25 6 45 6
c18.667 0 32.667 -2 42 -6l206 -335z" />
    <glyph glyph-name="ycircumflex" unicode="&#x177;" horiz-adv-x="524" 
d="M403 636c-7.33301 -18 -18.333 -29 -33 -33l-109 76l-108 -77c-16 6 -27 17.333 -33 34l129 106h25zM285 -97c-18 -53.333 -36.6699 -90.667 -56.0029 -112c-24 -27.333 -57 -41 -99 -41c-20 0 -37 2.66699 -51 8c-4 8 -6 17.333 -6 28c0 15.333 2.33301 25.333 7 30
c12.667 -3.33301 27 -5 43 -5c22.667 0 40.334 6.66699 53.001 20c14.667 15.333 29 44 43 86l30 84c-7.33301 0 -15.333 1.66699 -24 5l-200 515c8.66699 3.33301 21.334 5 38.001 5s29.334 -1.66699 38.001 -5l135 -343c16 -41.333 28 -77 36 -107h3
c7.33301 29.333 18 65 32 107l118 343c7.33301 3.33301 19.333 5 36 5c15.333 0 27.333 -1.66699 36 -5z" />
    <glyph glyph-name="Ydieresis" unicode="&#x178;" horiz-adv-x="628" 
d="M201 844c8 3.33301 20.333 5 37 5c16 0 28.333 -1.66699 37 -5v-65c-8.66699 -3.33301 -21 -5 -37 -5c-16.667 0 -29 1.66699 -37 5v65zM359 844c8 3.33301 20.333 5 37 5c16 0 28.333 -1.66699 37 -5v-65c-8.66699 -3.33301 -21 -5 -37 -5c-16.667 0 -29 1.66699 -37 5
v65zM528 714c8 4 21 6 39 6c17.333 0 31.333 -2 42 -6l-259 -411v-297c-8 -4 -20 -6 -36 -6c-17.333 0 -30 2 -38 6v295l-252 413c10 4 25 6 45 6c18.667 0 32.667 -2 42 -6l206 -335z" />
    <glyph glyph-name="Zacute" unicode="&#x179;" horiz-adv-x="585" 
d="M338 924c30 2.66699 51.334 -7 64.001 -29l-119 -133c-20.667 3.33301 -35.334 11.333 -44.001 24zM523.001 720c4 -8 6 -18.667 6 -32s-2 -24.666 -6 -33.999l-396 -588h409c3.33301 -10 5 -20.667 5 -32c0 -14 -1.66699 -25.333 -5 -34h-492
c-3.33301 13.333 -5 24.666 -5 33.999c0 10 1.66699 20.667 5 32l394 588h-366c-3.33301 13.333 -5 25 -5 35c0 10.667 1.66699 21 5 31h451z" />
    <glyph glyph-name="zacute" unicode="&#x17a;" horiz-adv-x="461" 
d="M224 607c-20.667 2 -35 10 -43 24l103 144c29.333 2.66699 51 -7 65 -29zM407 61c4 -6.66699 6 -17 6 -31c0 -12.667 -2 -22.667 -6 -30h-361c-3.33301 8 -5 18.667 -5 32c0 12.667 1.66699 22.334 5 29.001l283 404h-263c-3.33301 7.33301 -5 17.666 -5 30.999
s1.66699 23.333 5 30h340c3.33301 -10 5 -19.667 5 -29s-1.66699 -20 -5 -32l-283 -404h284z" />
    <glyph glyph-name="Zdotaccent" unicode="&#x17b;" horiz-adv-x="585" 
d="M256 853c8 2.66699 20.667 4 38 4c16.667 0 29.334 -1.33301 38.001 -4v-68c-8.66699 -3.33301 -21.334 -5 -38.001 -5c-17.333 0 -30 1.66699 -38 5v68zM523 720c4 -8 6 -18.667 6 -32s-2 -24.666 -6 -33.999l-396 -588h409c3.33301 -10 5 -20.667 5 -32
c0 -14 -1.66699 -25.333 -5 -34h-492c-3.33301 13.333 -5 24.666 -5 33.999c0 10 1.66699 20.667 5 32l394 588h-366c-3.33301 13.333 -5 25 -5 35c0 10.667 1.66699 21 5 31h451z" />
    <glyph glyph-name="zdotaccent" unicode="&#x17c;" horiz-adv-x="461" 
d="M279 642c-8.66699 -3.33301 -21.334 -5 -38.001 -5c-17.333 0 -30 1.66699 -38 5v68c8 2.66699 20.667 4 38 4c16.667 0 29.334 -1.33301 38.001 -4v-68zM407 61c4 -6.66699 6 -17 6 -31c0 -12.667 -2 -22.667 -6 -30h-361c-3.33301 8 -5 18.667 -5 32
c0 12.667 1.66699 22.334 5 29.001l283 404h-263c-3.33301 7.33301 -5 17.666 -5 30.999s1.66699 23.333 5 30h340c3.33301 -10 5 -19.667 5 -29s-1.66699 -20 -5 -32l-283 -404h284z" />
    <glyph glyph-name="Zcaron" unicode="&#x17d;" horiz-adv-x="585" 
d="M408 905c14.667 -4.66699 26 -16 34 -34l-132 -108h-26l-132 108c6.66699 17.333 18 29 34 35l112 -79zM523 720c4 -8 6 -18.667 6 -32s-2 -24.666 -6 -33.999l-396 -588h409c3.33301 -10 5 -20.667 5 -32c0 -14 -1.66699 -25.333 -5 -34h-492
c-3.33301 13.333 -5 24.666 -5 33.999c0 10 1.66699 20.667 5 32l394 588h-366c-3.33301 13.333 -5 25 -5 35c0 10.667 1.66699 21 5 31h451z" />
    <glyph glyph-name="zcaron" unicode="&#x17e;" horiz-adv-x="461" 
d="M108 700c7.33301 15.333 17.667 25.999 31 31.999l101 -72l100 71c11.333 -3.33301 21.333 -13.666 30 -30.999l-119 -98h-23zM407.001 60.999c4 -6.66699 6 -16.999 6 -30.999c0 -12.667 -2 -22.667 -6 -30h-361c-3.33301 12 -5 22.667 -5 32s1.66699 19 5 29l283 404
h-263c-3.33301 7.33301 -5 17.666 -5 30.999s1.66699 23.333 5 30h340c3.33301 -10 5 -19.667 5 -29s-1.66699 -20 -5 -32l-283 -404h284z" />
    <glyph glyph-name="longs" unicode="&#x17f;" horiz-adv-x="278" 
d="M181 5c-7.33301 -3.33301 -19.332 -4.99902 -35.999 -4.99902s-28.667 1.66699 -36 5v464h-71c-4 20 -4 39 0 57h71v60c0 109.333 52.667 164 158 164c40 0 74 -5.66699 102 -17c0 -22 -6.33301 -39.667 -19 -53c-20.667 7.33301 -46.334 11 -77.001 11
c-35.333 0 -60 -8.66699 -74 -26c-12 -14.667 -18 -39.334 -18 -74.001v-586z" />
    <glyph glyph-name="uni018F" unicode="&#x18f;" horiz-adv-x="628" 
d="M113 335c5.33301 -188.667 71 -283 197 -283s191.667 94.333 197 283h-394zM35 351c-0.666992 4.66699 -1.00098 9.66895 -1.00098 15.002c0 13.333 2 23.666 6 30.999h467c-8 179.333 -81 269 -219 269c-56.667 0 -105.667 -8 -147 -24
c-15.333 13.333 -23 31.666 -23 54.999c42.667 22 102.334 33 179.001 33c192.667 0 289 -123.333 289 -370v-25h-1c-6 -230 -97.667 -345 -275 -345c-181.333 0 -273 120.333 -275 361z" />
    <glyph glyph-name="florin" unicode="&#x192;" horiz-adv-x="446" 
d="M208 13c-11.333 -102.667 -61.668 -154.002 -151.001 -154.002c-36 0 -67.333 7 -94 21c0 20 6.33301 36 19 48c21.333 -7.33301 45 -11 71 -11c50.667 0 79 31 85 93l39 397h-89c-3.33301 6.66699 -5 16 -5 28c0 10.667 1.66699 19.334 5 26.001h94l8 76
c5.33301 52.667 19 91.334 41 116.001c23.333 25.333 59 38 107 38c38.667 0 70.334 -6 95.001 -18c0 -18.667 -6 -35 -18 -49c-22 7.33301 -46.333 11 -73 11c-49.333 0 -77 -32 -83 -96l-7 -78h93c3.33301 -6.66699 5 -15.667 5 -27s-1.66699 -20.333 -5 -27h-99z" />
    <glyph glyph-name="Ohorn" unicode="&#x1a0;" 
d="M339 730c183.333 0 275 -123.333 275 -370s-91.667 -370 -275 -370s-275 123.333 -275 370s91.667 370 275 370zM339 668c-131.333 0 -197 -102.667 -197 -308s65.667 -308 197 -308s197 102.667 197 308s-65.667 308 -197 308zM531 626
c37.333 39.333 53.667 88.333 49 147c26.667 6 48 3.66699 64 -7c-2.66699 -75.333 -29 -128.333 -79 -159c-16 2 -27.333 8.33301 -34 19z" />
    <glyph glyph-name="ohorn" unicode="&#x1a1;" horiz-adv-x="542" 
d="M271 536c142.667 0 214 -91 214 -273s-71.333 -273 -214 -273s-214 91 -214 273s71.333 273 214 273zM373 434c-22 30 -56 45 -102 45s-80 -15 -102 -45c-25.333 -34.667 -38 -91.667 -38 -171s12.667 -136.333 38 -171c22 -30 56 -45 102 -45s80 15 102 45
c25.333 34.667 38 91.667 38 171s-12.667 136.333 -38 171zM430 427c37.333 39.333 53.667 88.333 49 147c26.667 6 48 3.66699 64 -7c-2.66699 -75.333 -29 -128.333 -79 -159c-16 2 -27.333 8.33301 -34 19z" />
    <glyph glyph-name="Uhorn" unicode="&#x1af;" horiz-adv-x="668" 
d="M578 235c0 -77.333 -22.333 -137.667 -67 -181c-44 -42.667 -103 -64 -177 -64s-133 21.333 -177 64c-44 44 -66 104.333 -66 181v479c8.66699 4 21 6 37 6c16.667 0 29 -2 37 -6v-490c0 -54 15 -96 45 -126s72 -45 126 -45c53.333 0 95 15 125 45
c29.333 30 44 72 44 126v490c8 4 20 6 36 6s28.333 -2 37 -6v-479zM577 624.999c48 30.667 64.333 79.667 49 147c26.667 6 48 3.66699 64 -7c11.333 -94 -27.667 -156.667 -117 -188c-5.33301 15.333 -4 31.333 4 48z" />
    <glyph glyph-name="uhorn" unicode="&#x1b0;" horiz-adv-x="548" 
d="M76 521c8.66699 3.33301 20.666 5.00098 35.999 5.00098c16.667 0 28.667 -1.66699 36 -5v-367c0 -69.333 36.333 -104 109 -104c60 0 106.333 30.333 139 91v380c8 3.33301 20 5 36 5c16.667 0 28.667 -1.66699 36 -5v-516c-7.33301 -3.33301 -19.333 -5 -36 -5
c-16 0 -28 1.66699 -36 5v63c-41.333 -52 -96.666 -78 -165.999 -78c-48 0 -86 13.667 -114 41c-26.667 27.333 -40 63.666 -40 108.999v381zM466.999 428.001c48 30.667 64.333 79.667 49 147c26.667 6 48 3.66699 64 -7c11.333 -94 -27.667 -156.667 -117 -188
c-5.33301 15.333 -4 31.333 4 48z" />
    <glyph glyph-name="Aringacute" unicode="&#x1fa;" horiz-adv-x="648" 
d="M329 927c-20 3.33301 -33.333 9.33301 -40 18l97 108c26.667 2 46.667 -5.33301 60 -22zM630 6c-8.66699 -4 -22.333 -6 -41 -6c-16 0 -28 2 -36 6l-72 191h-319l-73 -191c-8 -4 -20 -6 -36 -6s-27.667 2 -35 6l257 687c-46.667 13.333 -70 46 -70 98
c0 33.333 12 60 36 80c22 18 49 27 81 27c31.333 0 58.333 -9 81 -27c24.667 -20 37 -46.667 37 -80c0 -48.667 -22.667 -80.667 -68 -96zM375.001 836c-13.333 13.333 -31.333 20 -54 20c-22 0 -39.333 -6.66699 -52 -20c-11.333 -12 -17 -27 -17 -45
c0 -18.667 5.66699 -34 17 -46c12.667 -14 30 -21 52 -21c22.667 0 40.667 7 54 21c12 12.667 18 28 18 46s-6 33 -18 45zM343.001 565c-9.33301 26.667 -16 49.667 -20 69h-3c-4 -20 -10.667 -43 -20 -69l-116 -306h275z" />
    <glyph glyph-name="aringacute" unicode="&#x1fb;" horiz-adv-x="515" 
d="M294 931c26.667 2 46.667 -5.33301 60 -22l-117 -104c-20 3.33301 -33.333 9.33301 -40 18zM180 755c21.333 16.667 47.667 24.998 79 24.998c30.667 0 57 -8.33301 79 -25c24 -19.333 36 -44.666 36 -75.999c0 -32 -11.333 -57.667 -34 -77c-22 -18 -49.333 -27 -82 -27
c-33.333 0 -60 9 -80 27c-22 18.667 -33 44.334 -33 77.001c0 32 11.667 57.333 35 76zM308.001 719.998c-12 12 -28.667 18 -50 18c-20 0 -36 -6.33301 -48 -19c-10.667 -10.667 -16 -24 -16 -40c0 -16.667 5.33301 -30.667 16 -42c12 -12.667 28 -19 48 -19
c21.333 0 38 6.33301 50 19c11.333 11.333 17 25.333 17 42c0 16 -5.66699 29.667 -17 41zM257.001 535.998c68.667 0 116.666 -17 143.999 -51c24.667 -30.667 37 -81 37 -151v-329c-6 -3.33301 -15.667 -5 -29 -5c-12 0 -21.667 1.66699 -29 5l-11 75
c-28.667 -60 -84.667 -90 -168 -90c-47.333 0 -84.666 13.667 -111.999 41c-28.667 28 -43 67.667 -43 119c0 104 63 156 189 156c42.667 0 86.334 -2.66699 131.001 -8v56c0 42.667 -9.33301 73.334 -28 92.001s-48.667 28 -90 28c-50 0 -96.667 -8.33301 -140 -25
c-6.66699 3.33301 -12.334 10.666 -17.001 21.999c-3.33301 8 -5 18.333 -5 31c50.667 22.667 107.667 34 171 34zM366 245.998c-61.333 5.33301 -101.667 8 -121 8c-82.667 0 -124 -34.667 -124 -104c0 -68 34.333 -102 103 -102c43.333 0 78 15 104 45
c25.333 29.333 38 67 38 113v40z" />
    <glyph glyph-name="AEacute" unicode="&#x1fc;" horiz-adv-x="858" 
d="M589 756c-20.667 2 -35 10 -43 24l103 144c29.333 2.66699 51 -7 65 -29zM88 6c-10 -4 -23.001 -5.99902 -39.001 -5.99902c-17.333 0 -30.666 2 -39.999 6l433 714h354c9.33301 -21.333 9.33301 -42 0 -62h-277v-263h227c8 -22 8 -42.667 0 -62h-227v-271h287
c8 -20.667 8 -41.334 0 -62.001h-357v190h-251zM235.999 252.001h213v355z" />
    <glyph glyph-name="aeacute" unicode="&#x1fd;" horiz-adv-x="775" 
d="M360 607c-20.667 2 -35.333 10 -44 24l104 144c29.333 2.66699 51 -7 65 -29zM546.001 536c57.333 0 101.67 -17.335 133.003 -52.002c30.667 -33.333 46 -80.666 46 -141.999c0 -36.667 -3.66699 -68 -11 -94h-295c6.66699 -131.333 53.334 -197 140.001 -197
c48 0 86 10.667 114 32c14.667 -10 23 -26.333 25 -49c-32 -29.333 -81.667 -44 -149 -44c-88 0 -144.333 39.667 -169 119c-23.333 -79.333 -83.333 -119 -180 -119c-48.667 0 -86.334 13.667 -113.001 41c-27.333 28 -41 67.667 -41 119c0 101.333 60.667 152 182 152h120
v55c0 42 -8.66699 72 -26 90s-45.333 27 -84 27c-46.667 0 -90.334 -8.33301 -131.001 -25c-14 12.667 -21 30.334 -21 53.001c47.333 22.667 101 34 161 34c77.333 0 126.666 -30.667 147.999 -92c31.333 61.333 81.666 92 150.999 92zM546.005 476.998
c-79.333 0 -121.667 -58.332 -127 -174.999h229c2.66699 11.333 4 27.666 4 48.999c0 84 -35.333 126 -106 126zM238.004 247.999c-78.667 0 -118 -33 -118 -99c0 -67.333 31 -101 93 -101c41.333 0 74.333 14 99 42c24 28 36 65.667 36 113v45h-110z" />
    <glyph glyph-name="Oslashacute" unicode="&#x1fe;" 
d="M344 767c-20.667 2 -35 10 -43 24l103 144c29.333 2.66699 51 -7 65 -29zM525 659c59.333 -61.333 89.001 -161 89.001 -299c0 -246.667 -91.667 -370 -275 -370c-64 0 -117.333 16.333 -160 49l-45 -81c-8 -3.33301 -19 -5 -33 -5c-12.667 0 -23.334 1.66699 -32.001 5
l68 121c-48.667 62 -73 155.667 -73 281c0 246.667 91.667 370 275 370c56 0 102.667 -12 140 -36l37 67c7.33301 4 18.333 6 33 6c16 0 27 -2 33 -6zM142.001 360c0 -89.333 12.667 -157.333 38 -204l267 480c-29.333 21.333 -65.333 32 -108 32
c-131.333 0 -197 -102.667 -197 -308zM213.001 99c31.333 -31.333 73.333 -47 126 -47c131.333 0 197 102.667 197 308c0 104 -16.667 180.333 -50 229z" />
    <glyph glyph-name="oslashacute" unicode="&#x1ff;" horiz-adv-x="542" 
d="M233 607c-20.667 2 -35 10 -43 24l104 144c30 2.66699 51.333 -7 64 -29zM424 571c17.333 -2 32.666 -9.66797 45.999 -23.001l-43 -72c39.333 -45.333 59 -116.333 59 -213c0 -182 -71.667 -273 -215 -273c-43.333 0 -80.333 8.33301 -111 25l-35 -60
c-18 0.666992 -33 8.33398 -45 23.001l39 68c-41.333 44.667 -62 117 -62 217c0 182 71.333 273 214 273c46.667 0 85.334 -9.66699 116.001 -29zM355 452.999c-22 17.333 -50 26 -84 26c-46 0 -80 -15 -102 -45c-25.333 -34.667 -38 -91.667 -38 -171
c0 -66 10.333 -114.667 31 -146zM193 68.999c20.667 -14.667 46.667 -22 78 -22c46 0 80 15 102 45c25.333 34.667 38 91.667 38 171c0 60.667 -8.66699 107.667 -26 141z" />
    <glyph glyph-name="Scommaaccent" unicode="&#x218;" horiz-adv-x="565" 
d="M136 535c0 -40 18.001 -70.9971 54.001 -92.9971c18.667 -10.667 61.667 -26.334 129 -47.001c62 -18.667 106.667 -39.334 134 -62.001c41.333 -33.333 62 -80.333 62 -141c0 -64 -21 -113.667 -63 -149c-42.667 -35.333 -103 -53 -181 -53
c-84.667 0 -154.334 13.333 -209.001 40c-1.33301 25.333 5 45 19 59c60.667 -20.667 122.334 -31 185.001 -31c115.333 0 173 44.333 173 133c0 41.333 -17.333 73.666 -52 96.999c-21.333 14.667 -60.333 30 -117 46c-68.667 20 -116.334 39.667 -143.001 59
c-43.333 32 -65 78 -65 138c0 61.333 20 109.666 60 144.999c41.333 36 100.333 54 177 54s139.667 -9 189 -27c0 -25.333 -6.66699 -44.666 -20 -57.999c-48 14 -101 21 -159 21c-115.333 0 -173 -43.667 -173 -131zM237.001 -226.997
c20.667 21.333 32.333 51.999 35 91.999c-12 0.666992 -21 2.33398 -27 5.00098v73c9.33301 3.33301 23 5 41 5s31.333 -1.66699 40 -5v-50c0 -61.333 -20.333 -108 -61 -140z" />
    <glyph glyph-name="scommaaccent" unicode="&#x219;" horiz-adv-x="444" 
d="M101 494c32 28 77.668 42.001 137.001 42.001s104.333 -8.33301 135 -25c0.666992 -22.667 -6 -40.334 -20 -53.001c-32 11.333 -67.667 17 -107 17c-79.333 0 -119 -29.333 -119 -88c0 -24.667 12.333 -44.667 37 -60c14.667 -8.66699 42.667 -19 84 -31
c48 -14 82 -28.667 102 -44c32.667 -25.333 49 -61.333 49 -108c0 -102.667 -61 -154 -183 -154c-66.667 0 -120 11.333 -160 34c-1.33301 23.333 5.33398 41.333 20.001 54c43.333 -16.667 88.666 -25 135.999 -25c76.667 0 115 29.667 115 89
c0 29.333 -13 51.666 -39 66.999c-13.333 8 -42.333 18.667 -87 32c-44.667 12 -77.334 26.333 -98.001 43c-30.667 24 -46 57.333 -46 100c0 46.667 14.667 83.334 44 110.001zM176.001 -241.999c20.667 21.333 32.333 52.332 35 92.999
c-12 0.666992 -21 2.33398 -27 5.00098v73c9.33301 3.33301 23 5 41 5s31.333 -1.66699 40 -5v-50c0 -62 -20.333 -108.667 -61 -140z" />
    <glyph glyph-name="uni0237" unicode="&#x237;" horiz-adv-x="238" 
d="M83 521c6.66699 3.33301 18.667 4.99902 36 4.99902c16 0 28 -1.66699 36 -5v-609c0 -108 -46.667 -162 -140 -162c-28 0 -48.667 3 -62 9c-2 4.66699 -3 10.334 -3 17.001c0 16.667 2.66699 29 8 37c10.667 -2.66699 24 -4 40 -4c56.667 0 85 33 85 99v613z" />
    <glyph glyph-name="uni0259" unicode="&#x259;" horiz-adv-x="512" 
d="M384 286c-3.33301 66.667 -17.998 114.667 -43.998 144c-24 28 -61 42 -111 42c-50.667 0 -91.334 -11 -122.001 -33c-16 12.667 -24.667 30.334 -26 53.001c36.667 29.333 90.667 44 162 44c144 0 216 -92 216 -276c0 -91.333 -20 -160 -60 -206
c-36.667 -42.667 -88.334 -64 -155.001 -64c-60 0 -106.333 17 -139 51s-49 81.333 -49 142c0 41.333 3.66699 75.666 11 102.999h317zM244.002 49c88 0 134.667 61 140 183h-254c-2 -14 -3 -33 -3 -57c0 -84 39 -126 117 -126z" />
    <glyph glyph-name="circumflex" unicode="&#x2c6;" horiz-adv-x="396" 
d="M343 596c-8 -18.667 -19.333 -30 -34 -34l-112 78l-110 -79c-16 6 -27.333 17.667 -34 35l132 108h26z" />
    <glyph glyph-name="caron" unicode="&#x2c7;" horiz-adv-x="404" 
d="M53 658c6.66699 18 18 29.667 34 35l112 -79l110 78c14.667 -4 26 -15.333 34 -34l-132 -108h-26z" />
    <glyph glyph-name="breve" unicode="&#x2d8;" horiz-adv-x="324" 
d="M160 614c-62.667 0 -110.001 20 -142.001 60c6 18 17 30 33 36c28 -24.667 64.333 -37 109 -37s81 12.333 109 37c16.667 -6 27.667 -18 33 -36c-31.333 -40 -78.666 -60 -141.999 -60z" />
    <glyph glyph-name="dotaccent" unicode="&#x2d9;" horiz-adv-x="176" 
d="M125 608c-8.66699 -3.33301 -21.334 -5 -38.001 -5c-17.333 0 -30 1.66699 -38 5v68c8 3.33301 20.667 5 38 5c16.667 0 29.334 -1.66699 38.001 -5v-68z" />
    <glyph glyph-name="ring" unicode="&#x2da;" horiz-adv-x="344" 
d="M87 534c-22 20 -33 47 -33 81s12 60.667 36 80c22 18 49 27 81 27s59 -8.66699 81 -26c24.667 -20 37 -47 37 -81s-11.667 -61.333 -35 -82c-22 -18.667 -50 -28 -84 -28s-61.667 9.66699 -83 29zM224 661c-13.333 13.333 -31.333 20 -54 20c-22 0 -39.333 -7 -52 -21
c-11.333 -12 -17 -27 -17 -45c0 -18.667 5.66699 -34 17 -46c12.667 -14 30 -21 52 -21c22.667 0 40.667 7 54 21c11.333 12.667 17 28 17 46c0 18.667 -5.66699 34 -17 46z" />
    <glyph glyph-name="ogonek" unicode="&#x2db;" horiz-adv-x="283" 
d="M179 -199c-18 -12 -39.333 -17.999 -64 -17.999c-27.333 0 -49.333 7.66699 -66 23s-25 36 -25 62c0 34.667 14 63 42 85c27.333 20.667 64 32.667 110 36l5 -21c-70 -18 -105 -48.667 -105 -92c0 -34 18 -51 54 -51c14 0 26 2.66699 36 8
c8.66699 -6.66699 13 -17.334 13 -32.001z" />
    <glyph glyph-name="tilde" unicode="&#x2dc;" horiz-adv-x="327" 
d="M274 698c16.667 -6.66699 26.666 -18 29.999 -34c-16.667 -31.333 -43.667 -47 -81 -47c-19.333 0 -39.666 6 -60.999 18c-20.667 11.333 -37 17 -49 17c-20 0 -35.333 -10 -46 -30c-17.333 8 -27.333 19.333 -30 34c16.667 31.333 44 47 82 47
c18.667 0 38.667 -5.66699 60 -17s38 -17 50 -17c19.333 0 34.333 9.66699 45 29z" />
    <glyph glyph-name="hungarumlaut" unicode="&#x2dd;" horiz-adv-x="386" 
d="M65 640c-20.667 2 -35.333 10 -44 24l100 144c31.333 2 54.333 -7.66699 69 -29zM223.001 640c-20.667 2 -35.001 10 -43.001 24l100 144c30.667 2 53.334 -7.66699 68.001 -29z" />
    <glyph glyph-name="Alphatonos" unicode="&#x386;" horiz-adv-x="648" 
d="M283 714c10.667 4 24.334 6 41.001 6c17.333 0 31 -2 41 -6l265 -708c-8.66699 -4 -22.334 -6 -41.001 -6c-16 0 -28 2 -36 6l-72 191h-319l-73 -191c-8 -4 -20 -6 -36 -6s-27.667 2 -35 6zM320 634c-4 -20 -10.667 -43 -20 -69l-116 -306h275l-116 306
c-9.33301 26.667 -16 49.667 -20 69h-3zM154 732c30 2.66699 51.333 -7 64 -29l-125 -139c-20.667 2 -35 10 -43 24z" />
    <glyph glyph-name="Epsilontonos" unicode="&#x388;" horiz-adv-x="629" 
d="M567 720c4 -8.66699 6 -18.667 6 -30c0 -12 -2 -22.667 -6 -32h-323v-262h273c4 -8.66699 6 -18.667 6 -30c0 -10.667 -2 -21 -6 -31h-273v-273h333c4 -8.66699 6 -18.667 6 -30s-2 -22 -6 -32h-407v720h397zM84 732c30 2.66699 51.333 -7 64 -29l-125 -139
c-20.667 2 -35 10 -43 24z" />
    <glyph glyph-name="Etatonos" unicode="&#x389;" horiz-adv-x="761" 
d="M591 714c8.66699 4 21 6 37 6s28.333 -2 37 -6v-708c-8 -4 -20.333 -6 -37 -6c-18 0 -30.333 2 -37 6v330h-338v-330c-8.66699 -4 -21 -6 -37 -6c-18 0 -30.333 2 -37 6v708c8.66699 4 21 6 37 6s28.333 -2 37 -6v-312h338v312zM91 732c30 2.66699 51.333 -7 64 -29
l-125 -139c-20.667 2 -35 10 -43 24z" />
    <glyph glyph-name="Iotatonos" unicode="&#x38a;" horiz-adv-x="330" 
d="M160 714c8 4 20.332 6 36.999 6s29 -2 37 -6v-708c-8.66699 -4 -21 -6 -37 -6c-17.333 0 -29.666 2 -36.999 6v708zM71.999 732c30 2.66699 51.333 -7 64 -29l-125 -139c-20.667 2 -35 10 -43 24z" />
    <glyph glyph-name="Omicrontonos" unicode="&#x38c;" horiz-adv-x="730" 
d="M391 730c183.333 0 275 -123.333 275 -370s-91.667 -370 -275 -370s-275 123.333 -275 370s91.667 370 275 370zM391 668c-131.333 0 -197 -102.667 -197 -308s65.667 -308 197 -308s197 102.667 197 308s-65.667 308 -197 308zM111 732c30 2.66699 51.333 -7 64 -29
l-125 -139c-20.667 2 -35 10 -43 24z" />
    <glyph glyph-name="Upsilontonos" unicode="&#x38e;" horiz-adv-x="704" 
d="M604 714c8 4 21 6 39 6c17.333 0 31.333 -2 42 -6l-259 -411v-297c-8 -4 -20 -6 -36 -6c-17.333 0 -30 2 -38 6v295l-252 413c10 4 25 6 45 6c18.667 0 32.667 -2 42 -6l206 -335zM19 732c30 2.66699 51.333 -7 64 -29l-125 -139c-20.667 2 -35 10 -43 24z" />
    <glyph glyph-name="Omegatonos" unicode="&#x38f;" horiz-adv-x="700" 
d="M410 0c-10.667 22.667 -10.667 45 0 67c96 80.667 144 185 144 313c0 192 -68.333 288 -205 288s-205 -96 -205 -288c0 -128 48 -232.333 144 -313c9.33301 -21.333 9.33301 -43.666 0 -66.999h-235c-4.66699 12 -7 22.667 -7 32c0 12.667 2.33301 23.667 7 33h147
c-89.333 102.667 -134 207.667 -134 315c0 118.667 26 207.667 78 267c48 55.333 116.333 83 205 83c188.667 0 283 -116.667 283 -350c0 -106.667 -45 -211.667 -135 -315h148c4.66699 -12.667 7 -23.334 7 -32.001c0 -10 -2.33301 -21 -7 -33h-235zM46 732
c30 2.66699 51.333 -7 64 -29l-125 -139c-20.667 2 -35 10 -43 24z" />
    <glyph glyph-name="Alpha" unicode="&#x391;" horiz-adv-x="648" 
d="M283 714c10.667 4 24.334 6 41.001 6c17.333 0 31 -2 41 -6l265 -708c-8.66699 -4 -22.334 -6 -41.001 -6c-16 0 -28 2 -36 6l-72 191h-319l-73 -191c-8 -4 -20 -6 -36 -6s-27.667 2 -35 6zM320 634c-4 -20 -10.667 -43 -20 -69l-116 -306h275l-116 306
c-9.33301 26.667 -16 49.667 -20 69h-3z" />
    <glyph glyph-name="Beta" unicode="&#x392;" horiz-adv-x="627" 
d="M350 720c65.333 0 114.667 -18.999 148 -56.999c30.667 -34 46 -79.333 46 -136c0 -71.333 -28.667 -124.333 -86 -159c72.667 -34.667 109 -91.334 109 -170.001c0 -61.333 -17.667 -109.333 -53 -144c-36.667 -36 -90 -54 -160 -54h-258v720h254zM334.001 393.001
c89.333 0 134 44.667 134 134c0 88.667 -45 133 -135 133h-163v-267h164zM341.001 60.001c99.333 0 149 45.667 149 137c0 92 -49.667 138 -149 138h-171v-275h171z" />
    <glyph glyph-name="Gamma" unicode="&#x393;" horiz-adv-x="500" 
d="M470 720c4 -8 6 -18.667 6 -32c0 -12 -2 -23 -6 -33h-300v-649c-8.66699 -4 -21 -6 -37 -6s-28.333 2 -37 6v714h374z" />
    <glyph glyph-name="Delta" unicode="&#x394;" horiz-adv-x="646" 
d="M288 715c13.333 3.33301 25.999 5 37.999 5s24.667 -1.66699 38 -5l253 -675c-4 -16 -12.333 -29.333 -25 -40h-538c-13.333 10.667 -21.666 23.667 -24.999 39zM320.999 626c-4.66699 -23.333 -15.001 -56.667 -31.001 -100l-179 -464h421l-177 465
c-9.33301 24 -19.666 57 -30.999 99h-3z" />
    <glyph glyph-name="Epsilon" unicode="&#x395;" horiz-adv-x="555" 
d="M493 720c4 -8.66699 6 -18.667 6 -30c0 -12 -2 -22.667 -6 -32h-323v-262h273c4 -8.66699 6 -18.667 6 -30c0 -10.667 -2 -21 -6 -31h-273v-273h333c4 -8.66699 6 -18.667 6 -30s-2 -22 -6 -32h-407v720h397z" />
    <glyph glyph-name="Zeta" unicode="&#x396;" horiz-adv-x="585" 
d="M523 720c4 -8 6 -18.667 6 -32s-2 -24.666 -6 -33.999l-396 -588h409c3.33301 -10 5 -20.667 5 -32c0 -14 -1.66699 -25.333 -5 -34h-492c-3.33301 13.333 -5 24.666 -5 33.999c0 10 1.66699 20.667 5 32l394 588h-366c-3.33301 13.333 -5 25 -5 35
c0 10.667 1.66699 21 5 31h451z" />
    <glyph glyph-name="Eta" unicode="&#x397;" 
d="M508 714c8.66699 4 21 6 37 6s28.333 -2 37 -6v-708c-8 -4 -20.333 -6 -37 -6c-18 0 -30.333 2 -37 6v330h-338v-330c-8.66699 -4 -21 -6 -37 -6c-18 0 -30.333 2 -37 6v708c8.66699 4 21 6 37 6s28.333 -2 37 -6v-312h338v312z" />
    <glyph glyph-name="Theta" unicode="&#x398;" 
d="M339 730c183.333 0 275 -123.333 275 -370s-91.667 -370 -275 -370s-275 123.333 -275 370s91.667 370 275 370zM339 668c-131.333 0 -197 -102.667 -197 -308s65.667 -308 197 -308s197 102.667 197 308s-65.667 308 -197 308zM218 333c-2 5.33301 -3 15.333 -3 30
c0 13.333 1 22.666 3 27.999h242c2 -5.33301 3 -14.666 3 -27.999c0 -14.667 -1 -24.667 -3 -30h-242z" />
    <glyph glyph-name="Iota" unicode="&#x399;" horiz-adv-x="266" 
d="M96 714c8 4 20.332 6 36.999 6s29 -2 37 -6v-708c-8.66699 -4 -21 -6 -37 -6c-17.333 0 -29.666 2 -36.999 6v708z" />
    <glyph glyph-name="Kappa" unicode="&#x39a;" horiz-adv-x="613" 
d="M488 714c10.667 4 23.3301 6 37.9971 6c16 0 29.333 -2 40 -6l-232 -332l261 -376c-9.33301 -4 -23.666 -6 -42.999 -6c-18 0 -32.667 2 -44 6l-235 337h-103v-337c-7.33301 -4 -19.666 -6 -36.999 -6c-16 0 -28.333 2 -37 6v708c8.66699 4 21.334 6 38.001 6
c16 0 28 -2 36 -6v-309h102z" />
    <glyph glyph-name="Lambda" unicode="&#x39b;" horiz-adv-x="627" 
d="M99 6c-7.33301 -4 -18.998 -6 -34.998 -6c-18.667 -0 -32 2.33301 -40 7l249 708c10.667 3.33301 24.334 5 41.001 5c16 0 29.333 -1.66699 40 -5l250 -709c-8.66699 -4 -21.334 -6 -38.001 -6s-28.334 2 -35.001 6l-189 533c-12.667 35.333 -21.334 66.333 -26.001 93
h-3c-4.66699 -26.667 -13 -57.667 -25 -93z" />
    <glyph glyph-name="Mu" unicode="&#x39c;" horiz-adv-x="837" 
d="M693 720c20 0 36.334 -2 49.001 -6v-708c-8.66699 -4 -21 -6 -37 -6s-28.333 2 -37 6v424c0 104 1.66699 170.667 5 200h-3c-8.66699 -28 -31.334 -77 -68.001 -147l-167 -296c-6.66699 -2.66699 -15 -4 -25 -4c-9.33301 0 -17 1.33301 -23 4l-160 294
c-38 70.667 -61 120.334 -69 149.001h-3c5.33301 -26 8 -91 8 -195v-429c-7.33301 -4 -18.666 -6 -33.999 -6c-14.667 0 -26 2 -34 6v708c11.333 4 26.333 6 45 6c16 0 31 -2 45 -6l174 -318c27.333 -52.667 44.666 -90.334 51.999 -113.001h4c4 15.333 15.333 40 34 74
l196 357c14.667 4 30.667 6 48 6z" />
    <glyph glyph-name="Nu" unicode="&#x39d;" horiz-adv-x="696" 
d="M217 515c-24 40 -42.002 76.667 -54.002 110h-3c3.33301 -36 5 -86.667 5 -152v-467c-7.33301 -4 -19 -6 -35 -6c-15.333 0 -26.666 2 -33.999 6v708c10.667 4 25.334 6 44.001 6c20 0 34.667 -2 44 -6l293 -503c22.667 -38.667 41.667 -77.334 57 -116.001h3
c-4 42.667 -6 92.334 -6 149.001v470c7.33301 4 19.333 6 36 6c16 0 27 -2 33 -6v-708c-8.66699 -4 -22.667 -6 -42 -6c-20 0 -35 2 -45 6z" />
    <glyph glyph-name="Xi" unicode="&#x39e;" horiz-adv-x="555" 
d="M137 336c-3.33301 6.66699 -5 16.334 -5 29.001s1.66699 22.334 5 29.001h297c2.66699 -6.66699 4 -16.334 4 -29.001s-1.33301 -22.334 -4 -29.001h-297zM77 1c-3.33301 4.66699 -5 13.334 -5 26.001c0 12 1.66699 20.333 5 25h417c2.66699 -4.66699 4 -13 4 -25
c0 -12.667 -1.33301 -21.334 -4 -26.001h-417zM77 669c-3.33301 4.66699 -5 13.334 -5 26.001c0 12 1.66699 20.333 5 25h417c2.66699 -4.66699 4 -13 4 -25c0 -12.667 -1.33301 -21.334 -4 -26.001h-417z" />
    <glyph glyph-name="Omicron" unicode="&#x39f;" 
d="M339 730c183.333 0 275 -123.333 275 -370s-91.667 -370 -275 -370s-275 123.333 -275 370s91.667 370 275 370zM339 668c-131.333 0 -197 -102.667 -197 -308s65.667 -308 197 -308s197 102.667 197 308s-65.667 308 -197 308z" />
    <glyph glyph-name="Pi" unicode="&#x3a0;" horiz-adv-x="666" 
d="M570 6c-8.66699 -4 -20.668 -6 -36.001 -6c-18 0 -30.667 2 -38 6v649h-326v-649c-8.66699 -4 -21 -6 -37 -6c-17.333 0 -29.666 2 -36.999 6v714h474v-714z" />
    <glyph glyph-name="Rho" unicode="&#x3a1;" horiz-adv-x="602" 
d="M170 6c-8 -4 -20 -5.99902 -36 -5.99902c-18 0 -30.667 2 -38 6v714h253c63.333 0 114 -19.667 152 -59c36.667 -38.667 55 -90.334 55 -155.001c0 -64 -18.333 -115.667 -55 -155c-38 -39.333 -88.667 -59 -152 -59h-179v-286zM342 356.001c43.333 0 77 13.333 101 40
c23.333 26 35 62.333 35 109c0 48 -11.667 85.333 -35 112c-24 26.667 -57.667 40 -101 40h-172v-301h172z" />
    <glyph glyph-name="Sigma" unicode="&#x3a3;" horiz-adv-x="584" 
d="M263 366l-210 320.999v33h479c3.33301 -7.33301 5 -17.666 5 -30.999c0 -12.667 -1.66699 -23 -5 -31h-387l195 -293l-211 -301h409c3.33301 -7.33301 5 -18 5 -32c0 -12.667 -1.66699 -23 -5 -31h-502v38z" />
    <glyph glyph-name="Tau" unicode="&#x3a4;" horiz-adv-x="539" 
d="M504 720c4 -8 5.99902 -18.668 5.99902 -32.001c0 -12.667 -2 -23.667 -6 -33h-195v-649c-8.66699 -4 -21 -6 -37 -6c-17.333 0 -29.666 2 -36.999 6v649h-200c-4 8.66699 -6 19.667 -6 33c0 12.667 2 23.334 6 32.001h469z" />
    <glyph glyph-name="Upsilon" unicode="&#x3a5;" horiz-adv-x="628" 
d="M528 714c8 4 21 6 39 6c17.333 0 31.333 -2 42 -6l-259 -411v-297c-8 -4 -20 -6 -36 -6c-17.333 0 -30 2 -38 6v295l-252 413c10 4 25 6 45 6c18.667 0 32.667 -2 42 -6l206 -335z" />
    <glyph glyph-name="Phi" unicode="&#x3a6;" horiz-adv-x="797" 
d="M361 726c8 4 19.998 6 35.998 6c16.667 0 29.334 -2 38.001 -6v-74c208.667 0 313 -92 313 -276c0 -184.667 -104.333 -277 -313 -277v-93c-9.33301 -4 -21.666 -6 -36.999 -6c-18 0 -30.333 2 -37 6v93c-208 0 -312 92.333 -312 277c0 184 104 276 312 276v74z
M360.998 593c-76 0 -132.667 -14.333 -170 -43c-44.667 -34.667 -67 -92.667 -67 -174c0 -82 22.333 -140.333 67 -175c37.333 -28.667 94 -43 170 -43v435zM434.998 158c75.333 0 132 14.667 170 44c44.667 34.667 67 92.667 67 174s-22.333 139.333 -67 174
c-37.333 28.667 -94 43 -170 43v-435z" />
    <glyph glyph-name="Chi" unicode="&#x3a7;" horiz-adv-x="611" 
d="M492 714c10.667 4 23.998 6 39.998 6c16.667 0 30.334 -2 41.001 -6l-220 -339l233 -368c-10 -4.66699 -24.333 -7 -43 -7s-33 2 -43 6l-198 312l-197 -313c-11.333 -3.33301 -24.333 -5 -39 -5c-13.333 0 -27.666 1.66699 -42.999 5l232 367l-216 342
c10 4 24.667 6 44 6c17.333 0 31.333 -2 42 -6l182 -286z" />
    <glyph glyph-name="Psi" unicode="&#x3a8;" horiz-adv-x="797" 
d="M672 726c8 4 20.3311 6 36.998 6s29.667 -2 39 -6v-213c0 -184.667 -104.333 -277 -313 -277v-230c-9.33301 -4 -21.666 -6 -36.999 -6c-18 0 -30.333 2 -37 6v230c-208 0 -312 92.333 -312 277v213c8 4 20 6 36 6c16.667 0 29.667 -2 39 -6v-213
c0 -82 22.333 -140.333 67 -175c37.333 -28.667 94 -43 170 -43v431c8 4 20 6 36 6c16.667 0 29.334 -2 38.001 -6v-431c75.333 0 132 14.667 170 44c44.667 34.667 67 92.667 67 174v213z" />
    <glyph glyph-name="Omega" unicode="&#x3a9;" horiz-adv-x="700" 
d="M410 0c-10.667 22.667 -10.667 45 0 67c96 80.667 144 185 144 313c0 192 -68.333 288 -205 288s-205 -96 -205 -288c0 -128 48 -232.333 144 -313c9.33301 -21.333 9.33301 -43.666 0 -66.999h-235c-4.66699 12 -7 22.667 -7 32c0 12.667 2.33301 23.667 7 33h147
c-89.333 102.667 -134 207.667 -134 315c0 118.667 26 207.667 78 267c48 55.333 116.333 83 205 83c188.667 0 283 -116.667 283 -350c0 -106.667 -45 -211.667 -135 -315h148c4.66699 -12.667 7 -23.334 7 -32.001c0 -10 -2.33301 -21 -7 -33h-235z" />
    <glyph glyph-name="Iotadieresis" unicode="&#x3aa;" horiz-adv-x="266" 
d="M91 766c-8 -2.66699 -20 -4 -36 -4c-16.667 0 -29 1.33301 -37 4v66c8 2.66699 20.333 4 37 4c16 0 28 -1.33301 36 -4v-66zM249 766c-8 -2.66699 -20 -4 -36 -4c-16.667 0 -29 1.33301 -37 4v66c8 2.66699 20.333 4 37 4c16 0 28 -1.33301 36 -4v-66zM96 714
c8 4 20.332 6 36.999 6s29 -2 37 -6v-708c-8.66699 -4 -21 -6 -37 -6c-17.333 0 -29.666 2 -36.999 6v708z" />
    <glyph glyph-name="alphatonos" unicode="&#x3ac;" horiz-adv-x="604" 
d="M385 434c-22 30 -56 45 -102 45s-80 -15 -102 -45c-25.333 -34.667 -38 -91.667 -38 -171s12.667 -136.333 38 -171c22 -30 56 -45 102 -45s80 15 102 45c25.333 34.667 38 91.667 38 171s-12.667 136.333 -38 171zM460 109c-32 -79.333 -95 -119 -189 -119
c-142.667 0 -214 91 -214 273s71.333 273 214 273c94.667 0 158 -40 190 -120l21 105c7.33301 3.33301 19.666 5 36.999 5c16 0 27.667 -1.66699 35 -5l-53 -259l53 -259c-7.33301 -4 -19 -6 -35 -6c-17.333 0 -29.666 2 -36.999 6zM326 732c30 2.66699 51.333 -7 64 -29
l-125 -139c-20.667 2 -35 10 -43 24z" />
    <glyph glyph-name="epsilontonos" unicode="&#x3ad;" horiz-adv-x="455" 
d="M33 146c0 65.333 28.665 110 85.998 134c-46 23.333 -69 62.333 -69 117c0 92 59.667 138 179 138c54.667 0 100.334 -7.66699 137.001 -23c2.66699 -22.667 -3.33301 -41 -18 -55c-33.333 9.33301 -71.666 14 -114.999 14c-70 0 -105 -27.667 -105 -83
c0 -52.667 31 -79 93 -79h69c8 -20.667 8 -41.667 0 -63h-69c-73.333 0 -110 -31 -110 -93c0 -62.667 44.333 -94 133 -94c42.667 0 81 5.33301 115 16c14 -11.333 21 -29.333 21 -54c-36.667 -17.333 -83 -26 -139 -26c-138.667 0 -208 50.333 -208 151zM258.998 732
c30 2.66699 51.333 -7 64 -29l-125 -139c-20.667 2 -35 10 -43 24z" />
    <glyph glyph-name="etatonos" unicode="&#x3ae;" horiz-adv-x="549" 
d="M152 458c41.333 52 96.667 77.999 166 77.999c48.667 0 86.667 -13.667 114 -41c26.667 -26.667 40 -63 40 -109v-434c0 -49.333 -8.33301 -87.666 -25 -114.999c-18 -29.333 -48.667 -51 -92 -65c-17.333 12 -25.333 29.667 -24 53c46 16 69 58 69 126v421
c0 69.333 -36 104 -108 104c-61.333 0 -108 -30.333 -140 -91v-380c-8 -3.33301 -20 -5 -36 -5c-16.667 0 -28.667 1.66699 -36 5v516c7.33301 3.33301 19.333 5 36 5c16 0 28 -1.66699 36 -5v-63zM326.001 731.999c30 2.66699 51.333 -7 64 -29l-125 -139
c-20.667 2 -35 10 -43 24z" />
    <glyph glyph-name="iotatonos" unicode="&#x3af;" horiz-adv-x="238" 
d="M155 5c-8 -3.33301 -20 -5 -36 -5c-17.333 0 -29.333 1.66699 -36 5v516c6.66699 3.33301 18.667 5 36 5c16 0 28 -1.66699 36 -5v-516zM187 732c30 2.66699 51.333 -7 64 -29l-125 -139c-20.667 2 -35 10 -43 24z" />
    <glyph glyph-name="alpha" unicode="&#x3b1;" horiz-adv-x="597" 
d="M385 434c-22 30 -56 45 -102 45s-80 -15 -102 -45c-25.333 -34.667 -38 -91.667 -38 -171s12.667 -136.333 38 -171c22 -30 56 -45 102 -45s80 15 102 45c25.333 34.667 38 91.667 38 171s-12.667 136.333 -38 171zM460 109c-32 -79.333 -95 -119 -189 -119
c-142.667 0 -214 91 -214 273s71.333 273 214 273c94.667 0 158 -40 190 -120l21 105c7.33301 3.33301 19.666 5 36.999 5c16 0 27.667 -1.66699 35 -5l-53 -259l53 -259c-7.33301 -4 -19 -6 -35 -6c-17.333 0 -29.666 2 -36.999 6z" />
    <glyph glyph-name="beta" unicode="&#x3b2;" horiz-adv-x="519" 
d="M245 690c55.333 0 101.332 -15.333 137.999 -46c36 -30 54 -71.667 54 -125c0 -83.333 -33 -137.333 -99 -162c80 -25.333 120 -85.333 120 -180c0 -124.667 -72 -187 -216 -187c-40.667 4 -76 12 -106 24v-258c-8.66699 -4 -21 -6 -37 -6c-17.333 0 -29.666 2 -36.999 6
v767c8.66699 108 69.667 163.667 183 167zM135.999 83c31.333 -14 65 -23.667 101 -29c98 0 147 44.333 147 133c0 92.667 -43.333 139 -130 139h-62c-8.66699 20 -8.66699 40 0 60h62c73.333 0 110 41 110 123c0 80 -42 120 -126 120
c-63.333 -2.66699 -97.333 -28 -102 -76v-470z" />
    <glyph glyph-name="gamma" unicode="&#x3b3;" horiz-adv-x="510" 
d="M218 -1l-193 522c8.66699 3.33301 21.334 5 38.001 5c17.333 0 30 -1.66699 38 -5l125 -342c13.333 -36.667 23.333 -71 30 -103h3c7.33301 30.667 17.666 64.667 30.999 102l125 343c7.33301 3.33301 18.333 5 33 5c15.333 0 27 -1.66699 35 -5l-191 -530v-234
c-8.66699 -4 -21 -6 -37 -6c-16.667 0 -29 2 -37 6v242z" />
    <glyph glyph-name="delta" unicode="&#x3b4;" horiz-adv-x="542" 
d="M373 434c-22 30 -56 45 -102 45s-80 -15 -102 -45c-25.333 -34.667 -38 -91.667 -38 -171s12.667 -136.333 38 -171c22 -30 56 -45 102 -45s80 15 102 45c25.333 34.667 38 91.667 38 171s-12.667 136.333 -38 171zM414 487
c47.333 -44.667 71.001 -119.332 71.001 -223.999c0 -182 -71.333 -273 -214 -273s-214 91 -214 273c0 179.333 69.333 270.333 208 273l-164 121c-2.66699 9.33301 -4.33398 17.666 -5.00098 24.999c-3.33301 13.333 -2 26.333 4 39h343c6.66699 -14 6.66699 -30.333 0 -49
h-276l246 -182c0.666992 -1.33301 1 -2.33301 1 -3z" />
    <glyph glyph-name="epsilon" unicode="&#x3b5;" horiz-adv-x="455" 
d="M33 146c0 65.333 28.665 110 85.998 134c-46 23.333 -69 62.333 -69 117c0 92 59.667 138 179 138c54.667 0 100.334 -7.66699 137.001 -23c2.66699 -22.667 -3.33301 -41 -18 -55c-33.333 9.33301 -71.666 14 -114.999 14c-70 0 -105 -27.667 -105 -83
c0 -52.667 31 -79 93 -79h69c8 -20.667 8 -41.667 0 -63h-69c-73.333 0 -110 -31 -110 -93c0 -62.667 44.333 -94 133 -94c42.667 0 81 5.33301 115 16c14 -11.333 21 -29.333 21 -54c-36.667 -17.333 -83 -26 -139 -26c-138.667 0 -208 50.333 -208 151z" />
    <glyph glyph-name="zeta" unicode="&#x3b6;" horiz-adv-x="500" 
d="M125 722l317.001 0.000976562c4.66699 -0.666992 7 -3.33398 7 -8.00098v-50c-61.333 -44 -116 -90 -164 -138c-104 -124 -156 -228 -156 -312v-42c0 -56.667 39.667 -91.334 119 -104.001c94 -4 153.667 -36 179 -96l3 -34c0 -92.667 -53.333 -145.334 -160 -158.001
h-33c-5.33301 0 -8 2.66699 -8 8c8 46 17 69 27 69h14c62 0 93 28 93 84c0 34.667 -44.667 55.334 -134 62.001c-50.667 -0.666992 -95.334 22.333 -134.001 69c-22 30.667 -33 66.667 -33 108v31c0 144.667 93 293.334 279 446.001h-212c-3.33301 0 -7 3.66699 -11 11v46
c0.666992 5.33301 3 8 7 8z" />
    <glyph glyph-name="eta" unicode="&#x3b7;" horiz-adv-x="549" 
d="M152 458c41.333 52 96.667 77.999 166 77.999c48.667 0 86.667 -13.667 114 -41c26.667 -26.667 40 -63 40 -109v-434c0 -49.333 -8.33301 -87.666 -25 -114.999c-18 -29.333 -48.667 -51 -92 -65c-17.333 12 -25.333 29.667 -24 53c46 16 69 58 69 126v421
c0 69.333 -36 104 -108 104c-61.333 0 -108 -30.333 -140 -91v-380c-8 -3.33301 -20 -5 -36 -5c-16.667 0 -28.667 1.66699 -36 5v516c7.33301 3.33301 19.333 5 36 5c16 0 28 -1.66699 36 -5v-63z" />
    <glyph glyph-name="theta" unicode="&#x3b8;" horiz-adv-x="619" 
d="M474 369c-2.66699 89.333 -16.333 154.333 -41 195c-26 42.667 -67.667 64 -125 64c-56 0 -97 -21.333 -123 -64c-25.333 -41.333 -39.333 -106.333 -42 -195h331zM143.001 311c2.66699 -88.667 16.666 -153.334 41.999 -194.001c26 -43.333 67 -65 123 -65
c57.333 0 99 21.667 125 65c24.667 40.667 38.334 105.334 41.001 194.001h-331zM66 340c0 233.333 80.667 350 242 350c163.333 0 245 -116.667 245 -350s-81.667 -350 -245 -350c-161.333 0 -242 116.667 -242 350z" />
    <glyph glyph-name="iota" unicode="&#x3b9;" horiz-adv-x="238" 
d="M155 5c-8 -3.33301 -20 -5 -36 -5c-17.333 0 -29.333 1.66699 -36 5v516c6.66699 3.33301 18.667 5 36 5c16 0 28 -1.66699 36 -5v-516z" />
    <glyph glyph-name="kappa" unicode="&#x3ba;" horiz-adv-x="499" 
d="M383 521c10 3.33301 22.999 5 38.999 5c14.667 0 26.667 -1.66699 36 -5l-162 -241l185 -274c-9.33301 -4 -23.333 -6 -42 -6c-17.333 0 -30.666 2 -39.999 6l-164 240h-83v-241c-8.66699 -3.33301 -20.334 -5 -35.001 -5c-16 0 -28.333 1.66699 -37 5v516
c8.66699 3.33301 21 5 37 5c14.667 0 26.334 -1.66699 35.001 -5v-218h84z" />
    </font>
</defs>
</svg>
